<svg width="22" height="22" viewBox="0 0 22 22" fill="none" xmlns="http://www.w3.org/2000/svg">
<g clip-path="url(#clip0_255_16063)">
<path d="M18.9577 6.07455L17.0969 16.6282H16.3266V15.9622C16.3266 13.6845 14.6819 11.7829 12.5138 11.3741C12.8126 10.9157 13.0222 10.3999 13.129 9.85426C13.2299 9.82336 13.327 9.78217 13.4188 9.73163C14.2157 10.2283 15.2061 10.332 15.8923 10.332C16.3536 10.332 16.677 10.2853 16.7118 10.28L17.7205 10.1267L17.0131 9.39229C17.0002 9.37856 15.706 8.01172 15.9683 6.24306C16.175 4.84944 15.8919 3.54825 15.2117 2.76259C14.7856 2.27068 14.2168 2 13.6099 2C12.7089 2 12.1056 2.50798 11.7435 2.96927C11.0426 2.3642 10.1429 2 9.1635 2C6.93176 2 5.11627 3.88896 5.11627 6.21037V6.77919C4.50941 7.00345 4.07422 7.60179 4.07422 8.30313C4.07422 9.0351 4.54883 9.65527 5.19743 9.85426C5.30428 10.3999 5.51384 10.9157 5.81267 11.3741C3.64465 11.7829 2 13.6845 2 15.9622V20H17.577L20 6.25748L18.9577 6.07455ZM13.6099 3.05469C13.9128 3.05469 14.1821 3.18831 14.4102 3.45157C14.8925 4.00844 15.0833 4.99432 14.921 6.08897C14.723 7.42532 15.1847 8.55142 15.6181 9.27213C15.1383 9.24782 14.5846 9.15567 14.1321 8.92331C14.2094 8.73201 14.2524 8.52258 14.2524 8.30313C14.2524 7.60179 13.817 7.00345 13.2103 6.77919V6.21037C13.2103 5.30331 12.9332 4.46231 12.4621 3.77429C12.6598 3.47093 13.0348 3.05469 13.6099 3.05469ZM9.1635 3.05469C10.5141 3.05469 11.6585 4.00638 12.0269 5.30785H6.29964C6.66809 4.00638 7.81232 3.05469 9.1635 3.05469ZM6.19279 6.36253H12.1V6.46169C12.1 7.05865 11.6125 7.54453 11.013 7.54453H7.27975C6.68031 7.54453 6.19279 7.05865 6.19279 6.46169V6.36253ZM5.65556 8.86632L5.64142 8.86673C5.36058 8.86426 5.13275 8.61212 5.13275 8.30313C5.13275 8.02188 5.32117 7.78883 5.56657 7.74667C5.95824 8.26413 6.58047 8.59921 7.27975 8.59921H11.013C11.7144 8.59921 12.3384 8.26207 12.7301 7.742C12.9899 7.7692 13.1937 8.01035 13.1937 8.30313C13.1937 8.61212 12.966 8.86426 12.6854 8.86673L12.183 8.85822L12.1356 9.34203C11.977 10.9529 10.6994 12.1676 9.1635 12.1676C7.62706 12.1676 6.34949 10.9529 6.19101 9.34203L6.14349 8.85822L5.65556 8.86632ZM4.7485 18.9453H3.05853V17.8656H4.7485V18.9453ZM12.4069 18.3371L12.2309 18.9453H5.80704V15.2036H4.7485V16.8109H3.05853V15.9622C3.05853 13.9686 4.68588 12.3468 6.68663 12.3468H6.69295C7.39854 12.9135 8.26385 13.2223 9.1635 13.2223C10.0627 13.2223 10.9279 12.9135 11.6335 12.3468H11.6398C13.6406 12.3468 15.2679 13.9686 15.2679 15.9622V16.6282H14.4489C14.0973 16.6282 13.7609 16.7192 13.4655 16.8803V15.2036H12.4069V18.3371ZM16.6883 18.9453H13.3327L13.4898 18.4018C13.6124 17.9785 14.0065 17.6828 14.4489 17.6828H16.9108L16.6883 18.9453Z" fill="#00A6D1"/>
</g>
<defs>
<clipPath id="clip0_255_16063">
<rect width="18" height="18" fill="white" transform="translate(2 2)"/>
</clipPath>
</defs>
</svg>
