<svg width="22" height="22" viewBox="0 0 22 22" fill="none" xmlns="http://www.w3.org/2000/svg">
<path fill-rule="evenodd" clip-rule="evenodd" d="M4.57143 4.57143C3.86135 4.57143 3.28571 5.14706 3.28571 5.85714V17.4286C3.28571 18.1387 3.86135 18.7143 4.57143 18.7143H17.4286C18.1387 18.7143 18.7143 18.1387 18.7143 17.4286V5.85714C18.7143 5.14706 18.1387 4.57143 17.4286 4.57143H4.57143ZM2 5.85714C2 4.43698 3.15127 3.28571 4.57143 3.28571H17.4286C18.8487 3.28571 20 4.43698 20 5.85714V17.4286C20 18.8487 18.8487 20 17.4286 20H4.57143C3.15127 20 2 18.8487 2 17.4286V5.85714Z" fill="#00A6D1"/>
<path d="M12.6071 11C13.1397 11 13.5714 10.5683 13.5714 10.0357C13.5714 9.50315 13.1397 9.07143 12.6071 9.07143C12.0746 9.07143 11.6429 9.50315 11.6429 10.0357C11.6429 10.5683 12.0746 11 12.6071 11Z" fill="#00A6D1"/>
<path d="M15.8214 11C16.354 11 16.7857 10.5683 16.7857 10.0357C16.7857 9.50315 16.354 9.07143 15.8214 9.07143C15.2889 9.07143 14.8571 9.50315 14.8571 10.0357C14.8571 10.5683 15.2889 11 15.8214 11Z" fill="#00A6D1"/>
<path d="M12.6071 14.2143C13.1397 14.2143 13.5714 13.7826 13.5714 13.25C13.5714 12.7174 13.1397 12.2857 12.6071 12.2857C12.0746 12.2857 11.6429 12.7174 11.6429 13.25C11.6429 13.7826 12.0746 14.2143 12.6071 14.2143Z" fill="#00A6D1"/>
<path d="M15.8214 14.2143C16.354 14.2143 16.7857 13.7826 16.7857 13.25C16.7857 12.7174 16.354 12.2857 15.8214 12.2857C15.2889 12.2857 14.8571 12.7174 14.8571 13.25C14.8571 13.7826 15.2889 14.2143 15.8214 14.2143Z" fill="#00A6D1"/>
<path d="M6.17857 14.2143C6.71113 14.2143 7.14286 13.7826 7.14286 13.25C7.14286 12.7174 6.71113 12.2857 6.17857 12.2857C5.64601 12.2857 5.21429 12.7174 5.21429 13.25C5.21429 13.7826 5.64601 14.2143 6.17857 14.2143Z" fill="#00A6D1"/>
<path d="M9.39286 14.2143C9.92542 14.2143 10.3571 13.7826 10.3571 13.25C10.3571 12.7174 9.92542 12.2857 9.39286 12.2857C8.8603 12.2857 8.42857 12.7174 8.42857 13.25C8.42857 13.7826 8.8603 14.2143 9.39286 14.2143Z" fill="#00A6D1"/>
<path d="M6.17857 17.4286C6.71113 17.4286 7.14286 16.9968 7.14286 16.4643C7.14286 15.9317 6.71113 15.5 6.17857 15.5C5.64601 15.5 5.21429 15.9317 5.21429 16.4643C5.21429 16.9968 5.64601 17.4286 6.17857 17.4286Z" fill="#00A6D1"/>
<path d="M9.39286 17.4286C9.92542 17.4286 10.3571 16.9968 10.3571 16.4643C10.3571 15.9317 9.92542 15.5 9.39286 15.5C8.8603 15.5 8.42857 15.9317 8.42857 16.4643C8.42857 16.9968 8.8603 17.4286 9.39286 17.4286Z" fill="#00A6D1"/>
<path d="M12.6071 17.4286C13.1397 17.4286 13.5714 16.9968 13.5714 16.4643C13.5714 15.9317 13.1397 15.5 12.6071 15.5C12.0746 15.5 11.6429 15.9317 11.6429 16.4643C11.6429 16.9968 12.0746 17.4286 12.6071 17.4286Z" fill="#00A6D1"/>
<path fill-rule="evenodd" clip-rule="evenodd" d="M5.85714 2C6.21218 2 6.5 2.28782 6.5 2.64286V3.92857C6.5 4.28361 6.21218 4.57143 5.85714 4.57143C5.5021 4.57143 5.21429 4.28361 5.21429 3.92857V2.64286C5.21429 2.28782 5.5021 2 5.85714 2Z" fill="#00A6D1"/>
<path fill-rule="evenodd" clip-rule="evenodd" d="M16.1429 2C16.4979 2 16.7857 2.28782 16.7857 2.64286V3.92857C16.7857 4.28361 16.4979 4.57143 16.1429 4.57143C15.7878 4.57143 15.5 4.28361 15.5 3.92857V2.64286C15.5 2.28782 15.7878 2 16.1429 2Z" fill="#00A6D1"/>
<path fill-rule="evenodd" clip-rule="evenodd" d="M2.64286 6.5H19.3571V7.78571H2.64286V6.5Z" fill="#00A6D1"/>
</svg>
