<svg width="22" height="22" viewBox="0 0 22 22" fill="none" xmlns="http://www.w3.org/2000/svg">
<path fill-rule="evenodd" clip-rule="evenodd" d="M15.1861 15.8134C14.6081 15.8134 14.1396 16.2819 14.1396 16.8599C14.1396 17.438 14.6081 17.9065 15.1861 17.9065C15.7641 17.9065 16.2326 17.438 16.2326 16.8599C16.2326 16.2819 15.7641 15.8134 15.1861 15.8134ZM12.8838 16.8599C12.8838 15.5884 13.9146 14.5576 15.1861 14.5576C16.4577 14.5576 17.4884 15.5884 17.4884 16.8599C17.4884 18.1315 16.4577 19.1623 15.1861 19.1623C13.9146 19.1623 12.8838 18.1315 12.8838 16.8599Z" fill="#00A6D1"/>
<path fill-rule="evenodd" clip-rule="evenodd" d="M6.81404 15.8134C6.23607 15.8134 5.76753 16.2819 5.76753 16.8599C5.76753 17.438 6.23607 17.9065 6.81404 17.9065C7.39202 17.9065 7.86056 17.438 7.86056 16.8599C7.86056 16.2819 7.39202 15.8134 6.81404 15.8134ZM4.51172 16.8599C4.51172 15.5884 5.54251 14.5576 6.81404 14.5576C8.08558 14.5576 9.11637 15.5884 9.11637 16.8599C9.11637 18.1315 8.08558 19.1623 6.81404 19.1623C5.54251 19.1623 4.51172 18.1315 4.51172 16.8599Z" fill="#00A6D1"/>
<path fill-rule="evenodd" clip-rule="evenodd" d="M2 3.46482C2 3.11804 2.28113 2.83691 2.62791 2.83691H17.6977C17.9355 2.83691 18.1529 2.97129 18.2593 3.18401L19.9337 6.53285C20.0311 6.72749 20.0206 6.95865 19.9062 7.14377C19.7918 7.32889 19.5897 7.44157 19.3721 7.44157H16.0233V6.18575H18.3561L17.3096 4.09273H3.25581V12.6741H2V3.46482Z" fill="#00A6D1"/>
<path fill-rule="evenodd" clip-rule="evenodd" d="M7.65128 7.44136H5.13965V6.18555H7.65128V7.44136Z" fill="#00A6D1"/>
<path fill-rule="evenodd" clip-rule="evenodd" d="M12.0465 6.81345C12.0465 6.46667 12.3276 6.18555 12.6744 6.18555H16.0233C16.2332 6.18555 16.4292 6.29047 16.5457 6.46515L19.8945 11.4884C19.9633 11.5916 20 11.7127 20 11.8367V16.86C20 17.2067 19.7189 17.4879 19.3721 17.4879H16.8605V16.2321H18.7442V12.4646H3.25581V16.2321H5.13953V17.4879H2.62791C2.28113 17.4879 2 17.2067 2 16.86V11.8367C2 11.4899 2.28113 11.2088 2.62791 11.2088H12.0465V6.81345ZM13.3023 11.2088H18.1988L15.6872 7.44136H13.3023V11.2088ZM13.5116 17.4879H8.48837V16.2321H13.5116V17.4879Z" fill="#00A6D1"/>
</svg>
