<svg width="22" height="22" viewBox="0 0 22 22" fill="none" xmlns="http://www.w3.org/2000/svg">
<path d="M4.25 18.5938C3.80499 18.5938 3.36998 18.4618 2.99997 18.2146C2.62996 17.9673 2.34157 17.6159 2.17127 17.2048C2.00097 16.7937 1.95642 16.3413 2.04323 15.9048C2.13005 15.4683 2.34434 15.0674 2.65901 14.7528C2.97368 14.4381 3.37459 14.2238 3.81105 14.137C4.24751 14.0502 4.6999 14.0947 5.11104 14.265C5.52217 14.4353 5.87357 14.7237 6.12081 15.0937C6.36804 15.4637 6.5 15.8987 6.5 16.3438C6.49938 16.9403 6.26212 17.5122 5.8403 17.9341C5.41848 18.3559 4.84655 18.5931 4.25 18.5938ZM4.25 15.2188C4.0275 15.2188 3.80999 15.2847 3.62498 15.4083C3.43998 15.532 3.29579 15.7077 3.21064 15.9132C3.12549 16.1188 3.10321 16.345 3.14662 16.5632C3.19003 16.7815 3.29717 16.9819 3.45451 17.1392C3.61184 17.2966 3.8123 17.4037 4.03052 17.4471C4.24875 17.4905 4.47495 17.4683 4.68052 17.3831C4.88609 17.298 5.06179 17.1538 5.1854 16.9688C5.30902 16.7838 5.375 16.5663 5.375 16.3438C5.37466 16.0455 5.25602 15.7595 5.04512 15.5486C4.83421 15.3377 4.54826 15.2191 4.25 15.2188Z" fill="#00A6D1"/>
<path d="M17.75 18.5938C17.305 18.5938 16.87 18.4618 16.5 18.2146C16.13 17.9673 15.8416 17.6159 15.6713 17.2048C15.501 16.7937 15.4564 16.3413 15.5432 15.9048C15.6301 15.4683 15.8443 15.0674 16.159 14.7528C16.4737 14.4381 16.8746 14.2238 17.311 14.137C17.7475 14.0502 18.1999 14.0947 18.611 14.265C19.0222 14.4353 19.3736 14.7237 19.6208 15.0937C19.868 15.4637 20 15.8987 20 16.3438C19.9994 16.9403 19.7621 17.5122 19.3403 17.9341C18.9185 18.3559 18.3465 18.5931 17.75 18.5938ZM17.75 15.2188C17.5275 15.2188 17.31 15.2847 17.125 15.4083C16.94 15.532 16.7958 15.7077 16.7106 15.9132C16.6255 16.1188 16.6032 16.345 16.6466 16.5632C16.69 16.7815 16.7972 16.9819 16.9545 17.1392C17.1118 17.2966 17.3123 17.4037 17.5305 17.4471C17.7488 17.4905 17.975 17.4683 18.1805 17.3831C18.3861 17.298 18.5618 17.1538 18.6854 16.9688C18.809 16.7838 18.875 16.5663 18.875 16.3438C18.8747 16.0455 18.756 15.7595 18.5451 15.5486C18.3342 15.3377 18.0483 15.2191 17.75 15.2188Z" fill="#00A6D1"/>
<path d="M17.75 15.2188C17.6008 15.2188 17.4577 15.1595 17.3523 15.054C17.2468 14.9485 17.1875 14.8054 17.1875 14.6562V14.1492L16.817 12.2958C16.7911 12.1684 16.7221 12.0538 16.6215 11.9715C16.5209 11.8891 16.395 11.844 16.265 11.8438H14.375C14.2259 11.8439 14.0829 11.9032 13.9774 12.0087C13.8719 12.1141 13.8126 12.2571 13.8125 12.4062V14.0938C13.8125 14.2429 13.7532 14.386 13.6477 14.4915C13.5423 14.597 13.3992 14.6562 13.25 14.6562H8.75C8.60082 14.6562 8.45774 14.597 8.35225 14.4915C8.24676 14.386 8.1875 14.2429 8.1875 14.0938V12.4062C8.18737 12.2571 8.12806 12.1141 8.0226 12.0087C7.91714 11.9032 7.77414 11.8439 7.625 11.8438H5.375C5.22586 11.8439 5.08286 11.9032 4.9774 12.0087C4.87194 12.1141 4.81263 12.2571 4.8125 12.4062V14.6562C4.8125 14.8054 4.75324 14.9485 4.64775 15.054C4.54226 15.1595 4.39918 15.2188 4.25 15.2188C4.10082 15.2188 3.95774 15.1595 3.85225 15.054C3.74676 14.9485 3.6875 14.8054 3.6875 14.6562V12.4062C3.68799 11.9588 3.86594 11.5299 4.1823 11.2135C4.49866 10.8972 4.9276 10.7192 5.375 10.7188H7.625C8.0724 10.7192 8.50134 10.8972 8.8177 11.2135C9.13406 11.5299 9.31201 11.9588 9.3125 12.4062V13.5312H12.6875V12.4062C12.688 11.9588 12.8659 11.5299 13.1823 11.2135C13.4987 10.8972 13.9276 10.7192 14.375 10.7188H16.265C16.6549 10.7195 17.0325 10.8549 17.334 11.102C17.6355 11.3492 17.8425 11.6929 17.9198 12.075L18.3013 13.9833C18.3087 14.0197 18.3125 14.0567 18.3125 14.0938V14.6562C18.3125 14.8054 18.2532 14.9485 18.1477 15.054C18.0423 15.1595 17.8992 15.2188 17.75 15.2188Z" fill="#00A6D1"/>
<path d="M16.0625 16.9062H5.9375C5.78832 16.9062 5.64524 16.847 5.53975 16.7415C5.43426 16.636 5.375 16.4929 5.375 16.3438C5.375 16.1946 5.43426 16.0515 5.53975 15.946C5.64524 15.8405 5.78832 15.7812 5.9375 15.7812H16.0625C16.2117 15.7812 16.3548 15.8405 16.4602 15.946C16.5657 16.0515 16.625 16.1946 16.625 16.3438C16.625 16.4929 16.5657 16.636 16.4602 16.7415C16.3548 16.847 16.2117 16.9062 16.0625 16.9062Z" fill="#00A6D1"/>
<path d="M18.3126 6.78126H3.68757C3.59167 6.78127 3.49737 6.75677 3.41361 6.71008C3.32986 6.66338 3.25943 6.59606 3.20901 6.51449C3.1586 6.43292 3.12987 6.33981 3.12557 6.24402C3.12126 6.14822 3.14152 6.05292 3.18441 5.96715L3.99846 4.339C4.13781 4.05808 4.35305 3.82182 4.6198 3.65696C4.88654 3.49211 5.19413 3.40526 5.5077 3.40626H16.4924C16.806 3.40526 17.1136 3.49211 17.3803 3.65696C17.6471 3.82182 17.8623 4.05808 18.0017 4.339L18.8157 5.96715C18.8586 6.05292 18.8789 6.14822 18.8746 6.24402C18.8703 6.33981 18.8415 6.43292 18.7911 6.51449C18.7407 6.59606 18.6703 6.66338 18.5865 6.71008C18.5028 6.75677 18.4085 6.78127 18.3126 6.78126ZM4.5978 5.65626H17.4023L16.9953 4.84215C16.9489 4.74854 16.8772 4.66979 16.7883 4.61484C16.6994 4.5599 16.5969 4.53094 16.4924 4.53126H5.5077C5.40321 4.53094 5.30072 4.5599 5.21184 4.61484C5.12296 4.66979 5.05125 4.74854 5.00483 4.84215L4.5978 5.65626Z" fill="#00A6D1"/>
<path d="M11.6588 10.719C11.5476 10.7189 11.4389 10.6859 11.3464 10.6241C11.2539 10.5623 11.1818 10.4745 11.1392 10.3717C11.0967 10.2689 11.0855 10.1558 11.1072 10.0467C11.1289 9.93765 11.1825 9.83743 11.2611 9.75877L12.8522 8.1679C12.9042 8.11437 12.9662 8.07169 13.0348 8.04237C13.1034 8.01304 13.1771 7.99765 13.2517 7.99709C13.3263 7.99652 13.4002 8.0108 13.4693 8.03908C13.5383 8.06736 13.601 8.10909 13.6537 8.16184C13.7065 8.21458 13.7482 8.27729 13.7765 8.34631C13.8047 8.41533 13.819 8.48928 13.8184 8.56387C13.8179 8.63845 13.8025 8.71218 13.7731 8.78076C13.7438 8.84934 13.7011 8.9114 13.6476 8.96333L12.0565 10.5541C12.0043 10.6065 11.9424 10.6479 11.8741 10.6762C11.8059 10.7045 11.7327 10.719 11.6588 10.719Z" fill="#00A6D1"/>
<path d="M14.3751 11.8441C14.3012 11.8442 14.228 11.8296 14.1598 11.8014C14.0915 11.7731 14.0296 11.7316 13.9774 11.6793L12.057 9.75889C11.9537 9.65295 11.8963 9.51059 11.8972 9.36265C11.8982 9.2147 11.9574 9.07308 12.062 8.96846C12.1666 8.86385 12.3082 8.80466 12.4562 8.80372C12.6041 8.80278 12.7465 8.86017 12.8524 8.96345L14.7728 10.8839C14.8514 10.9626 14.905 11.0628 14.9267 11.1719C14.9484 11.281 14.9372 11.394 14.8946 11.4968C14.8521 11.5996 14.78 11.6874 14.6875 11.7492C14.595 11.811 14.4863 11.844 14.3751 11.8441Z" fill="#00A6D1"/>
<path d="M16.0625 11.8438C15.9133 11.8438 15.7702 11.7845 15.6648 11.679C15.5593 11.5735 15.5 11.4304 15.5 11.2812V6.21875C15.5 6.06957 15.5593 5.92649 15.6648 5.821C15.7702 5.71551 15.9133 5.65625 16.0625 5.65625C16.2117 5.65625 16.3548 5.71551 16.4602 5.821C16.5657 5.92649 16.625 6.06957 16.625 6.21875V11.2812C16.625 11.4304 16.5657 11.5735 16.4602 11.679C16.3548 11.7845 16.2117 11.8438 16.0625 11.8438Z" fill="#00A6D1"/>
<path d="M5.375 11.8438C5.22582 11.8438 5.08274 11.7845 4.97725 11.679C4.87176 11.5735 4.8125 11.4304 4.8125 11.2812V6.21875C4.8125 6.06957 4.87176 5.92649 4.97725 5.821C5.08274 5.71551 5.22582 5.65625 5.375 5.65625C5.52418 5.65625 5.66726 5.71551 5.77275 5.821C5.87824 5.92649 5.9375 6.06957 5.9375 6.21875V11.2812C5.9375 11.4304 5.87824 11.5735 5.77275 11.679C5.66726 11.7845 5.52418 11.8438 5.375 11.8438Z" fill="#00A6D1"/>
</svg>
