<svg width="18" height="18" viewBox="0 0 18 18" fill="none" xmlns="http://www.w3.org/2000/svg">
<path fill-rule="evenodd" clip-rule="evenodd" d="M0 9C0 4.03111 4.03111 0 9 0C13.9689 0 18 4.03111 18 9C18 13.9689 13.9689 18 9 18C4.03111 18 0 13.9689 0 9ZM9 1.38462C4.79581 1.38462 1.38462 4.79581 1.38462 9C1.38462 13.2042 4.79581 16.6154 9 16.6154C13.2042 16.6154 16.6154 13.2042 16.6154 9C16.6154 4.79581 13.2042 1.38462 9 1.38462Z" fill="#00A6D1"/>
<path fill-rule="evenodd" clip-rule="evenodd" d="M9 2.76923C9.38235 2.76923 9.69231 3.07919 9.69231 3.46154V9H13.1538C13.5362 9 13.8462 9.30996 13.8462 9.69231C13.8462 10.0747 13.5362 10.3846 13.1538 10.3846H9C8.61765 10.3846 8.30769 10.0747 8.30769 9.69231V3.46154C8.30769 3.07919 8.61765 2.76923 9 2.76923Z" fill="#00A6D1"/>
</svg>
