<svg width="30" height="30" viewBox="0 0 30 30" fill="none" xmlns="http://www.w3.org/2000/svg">
<g clip-path="url(#clip0_562_10936)">
<path d="M16.2925 18.9807V15.398C16.2925 14.7122 16.8485 14.1562 17.5343 14.1562C18.2201 14.1562 18.7761 14.7122 18.7761 15.398V16.4238" stroke="#ACB2BA" stroke-width="0.732422" stroke-miterlimit="10" stroke-linecap="round" stroke-linejoin="round"/>
<path d="M8.0127 17.7676H9.19774C9.42097 17.7676 9.62763 17.8852 9.7417 18.077L11.2984 20.6959" stroke="#ACB2BA" stroke-width="0.732422" stroke-miterlimit="10" stroke-linecap="round" stroke-linejoin="round"/>
<path d="M11.2507 16.9219L12.3888 18.8645" stroke="#ACB2BA" stroke-width="0.732422" stroke-miterlimit="10" stroke-linecap="round" stroke-linejoin="round"/>
<path d="M11.7977 17.8555L10.2952 18.7936" stroke="#ACB2BA" stroke-width="0.732422" stroke-miterlimit="10" stroke-linecap="round" stroke-linejoin="round"/>
<path d="M2.70703 22.3651C2.76594 21.3856 3.06172 19.2145 4.48697 17.5605C5.61396 16.2527 7.9011 16.1436 7.9011 16.1436V18.1666C7.9011 19.607 9.0688 20.7747 10.5092 20.7747H14.244C14.7977 20.7747 15.3165 20.5048 15.6343 20.0515L17.5781 17.2792C17.8959 16.8259 18.4148 16.556 18.9684 16.556H21.3556C21.6916 16.556 21.964 16.8284 21.964 17.1644V22.8841H6.30325" stroke="#ACB2BA" stroke-width="0.732422" stroke-miterlimit="10" stroke-linecap="round" stroke-linejoin="round"/>
<path d="M25.8479 5.0332H7.98804C7.55119 5.0332 7.19702 4.67904 7.19702 4.24219C7.19702 3.80534 7.55119 3.45117 7.98804 3.45117H25.8479C26.2848 3.45117 26.6389 3.80534 26.6389 4.24219C26.6389 4.67904 26.2848 5.0332 25.8479 5.0332Z" stroke="#ACB2BA" stroke-width="0.732422" stroke-miterlimit="10" stroke-linecap="round" stroke-linejoin="round"/>
<path d="M20.3582 8.41991V16.556H18.7761V5.0332H20.3582V6.54494" stroke="#ACB2BA" stroke-width="0.732422" stroke-miterlimit="10" stroke-linecap="round" stroke-linejoin="round"/>
<path d="M7.05359 16.1438L8.6806 5.14551" stroke="#ACB2BA" stroke-width="0.732422" stroke-miterlimit="10" stroke-linecap="round" stroke-linejoin="round"/>
<path d="M26.6328 19.5967V21.8027" stroke="#ACB2BA" stroke-width="0.732422" stroke-miterlimit="10" stroke-linecap="round" stroke-linejoin="round"/>
<path d="M27.8716 19.5138H21.9641V17.918H27.8716C28.0002 17.918 28.1046 18.0222 28.1046 18.1509V19.2809C28.1046 19.4095 28.0003 19.5138 27.8716 19.5138Z" stroke="#ACB2BA" stroke-width="0.732422" stroke-miterlimit="10" stroke-linecap="round" stroke-linejoin="round"/>
<path d="M21.9641 17.918V14.5781H27.5408V17.918" stroke="#ACB2BA" stroke-width="0.732422" stroke-miterlimit="10" stroke-linecap="round" stroke-linejoin="round"/>
<path d="M23.7615 14.6484V17.8122" stroke="#ACB2BA" stroke-width="0.732422" stroke-miterlimit="10" stroke-linecap="round" stroke-linejoin="round"/>
<path d="M25.7239 14.6484V17.8122" stroke="#ACB2BA" stroke-width="0.732422" stroke-miterlimit="10" stroke-linecap="round" stroke-linejoin="round"/>
<path d="M25.7239 26.5488C27.0345 26.5488 28.0969 25.4864 28.0969 24.1758C28.0969 22.8652 27.0345 21.8027 25.7239 21.8027C24.4133 21.8027 23.3508 22.8652 23.3508 24.1758C23.3508 25.4864 24.4133 26.5488 25.7239 26.5488Z" stroke="#ACB2BA" stroke-width="0.732422" stroke-miterlimit="10" stroke-linecap="round" stroke-linejoin="round"/>
<path d="M25.7239 24.9668C26.1607 24.9668 26.5149 24.6126 26.5149 24.1758C26.5149 23.7389 26.1607 23.3848 25.7239 23.3848C25.287 23.3848 24.9329 23.7389 24.9329 24.1758C24.9329 24.6126 25.287 24.9668 25.7239 24.9668Z" stroke="#ACB2BA" stroke-width="0.732422" stroke-miterlimit="10" stroke-linecap="round" stroke-linejoin="round"/>
<path d="M4.26855 26.5488C5.57915 26.5488 6.6416 25.4864 6.6416 24.1758C6.6416 22.8652 5.57915 21.8027 4.26855 21.8027C2.95796 21.8027 1.89551 22.8652 1.89551 24.1758C1.89551 25.4864 2.95796 26.5488 4.26855 26.5488Z" stroke="#ACB2BA" stroke-width="0.732422" stroke-miterlimit="10" stroke-linecap="round" stroke-linejoin="round"/>
<path d="M4.26855 24.9668C4.70542 24.9668 5.05957 24.6126 5.05957 24.1758C5.05957 23.7389 4.70542 23.3848 4.26855 23.3848C3.83169 23.3848 3.47754 23.7389 3.47754 24.1758C3.47754 24.6126 3.83169 24.9668 4.26855 24.9668Z" stroke="#ACB2BA" stroke-width="0.732422" stroke-miterlimit="10" stroke-linecap="round" stroke-linejoin="round"/>
<path d="M10.7051 24.4658H23.2617" stroke="#ACB2BA" stroke-width="0.732422" stroke-miterlimit="10" stroke-linecap="round" stroke-linejoin="round"/>
<path d="M6.75586 24.4658H8.85347" stroke="#ACB2BA" stroke-width="0.732422" stroke-miterlimit="10" stroke-linecap="round" stroke-linejoin="round"/>
<path d="M21.1963 22.8838H23.5957" stroke="#ACB2BA" stroke-width="0.732422" stroke-miterlimit="10" stroke-linecap="round" stroke-linejoin="round"/>
</g>
<defs>
<clipPath id="clip0_562_10936">
<rect width="27" height="27" fill="white" transform="translate(1.5 1.5)"/>
</clipPath>
</defs>
</svg>
