<svg width="30" height="30" viewBox="0 0 30 30" fill="none" xmlns="http://www.w3.org/2000/svg">
<g clip-path="url(#clip0_562_10857)">
<path d="M14.3661 8.20703C14.8958 8.96778 15.2064 9.89253 15.2064 10.8898C15.2064 12.4582 14.4383 13.8472 13.2577 14.7011" stroke="#ACB2BA" stroke-width="0.791016" stroke-miterlimit="10" stroke-linecap="round" stroke-linejoin="round"/>
<path d="M7.76274 14.7067C6.57764 13.8534 5.80603 12.4617 5.80603 10.8898C5.80603 8.29387 7.91045 6.18945 10.5064 6.18945C11.4355 6.18945 12.3016 6.45903 13.0309 6.92425" stroke="#ACB2BA" stroke-width="0.791016" stroke-miterlimit="10" stroke-linecap="round" stroke-linejoin="round"/>
<path d="M14.2167 17.1973C13.5102 18.1016 12.9328 19.0926 12.496 20.1415" stroke="#ACB2BA" stroke-width="0.791016" stroke-miterlimit="10" stroke-linecap="round" stroke-linejoin="round"/>
<path d="M9.53759 24.8895L9.44009 23.8489C9.21291 21.4239 8.29491 19.1155 6.79578 17.1973" stroke="#ACB2BA" stroke-width="0.791016" stroke-miterlimit="10" stroke-linecap="round" stroke-linejoin="round"/>
<path d="M8.63651 17.134H5.66736V14.7998H15.3452V17.134H10.4822" stroke="#ACB2BA" stroke-width="0.791016" stroke-miterlimit="10" stroke-linecap="round" stroke-linejoin="round"/>
<circle cx="7.57068" cy="9.56934" r="0.395508" fill="#ACB2BA"/>
<circle cx="7.31189" cy="11.3936" r="0.395508" fill="#ACB2BA"/>
<circle cx="8.57312" cy="10.6611" r="0.395508" fill="#ACB2BA"/>
<circle cx="12.5707" cy="13.127" r="0.395508" fill="#ACB2BA"/>
<circle cx="13.6366" cy="11.624" r="0.395508" fill="#ACB2BA"/>
<circle cx="12.1805" cy="11.6973" r="0.395508" fill="#ACB2BA"/>
<circle cx="11.4642" cy="8.21973" r="0.395508" fill="#ACB2BA"/>
<path d="M25.0785 5.59668V10.5956" stroke="#ACB2BA" stroke-width="0.791016" stroke-miterlimit="10" stroke-linecap="round" stroke-linejoin="round"/>
<path d="M27.0038 5.59668V10.5956" stroke="#ACB2BA" stroke-width="0.791016" stroke-miterlimit="10" stroke-linecap="round" stroke-linejoin="round"/>
<path d="M24.4959 14.0498V14.9983C24.4959 15.2484 24.4243 15.4931 24.2896 15.7037C24.1308 15.9518 23.893 16.1391 23.6146 16.2353L13.2878 19.8031C12.0246 20.2396 11.1044 21.3362 10.8939 22.6559C10.7438 23.5973 10.9164 24.5618 11.3837 25.3926L11.4418 25.4961" stroke="#ACB2BA" stroke-width="0.791016" stroke-miterlimit="10" stroke-linecap="round" stroke-linejoin="round"/>
<path d="M21.183 24.8202L26.0879 21.2934C26.7287 20.8326 27.1821 20.1564 27.365 19.3886L27.4503 19.0307C27.6343 18.2582 27.7273 17.4668 27.7273 16.6726V10.6162H24.496V12.2041" stroke="#ACB2BA" stroke-width="0.791016" stroke-miterlimit="10" stroke-linecap="round" stroke-linejoin="round"/>
<path d="M12.7091 27.1596C13.3791 27.7036 14.2136 28.0326 15.1015 28.0781C16.038 28.1261 16.9629 27.854 17.7243 27.3066L19.6841 25.8975" stroke="#ACB2BA" stroke-width="0.791016" stroke-miterlimit="10" stroke-linecap="round" stroke-linejoin="round"/>
<path d="M24.4926 1.89551V5.41632H27.4118V1.89551" stroke="#ACB2BA" stroke-width="0.791016" stroke-miterlimit="10" stroke-linecap="round" stroke-linejoin="round"/>
<path d="M13.1782 19.8643L17.6708 27.2817" stroke="#ACB2BA" stroke-width="0.791016" stroke-miterlimit="10" stroke-linecap="round" stroke-linejoin="round"/>
<path d="M23.2228 16.5654L26.0522 21.2369" stroke="#ACB2BA" stroke-width="0.791016" stroke-miterlimit="10" stroke-linecap="round" stroke-linejoin="round"/>
<path d="M18.4877 24.35L23.2485 20.9268" stroke="#ACB2BA" stroke-width="0.791016" stroke-miterlimit="10" stroke-linecap="round" stroke-linejoin="round"/>
<path d="M18.6359 22.0305L21.4368 20.0166" stroke="#ACB2BA" stroke-width="0.791016" stroke-miterlimit="10" stroke-linecap="round" stroke-linejoin="round"/>
<path d="M6.17543 28.104L5.57221 27.2254C5.05557 26.4729 4.36912 25.8539 3.5692 25.4195L2.27283 24.7157L2.82939 24.6698C4.68063 24.5166 6.49084 25.2718 7.69223 26.6975L8.04244 27.1133L7.99693 26.379C7.90138 24.8509 7.46569 23.3635 6.72192 22.0278L6.009 20.748L6.73194 21.3387C8.13963 22.4889 9.21562 23.9977 9.84754 25.708L10.5053 27.4873L10.955 26.4576C11.7342 24.6738 13.4044 23.4959 15.2714 23.3165C15.2714 23.3165 12.5494 25.6377 12.5494 28.1039" stroke="#ACB2BA" stroke-width="0.791016" stroke-miterlimit="10" stroke-linecap="round" stroke-linejoin="round"/>
</g>
<defs>
<clipPath id="clip0_562_10857">
<rect width="27.4543" height="26.209" fill="white" transform="translate(1.27283 1.89551)"/>
</clipPath>
</defs>
</svg>
