<svg width="30" height="30" viewBox="0 0 30 30" fill="none" xmlns="http://www.w3.org/2000/svg">
<g clip-path="url(#clip0_562_4577)">
<path d="M22.111 4.81446C22.8069 4.58232 23.2742 3.9339 23.2742 3.201C23.2742 2.26296 22.5112 1.5 21.5736 1.5H18.8784C17.9404 1.5 17.1774 2.26296 17.1774 3.201V8.79738L16.3064 9.16404V3.201C16.3064 2.26296 15.5435 1.5 14.6059 1.5H11.9107C10.9726 1.5 10.2097 2.26296 10.2097 3.201C10.2097 3.93438 10.6769 4.58238 11.3728 4.81446L15.4354 6.16884V9.53123L12.8225 10.6313V7.46921C12.8225 6.57911 12.0983 5.85486 11.2082 5.85486H8.34007C7.44996 5.85486 6.72571 6.57906 6.72571 7.46921C6.72571 8.26181 7.29313 8.93112 8.07481 9.06132L11.9515 9.70758V10.9979L10.7139 11.5192C9.87817 11.8706 9.33859 12.6837 9.33859 13.5899V13.971C9.33859 16.2677 8.66491 18.4918 7.39069 20.4022C6.95563 21.055 6.72571 21.8145 6.72571 22.5992C6.72571 23.4158 6.97309 24.2005 7.44121 24.869L9.05382 27.1727C9.6357 28.0036 10.5894 28.5 11.605 28.5C11.8728 28.5 12.1397 28.4656 12.3976 28.3976L18.3389 26.8343C19.5987 26.5029 20.4989 25.4224 20.6339 24.1487C20.8359 24.0755 21.0315 23.9867 21.2113 23.8669C21.9577 23.3687 22.4032 22.5361 22.4032 21.639V15C22.4032 13.9487 21.6538 13.0691 20.6613 12.8666V10.7149C20.6613 9.47592 19.6536 8.46774 18.4142 8.46774C18.2905 8.46774 18.169 8.4843 18.0484 8.50386V6.16836L22.111 4.81446ZM18.0484 3.201C18.0484 2.74332 18.4202 2.37096 18.878 2.37096H21.5732C22.0313 2.37096 22.4032 2.74332 22.4032 3.201C22.4032 3.55854 22.1755 3.8751 21.8353 3.98838L18.0484 5.25042V3.201ZM11.6485 3.9879C11.3084 3.8751 11.0806 3.55854 11.0806 3.201C11.0806 2.74332 11.4525 2.37096 11.9102 2.37096H14.6054C15.0635 2.37096 15.4355 2.74332 15.4355 3.201V5.25084L11.6485 3.9879ZM8.21777 8.20254C7.85807 8.14242 7.59677 7.83414 7.59677 7.46916C7.59677 7.05936 7.93037 6.72577 8.34017 6.72577H11.2083C11.6181 6.72577 11.9517 7.05936 11.9517 7.46916V8.82438L8.21777 8.20254ZM14.5645 14.9887C14.9294 15.2652 15.3789 15.4355 15.871 15.4355H19.7903V21.6394L14.5645 23.1326V14.9887ZM15.871 14.5645C15.1507 14.5645 14.5645 13.9784 14.5645 13.2581C14.5645 12.5378 15.1507 11.9516 15.871 11.9516C16.5913 11.9516 17.1774 12.5378 17.1774 13.2581C17.1774 13.9784 16.5913 14.5645 15.871 14.5645ZM13.6936 22.0026C12.6497 21.1534 11.2549 20.6613 9.77418 20.6613C9.21155 20.6613 8.655 20.7406 8.12022 20.8786C8.34012 20.5481 8.5374 20.2067 8.72334 19.86C9.06996 19.8169 9.42144 19.7903 9.77418 19.7903C11.1873 19.7903 12.5351 20.1335 13.6936 20.7776V22.0026ZM12.1759 27.5554C11.2858 27.7897 10.2972 27.4295 9.76764 26.6735L8.15507 24.3698C7.78968 23.8481 7.59677 23.2358 7.59677 22.5992C7.59677 22.3736 7.629 22.1528 7.67688 21.9359C8.32704 21.6755 9.04518 21.5323 9.77418 21.5323C11.3437 21.5323 12.793 22.1598 13.6936 23.2102V27.1556L12.1759 27.5554ZM18.1168 25.9916L14.5645 26.9266V25.7865L19.7028 24.4165C19.4933 25.172 18.9032 25.7848 18.1168 25.9916ZM21.5323 15V21.6389C21.5323 22.2443 21.2318 22.8065 20.7279 23.1422C20.5628 23.252 20.3825 23.3334 20.1914 23.3848L14.5645 24.8846V24.038L20.6613 22.2961V15.4355C20.6613 14.9551 20.2707 14.5645 19.7903 14.5645H17.6016C17.7941 14.3102 17.9382 14.0171 18.004 13.6936H20.2258C20.9461 13.6936 21.5323 14.2797 21.5323 15ZM19.7903 10.7149V12.8226H18.0044C17.8019 11.8301 16.9227 11.0807 15.871 11.0807C14.6704 11.0807 13.6936 12.0575 13.6936 13.2581V19.796C12.506 19.2229 11.1674 18.9194 9.77423 18.9194C9.57173 18.9194 9.36965 18.9285 9.16847 18.9416C9.84869 17.3808 10.2097 15.6968 10.2097 13.9714V13.5904C10.2097 13.0351 10.5402 12.5374 11.0519 12.3223L17.8808 9.44675C18.0502 9.37488 18.2296 9.33875 18.4142 9.33875C19.1728 9.3387 19.7903 9.9558 19.7903 10.7149Z" fill="#ACB2BA"/>
<path d="M15.4281 21.0963H18.8537V18.4834H15.4281V21.0963ZM16.2845 19.3544H17.9973V20.2253H16.2845V19.3544Z" fill="#ACB2BA"/>
<path d="M15.8563 13.6932C16.0928 13.6932 16.2845 13.4983 16.2845 13.2577C16.2845 13.0172 16.0928 12.8223 15.8563 12.8223C15.6198 12.8223 15.4281 13.0172 15.4281 13.2577C15.4281 13.4983 15.6198 13.6932 15.8563 13.6932Z" fill="#ACB2BA"/>
</g>
<defs>
<clipPath id="clip0_562_4577">
<rect width="26.5485" height="27" fill="white" transform="translate(1.72571 1.5)"/>
</clipPath>
</defs>
</svg>
