<svg width="30" height="30" viewBox="0 0 30 30" fill="none" xmlns="http://www.w3.org/2000/svg">
<g clip-path="url(#clip0_562_2514)">
<path d="M26.5294 3H3.47059C3.21068 3 3 3.21068 3 3.47059V24.6471C3 24.9069 3.21068 25.1176 3.47059 25.1176H4.88235V26.5294C4.88235 26.7893 5.09308 27 5.35294 27H7.23529C7.49515 27 7.70588 26.7893 7.70588 26.5294V25.1176H22.2941V26.5294C22.2941 26.7893 22.5048 27 22.7647 27H24.6471C24.9069 27 25.1176 26.7893 25.1176 26.5294V25.1176H26.5294C26.7893 25.1176 27 24.9069 27 24.6471V3.47059C27 3.21068 26.7893 3 26.5294 3ZM6.76471 26.0588H5.82353V25.1176H6.76471V26.0588ZM24.1765 26.0588H23.2353V25.1176H24.1765V26.0588ZM26.0588 24.1765C25.5874 24.1765 4.20828 24.1765 3.94118 24.1765V3.94118H26.0588V24.1765Z" fill="#ACB2BA"/>
<path d="M5.35291 23.2358H10.5294C10.7893 23.2358 11 23.025 11 22.7652V5.3534C11 5.09354 10.7893 4.88281 10.5294 4.88281H5.35291C5.09305 4.88281 4.88232 5.09354 4.88232 5.3534V22.7652C4.88232 23.025 5.09305 23.2358 5.35291 23.2358ZM5.8235 5.82399H10.0588V22.2946H5.8235V5.82399Z" fill="#ACB2BA"/>
<path d="M8.647 6.76465H7.23524C6.97538 6.76465 6.76465 6.97538 6.76465 7.23524C6.76465 7.4951 6.97538 7.70582 7.23524 7.70582H8.647C8.90686 7.70582 9.11759 7.4951 9.11759 7.23524C9.11759 6.97538 8.90686 6.76465 8.647 6.76465Z" fill="#ACB2BA"/>
<path d="M8.647 8.64746H7.23524C6.97538 8.64746 6.76465 8.85819 6.76465 9.11805C6.76465 9.37796 6.97538 9.58864 7.23524 9.58864H8.647C8.90686 9.58864 9.11759 9.37796 9.11759 9.11805C9.11759 8.85819 8.90686 8.64746 8.647 8.64746Z" fill="#ACB2BA"/>
<path d="M8.647 10.5293H7.23524C6.97538 10.5293 6.76465 10.74 6.76465 10.9999C6.76465 11.2598 6.97538 11.4705 7.23524 11.4705H8.647C8.90686 11.4705 9.11759 11.2598 9.11759 10.9999C9.11759 10.74 8.90686 10.5293 8.647 10.5293Z" fill="#ACB2BA"/>
<path d="M8.64712 12.4121H7.70594C7.44608 12.4121 7.23535 12.6228 7.23535 12.8827C7.23535 13.1426 7.44608 13.3533 7.70594 13.3533H8.17653V15.7062H7.70594C7.44608 15.7062 7.23535 15.917 7.23535 16.1768C7.23535 16.4367 7.44608 16.6474 7.70594 16.6474H8.64712C8.90698 16.6474 9.1177 16.4367 9.1177 16.1768V12.8827C9.1177 12.6228 8.90698 12.4121 8.64712 12.4121Z" fill="#ACB2BA"/>
<path d="M12.4118 23.2358H17.5882C17.8481 23.2358 18.0588 23.025 18.0588 22.7652V5.3534C18.0588 5.09354 17.8481 4.88281 17.5882 4.88281H12.4118C12.1518 4.88281 11.9412 5.09354 11.9412 5.3534V22.7652C11.9412 23.025 12.1518 23.2358 12.4118 23.2358ZM12.8823 5.82399H17.1176V22.2946H12.8823V5.82399Z" fill="#ACB2BA"/>
<path d="M15.7058 6.76465H14.2941C14.0342 6.76465 13.8235 6.97538 13.8235 7.23524C13.8235 7.4951 14.0342 7.70582 14.2941 7.70582H15.7058C15.9657 7.70582 16.1764 7.4951 16.1764 7.23524C16.1764 6.97538 15.9657 6.76465 15.7058 6.76465Z" fill="#ACB2BA"/>
<path d="M15.7058 8.64746H14.2941C14.0342 8.64746 13.8235 8.85819 13.8235 9.11805C13.8235 9.37796 14.0342 9.58864 14.2941 9.58864H15.7058C15.9657 9.58864 16.1764 9.37796 16.1764 9.11805C16.1764 8.85819 15.9657 8.64746 15.7058 8.64746Z" fill="#ACB2BA"/>
<path d="M15.7058 10.5293H14.2941C14.0342 10.5293 13.8235 10.74 13.8235 10.9999C13.8235 11.2598 14.0342 11.4705 14.2941 11.4705H15.7058C15.9657 11.4705 16.1764 11.2598 16.1764 10.9999C16.1764 10.74 15.9657 10.5293 15.7058 10.5293Z" fill="#ACB2BA"/>
<path d="M15.7058 12.4121H14.7647C14.5047 12.4121 14.2941 12.6228 14.2941 12.8827C14.2941 13.1426 14.5047 13.3533 14.7647 13.3533H15.2352V15.7062H14.7647C14.5047 15.7062 14.2941 15.917 14.2941 16.1768C14.2941 16.4367 14.5047 16.6474 14.7647 16.6474H15.7058C15.9657 16.6474 16.1764 16.4367 16.1764 16.1768V12.8827C16.1764 12.6228 15.9657 12.4121 15.7058 12.4121Z" fill="#ACB2BA"/>
<path d="M19.4706 23.2358H24.6471C24.9069 23.2358 25.1176 23.025 25.1176 22.7652V5.3534C25.1176 5.09354 24.9069 4.88281 24.6471 4.88281H19.4706C19.2107 4.88281 19 5.09354 19 5.3534V22.7652C19 23.025 19.2107 23.2358 19.4706 23.2358ZM19.9412 5.82399H24.1765V22.2946H19.9412V5.82399Z" fill="#ACB2BA"/>
<path d="M22.7647 6.76465H21.3529C21.0931 6.76465 20.8823 6.97538 20.8823 7.23524C20.8823 7.4951 21.0931 7.70582 21.3529 7.70582H22.7647C23.0245 7.70582 23.2353 7.4951 23.2353 7.23524C23.2353 6.97538 23.0245 6.76465 22.7647 6.76465Z" fill="#ACB2BA"/>
<path d="M22.7647 8.64746H21.3529C21.0931 8.64746 20.8823 8.85819 20.8823 9.11805C20.8823 9.37796 21.0931 9.58864 21.3529 9.58864H22.7647C23.0245 9.58864 23.2353 9.37796 23.2353 9.11805C23.2353 8.85819 23.0245 8.64746 22.7647 8.64746Z" fill="#ACB2BA"/>
<path d="M22.7647 10.5293H21.3529C21.0931 10.5293 20.8823 10.74 20.8823 10.9999C20.8823 11.2598 21.0931 11.4705 21.3529 11.4705H22.7647C23.0245 11.4705 23.2353 11.2598 23.2353 10.9999C23.2353 10.74 23.0245 10.5293 22.7647 10.5293Z" fill="#ACB2BA"/>
<path d="M22.7647 12.4121H21.8235C21.5636 12.4121 21.3529 12.6228 21.3529 12.8827C21.3529 13.1426 21.5636 13.3533 21.8235 13.3533H22.2941V15.7062H21.8235C21.5636 15.7062 21.3529 15.917 21.3529 16.1768C21.3529 16.4367 21.5636 16.6474 21.8235 16.6474H22.7647C23.0245 16.6474 23.2353 16.4367 23.2353 16.1768V12.8827C23.2353 12.6228 23.0245 12.4121 22.7647 12.4121Z" fill="#ACB2BA"/>
</g>
<defs>
<clipPath id="clip0_562_2514">
<rect width="24" height="24" fill="white" transform="translate(3 3)"/>
</clipPath>
</defs>
</svg>
