<svg width="30" height="30" viewBox="0 0 30 30" fill="none" xmlns="http://www.w3.org/2000/svg">
<g clip-path="url(#clip0_562_7159)">
<path d="M26.3906 26.0287V16.2547C26.6517 16.0598 26.8638 15.8069 27.0103 15.5159C27.1567 15.2249 27.2334 14.9039 27.2344 14.5781V13.7344C27.2344 13.6225 27.1899 13.5152 27.1108 13.4361L25.5469 11.8722V3.60938C25.5462 3.05014 25.3238 2.514 24.9283 2.11856C24.5329 1.72312 23.9967 1.50067 23.4375 1.5L6.5625 1.5C6.00326 1.50067 5.46713 1.72312 5.07169 2.11856C4.67625 2.514 4.45379 3.05014 4.45312 3.60938V11.8722L2.88923 13.4361C2.81011 13.5152 2.76565 13.6225 2.76562 13.7344V14.5781C2.76657 14.9039 2.8433 15.2249 2.98974 15.5159C3.13619 15.8069 3.34832 16.0598 3.60938 16.2547V26.0287C3.24819 26.1219 2.92808 26.3322 2.69909 26.6267C2.47011 26.9212 2.34515 27.2832 2.34375 27.6562V28.0781C2.34375 28.19 2.3882 28.2973 2.46731 28.3764C2.54643 28.4556 2.65374 28.5 2.76562 28.5H27.2344C27.3463 28.5 27.4536 28.4556 27.5327 28.3764C27.6118 28.2973 27.6562 28.19 27.6562 28.0781V27.6562C27.6549 27.2832 27.5299 26.9212 27.3009 26.6267C27.0719 26.3322 26.7518 26.1219 26.3906 26.0287ZM26.3906 14.5781C26.3906 14.9138 26.2573 15.2357 26.0199 15.4731C25.7826 15.7104 25.4607 15.8438 25.125 15.8438C24.7893 15.8438 24.4674 15.7104 24.2301 15.4731C23.9927 15.2357 23.8594 14.9138 23.8594 14.5781V14.1562H26.3906V14.5781ZM9.09375 17.9531C8.31081 17.954 7.56019 18.2654 7.00656 18.8191C6.45294 19.3727 6.14152 20.1233 6.14062 20.9062V25.9688H4.45312V16.6453C4.84578 16.7258 5.25328 16.6918 5.6272 16.5475C6.00112 16.4032 6.32575 16.1545 6.5625 15.8311C6.75652 16.0966 7.01046 16.3126 7.30369 16.4615C7.59691 16.6104 7.92113 16.6881 8.25 16.6881C8.57887 16.6881 8.90309 16.6104 9.19631 16.4615C9.48954 16.3126 9.74348 16.0966 9.9375 15.8311C10.1315 16.0966 10.3855 16.3126 10.6787 16.4615C10.9719 16.6104 11.2961 16.6881 11.625 16.6881C11.9539 16.6881 12.2781 16.6104 12.5713 16.4615C12.8645 16.3126 13.1185 16.0966 13.3125 15.8311C13.5065 16.0966 13.7605 16.3126 14.0537 16.4615C14.3469 16.6104 14.6711 16.6881 15 16.6881C15.3289 16.6881 15.6531 16.6104 15.9463 16.4615C16.2395 16.3126 16.4935 16.0966 16.6875 15.8311C16.8815 16.0966 17.1355 16.3126 17.4287 16.4615C17.7219 16.6104 18.0461 16.6881 18.375 16.6881C18.7039 16.6881 19.0281 16.6104 19.3213 16.4615C19.6145 16.3126 19.8685 16.0966 20.0625 15.8311C20.2565 16.0966 20.5105 16.3126 20.8037 16.4615C21.0969 16.6104 21.4211 16.6881 21.75 16.6881C22.0789 16.6881 22.4031 16.6104 22.6963 16.4615C22.9895 16.3126 23.2435 16.0966 23.4375 15.8311C23.6743 16.1545 23.9989 16.4032 24.3728 16.5475C24.7467 16.6918 25.1542 16.7258 25.5469 16.6453V25.9688H12.0469V20.9062C12.046 20.1233 11.7346 19.3727 11.1809 18.8191C10.6273 18.2654 9.87669 17.954 9.09375 17.9531ZM10.7812 23.0156H11.2031V25.9688H6.98438V20.9062C6.98438 20.3468 7.20661 19.8103 7.6022 19.4147C7.99778 19.0191 8.53431 18.7969 9.09375 18.7969C9.65319 18.7969 10.1897 19.0191 10.5853 19.4147C10.9809 19.8103 11.2031 20.3468 11.2031 20.9062V22.1719H10.7812C10.6694 22.1719 10.5621 22.2163 10.4829 22.2954C10.4038 22.3746 10.3594 22.4819 10.3594 22.5938C10.3594 22.7056 10.4038 22.8129 10.4829 22.8921C10.5621 22.9712 10.6694 23.0156 10.7812 23.0156ZM6.98438 14.5781V14.1562H9.51562V14.5781C9.51562 14.9138 9.38228 15.2357 9.14493 15.4731C8.90758 15.7104 8.58566 15.8438 8.25 15.8438C7.91434 15.8438 7.59242 15.7104 7.35507 15.4731C7.11772 15.2357 6.98438 14.9138 6.98438 14.5781ZM10.3594 14.5781V14.1562H12.8906V14.5781C12.8906 14.9138 12.7573 15.2357 12.5199 15.4731C12.2826 15.7104 11.9607 15.8438 11.625 15.8438C11.2893 15.8438 10.9674 15.7104 10.7301 15.4731C10.4927 15.2357 10.3594 14.9138 10.3594 14.5781ZM13.7344 14.5781V14.1562H16.2656V14.5781C16.2656 14.9138 16.1323 15.2357 15.8949 15.4731C15.6576 15.7104 15.3357 15.8438 15 15.8438C14.6643 15.8438 14.3424 15.7104 14.1051 15.4731C13.8677 15.2357 13.7344 14.9138 13.7344 14.5781ZM17.1094 14.5781V14.1562H19.6406V14.5781C19.6406 14.9138 19.5073 15.2357 19.2699 15.4731C19.0326 15.7104 18.7107 15.8438 18.375 15.8438C18.0393 15.8438 17.7174 15.7104 17.4801 15.4731C17.2427 15.2357 17.1094 14.9138 17.1094 14.5781ZM20.4844 14.5781V14.1562H23.0156V14.5781C23.0156 14.9138 22.8823 15.2357 22.6449 15.4731C22.4076 15.7104 22.0857 15.8438 21.75 15.8438C21.4143 15.8438 21.0924 15.7104 20.8551 15.4731C20.6177 15.2357 20.4844 14.9138 20.4844 14.5781ZM5.29688 3.60938C5.29688 3.27371 5.43022 2.95179 5.66757 2.71444C5.90492 2.47709 6.22684 2.34375 6.5625 2.34375H23.4375C23.7732 2.34375 24.0951 2.47709 24.3324 2.71444C24.5698 2.95179 24.7031 3.27371 24.7031 3.60938V11.625H21.5391V8.61239C21.8828 8.30088 22.155 7.91867 22.3371 7.492C22.5191 7.06534 22.6067 6.60433 22.5938 6.14062C22.5938 4.51219 21.553 3.1875 20.2734 3.1875C18.9939 3.1875 17.9531 4.51219 17.9531 6.14062C17.9402 6.60433 18.0277 7.06534 18.2098 7.492C18.3918 7.91867 18.6641 8.30088 19.0078 8.61239V11.625H16.6875V3.60938C16.6875 3.54253 16.6716 3.47663 16.6412 3.41712C16.6108 3.35761 16.5666 3.30619 16.5124 3.26709C16.4582 3.22799 16.3954 3.20234 16.3293 3.19224C16.2633 3.18214 16.1957 3.18789 16.1323 3.20902C15.3112 3.48243 14.597 4.00733 14.0909 4.70933C13.5848 5.41132 13.3125 6.2548 13.3125 7.12022V9.09375C13.313 9.35473 13.3944 9.60913 13.5455 9.8219C13.6966 10.0347 13.91 10.1953 14.1562 10.2817V11.625H10.7812V8.17238C11.0272 8.08543 11.2402 7.92464 11.3912 7.71198C11.5423 7.49933 11.6239 7.2452 11.625 6.98438V3.60938C11.625 3.49749 11.5806 3.39018 11.5014 3.31106C11.4223 3.23195 11.315 3.1875 11.2031 3.1875C11.0912 3.1875 10.9839 3.23195 10.9048 3.31106C10.8257 3.39018 10.7812 3.49749 10.7812 3.60938V6.98438C10.7812 7.09626 10.7368 7.20357 10.6577 7.28269C10.5786 7.3618 10.4713 7.40625 10.3594 7.40625H9.9375V3.60938C9.9375 3.49749 9.89305 3.39018 9.81394 3.31106C9.73482 3.23195 9.62751 3.1875 9.51562 3.1875C9.40374 3.1875 9.29643 3.23195 9.21731 3.31106C9.1382 3.39018 9.09375 3.49749 9.09375 3.60938V7.40625H8.67188C8.55999 7.40625 8.45268 7.3618 8.37356 7.28269C8.29445 7.20357 8.25 7.09626 8.25 6.98438V3.60938C8.25 3.49749 8.20555 3.39018 8.12644 3.31106C8.04732 3.23195 7.94001 3.1875 7.82812 3.1875C7.71624 3.1875 7.60893 3.23195 7.52981 3.31106C7.4507 3.39018 7.40625 3.49749 7.40625 3.60938V6.98438C7.40733 7.2452 7.48897 7.49933 7.64001 7.71198C7.79104 7.92464 8.00409 8.08543 8.25 8.17238V11.625H5.29688V3.60938ZM20.2734 8.25C19.4719 8.25 18.7969 7.28391 18.7969 6.14062C18.7969 4.99734 19.4719 4.03125 20.2734 4.03125C21.075 4.03125 21.75 4.99734 21.75 6.14062C21.75 7.28391 21.075 8.25 20.2734 8.25ZM20.6953 9.04228V11.625H19.8516V9.04228C20.1286 9.11091 20.4182 9.11091 20.6953 9.04228ZM14.5781 9.51562C14.4662 9.51562 14.3589 9.47118 14.2798 9.39206C14.2007 9.31294 14.1562 9.20564 14.1562 9.09375V7.12148C14.1557 6.53618 14.3119 5.9614 14.6086 5.4569C14.9054 4.95241 15.3319 4.53661 15.8438 4.25273V9.51562H14.5781ZM15.8438 10.3594V11.625H15V10.3594H15.8438ZM9.9375 8.25V11.625H9.09375V8.25H9.9375ZM5.04966 12.4688H24.9503L25.7941 13.3125H4.20591L5.04966 12.4688ZM3.60938 14.1562H6.14062V14.5781C6.14062 14.9138 6.00728 15.2357 5.76993 15.4731C5.53258 15.7104 5.21066 15.8438 4.875 15.8438C4.53934 15.8438 4.21742 15.7104 3.98007 15.4731C3.74272 15.2357 3.60938 14.9138 3.60938 14.5781V14.1562ZM3.1875 27.6562C3.1875 27.4325 3.27639 27.2179 3.43463 27.0596C3.59286 26.9014 3.80747 26.8125 4.03125 26.8125H25.9688C26.1925 26.8125 26.4071 26.9014 26.5654 27.0596C26.7236 27.2179 26.8125 27.4325 26.8125 27.6562H3.1875Z" fill="#ACB2BA"/>
<path d="M14.1562 24.7031H23.4375C23.5494 24.7031 23.6567 24.6587 23.7358 24.5796C23.8149 24.5004 23.8594 24.3931 23.8594 24.2812V18.375C23.8594 18.2631 23.8149 18.1558 23.7358 18.0767C23.6567 17.9976 23.5494 17.9531 23.4375 17.9531H14.1562C14.0444 17.9531 13.9371 17.9976 13.8579 18.0767C13.7788 18.1558 13.7344 18.2631 13.7344 18.375V24.2812C13.7344 24.3931 13.7788 24.5004 13.8579 24.5796C13.9371 24.6587 14.0444 24.7031 14.1562 24.7031ZM19.2188 18.7969H23.0156V20.9062H19.2188V18.7969ZM19.2188 21.75H23.0156V23.8594H19.2188V21.75ZM14.5781 18.7969H18.375V20.9062H14.5781V18.7969ZM14.5781 21.75H18.375V23.8594H14.5781V21.75Z" fill="#ACB2BA"/>
</g>
<defs>
<clipPath id="clip0_562_7159">
<rect width="27" height="27" fill="white" transform="translate(1.5 1.5)"/>
</clipPath>
</defs>
</svg>
