<svg width="30" height="30" viewBox="0 0 30 30" fill="none" xmlns="http://www.w3.org/2000/svg">
<g clip-path="url(#clip0_562_11037)">
<path d="M27.2344 25.9688H26.8125V11.898C26.9546 11.7522 27.0776 11.589 27.1787 11.4124C27.2153 11.3487 27.2345 11.2766 27.2344 11.2031V9.51562C27.2344 9.47032 27.2271 9.42531 27.2129 9.38231L25.7177 4.89652C25.6337 4.64454 25.4725 4.42539 25.2571 4.2701C25.0416 4.11481 24.7827 4.03124 24.5171 4.03125H24.2812V1.92188C24.2812 1.80999 24.2368 1.70268 24.1577 1.62356C24.0786 1.54445 23.9713 1.5 23.8594 1.5H6.14062C6.02874 1.5 5.92143 1.54445 5.84231 1.62356C5.7632 1.70268 5.71875 1.80999 5.71875 1.92188V4.03125H5.48292C5.21767 4.03169 4.95926 4.11545 4.74419 4.27071C4.52913 4.42598 4.36828 4.64488 4.28437 4.89652L2.78714 9.38231C2.77286 9.42531 2.76559 9.47032 2.76562 9.51562V11.2031C2.76523 11.2771 2.78445 11.3499 2.82131 11.4141C2.92252 11.5901 3.04555 11.7527 3.1875 11.898V25.9688H2.76562C2.65374 25.9688 2.54643 26.0132 2.46731 26.0923C2.3882 26.1714 2.34375 26.2787 2.34375 26.3906V28.0781C2.34375 28.19 2.3882 28.2973 2.46731 28.3764C2.54643 28.4556 2.65374 28.5 2.76562 28.5H27.2344C27.3463 28.5 27.4536 28.4556 27.5327 28.3764C27.6118 28.2973 27.6562 28.19 27.6562 28.0781V26.3906C27.6562 26.2787 27.6118 26.1714 27.5327 26.0923C27.4536 26.0132 27.3463 25.9688 27.2344 25.9688ZM11.2031 17.5312H5.71875C5.60686 17.5312 5.49956 17.5757 5.42044 17.6548C5.34132 17.7339 5.29688 17.8412 5.29688 17.9531V25.9688H4.03125V12.4481C4.30069 12.5509 4.58661 12.6038 4.875 12.6042C5.18932 12.606 5.50078 12.5444 5.79074 12.4231C6.0807 12.3017 6.34319 12.1231 6.5625 11.898C6.78294 12.1216 7.04564 12.2993 7.33534 12.4205C7.62504 12.5417 7.93595 12.6042 8.25 12.6042C8.56405 12.6042 8.87496 12.5417 9.16466 12.4205C9.45436 12.2993 9.71706 12.1216 9.9375 11.898C10.1579 12.1216 10.4206 12.2993 10.7103 12.4205C11 12.5417 11.311 12.6042 11.625 12.6042C11.939 12.6042 12.25 12.5417 12.5397 12.4205C12.8294 12.2993 13.0921 12.1216 13.3125 11.898C13.5329 12.1216 13.7956 12.2993 14.0853 12.4205C14.375 12.5417 14.686 12.6042 15 12.6042C15.314 12.6042 15.625 12.5417 15.9147 12.4205C16.2044 12.2993 16.4671 12.1216 16.6875 11.898C16.9079 12.1216 17.1706 12.2993 17.4603 12.4205C17.75 12.5417 18.061 12.6042 18.375 12.6042C18.689 12.6042 19 12.5417 19.2897 12.4205C19.5794 12.2993 19.8421 12.1216 20.0625 11.898C20.2829 12.1216 20.5456 12.2993 20.8353 12.4205C21.125 12.5417 21.436 12.6042 21.75 12.6042C22.064 12.6042 22.375 12.5417 22.6647 12.4205C22.9544 12.2993 23.2171 12.1216 23.4375 11.898C23.6568 12.1231 23.9193 12.3017 24.2093 12.4231C24.4992 12.5444 24.8107 12.606 25.125 12.6042C25.4134 12.6038 25.6993 12.5509 25.9688 12.4481V25.9688H11.625V17.9531C11.625 17.8412 11.5806 17.7339 11.5014 17.6548C11.4223 17.5757 11.315 17.5312 11.2031 17.5312ZM10.7812 18.375V25.9688H6.14062V18.375H10.7812ZM9.51562 9.9375V11.0842C9.37649 11.2922 9.18822 11.4628 8.96746 11.5807C8.74671 11.6986 8.50029 11.7603 8.25 11.7603C7.99971 11.7603 7.75329 11.6986 7.53254 11.5807C7.31178 11.4628 7.12351 11.2922 6.98438 11.0842V9.9375H9.51562ZM7.09659 9.09375L8.10108 4.875H10.1746L9.57173 9.09375H7.09659ZM12.8906 9.9375V11.0842C12.7515 11.2922 12.5632 11.4628 12.3425 11.5807C12.1217 11.6986 11.8753 11.7603 11.625 11.7603C11.3747 11.7603 11.1283 11.6986 10.9075 11.5807C10.6868 11.4628 10.4985 11.2922 10.3594 11.0842V9.9375H12.8906ZM10.4239 9.09375L11.0264 4.875H13.1108L12.91 9.09375H10.4239ZM16.2656 9.9375V11.0842C16.1265 11.2922 15.9382 11.4628 15.7175 11.5807C15.4967 11.6986 15.2503 11.7603 15 11.7603C14.7497 11.7603 14.5033 11.6986 14.2825 11.5807C14.0618 11.4628 13.8735 11.2922 13.7344 11.0842V9.9375H16.2656ZM13.755 9.09375L13.9559 4.875H16.0441L16.245 9.09375H13.755ZM17.09 9.09375L16.8892 4.875H18.9736L19.5761 9.09375H17.09ZM19.6406 9.9375V11.0842C19.5015 11.2922 19.3132 11.4628 19.0925 11.5807C18.8717 11.6986 18.6253 11.7603 18.375 11.7603C18.1247 11.7603 17.8783 11.6986 17.6575 11.5807C17.4368 11.4628 17.2485 11.2922 17.1094 11.0842V9.9375H19.6406ZM20.4283 9.09375L19.8254 4.875H21.8989L22.9034 9.09375H20.4283ZM23.0156 9.9375V11.0842C22.8765 11.2922 22.6882 11.4628 22.4675 11.5807C22.2467 11.6986 22.0003 11.7603 21.75 11.7603C21.4997 11.7603 21.2533 11.6986 21.0325 11.5807C20.8118 11.4628 20.6235 11.2922 20.4844 11.0842V9.9375H23.0156ZM25.125 11.7604C24.8745 11.7624 24.6275 11.7016 24.4064 11.5837C24.1854 11.4658 23.9973 11.2945 23.8594 11.0854V9.9375H26.3906V11.0842C26.2528 11.2935 26.0648 11.4651 25.8438 11.5832C25.6227 11.7013 25.3756 11.7622 25.125 11.7604ZM24.5171 4.875C24.6056 4.87507 24.6918 4.90297 24.7636 4.95476C24.8354 5.00654 24.889 5.07959 24.917 5.16356L26.2274 9.09375H23.7708L22.7663 4.875H24.5171ZM6.5625 2.34375H23.4375V4.03125H6.5625V2.34375ZM5.08298 5.16356C5.11095 5.07959 5.16462 5.00654 5.2364 4.95476C5.30817 4.90297 5.39442 4.87507 5.48292 4.875H7.2337L6.22922 9.09375H3.77264L5.08298 5.16356ZM3.60938 9.9375H6.14062V11.0842C6.00149 11.2922 5.81322 11.4628 5.59246 11.5807C5.37171 11.6986 5.12528 11.7603 4.875 11.7603C4.62472 11.7603 4.37829 11.6986 4.15754 11.5807C3.93678 11.4628 3.74851 11.2922 3.60938 11.0842V9.9375ZM26.8125 27.6562H3.1875V26.8125H26.8125V27.6562Z" fill="#ACB2BA"/>
<path d="M9.51562 23.0156C9.62751 23.0156 9.73482 22.9712 9.81394 22.8921C9.89305 22.8129 9.9375 22.7056 9.9375 22.5938V21.75C9.9375 21.6381 9.89305 21.5308 9.81394 21.4517C9.73482 21.3726 9.62751 21.3281 9.51562 21.3281C9.40374 21.3281 9.29643 21.3726 9.21731 21.4517C9.1382 21.5308 9.09375 21.6381 9.09375 21.75V22.5938C9.09375 22.7056 9.1382 22.8129 9.21731 22.8921C9.29643 22.9712 9.40374 23.0156 9.51562 23.0156Z" fill="#ACB2BA"/>
<path d="M11.625 14.1562C11.625 14.0444 11.5806 13.9371 11.5014 13.8579C11.4223 13.7788 11.315 13.7344 11.2031 13.7344H5.71875C5.60686 13.7344 5.49956 13.7788 5.42044 13.8579C5.34132 13.9371 5.29688 14.0444 5.29688 14.1562V16.2656C5.29688 16.3775 5.34132 16.4848 5.42044 16.5639C5.49956 16.6431 5.60686 16.6875 5.71875 16.6875H11.2031C11.315 16.6875 11.4223 16.6431 11.5014 16.5639C11.5806 16.4848 11.625 16.3775 11.625 16.2656V14.1562ZM10.7812 15.8438H6.14062V14.5781H10.7812V15.8438Z" fill="#ACB2BA"/>
<path d="M13.3125 25.125H24.2812C24.3931 25.125 24.5004 25.0806 24.5796 25.0014C24.6587 24.9223 24.7031 24.815 24.7031 24.7031V13.7344C24.7031 13.6225 24.6587 13.5152 24.5796 13.4361C24.5004 13.3569 24.3931 13.3125 24.2812 13.3125H13.3125C13.2006 13.3125 13.0933 13.3569 13.0142 13.4361C12.9351 13.5152 12.8906 13.6225 12.8906 13.7344V24.7031C12.8906 24.815 12.9351 24.9223 13.0142 25.0014C13.0933 25.0806 13.2006 25.125 13.3125 25.125ZM13.7344 14.1562H23.8594V24.2812H13.7344V14.1562Z" fill="#ACB2BA"/>
<path d="M22.1719 16.2656H20.9062V15.8438C20.9062 15.7319 20.8618 15.6246 20.7827 15.5454C20.7036 15.4663 20.5963 15.4219 20.4844 15.4219H17.1094C16.9975 15.4219 16.8902 15.4663 16.8111 15.5454C16.7319 15.6246 16.6875 15.7319 16.6875 15.8438V16.2656H15.4219C15.31 16.2656 15.2027 16.3101 15.1236 16.3892C15.0444 16.4683 15 16.5756 15 16.6875V17.9531C15 18.4007 15.1778 18.8299 15.4943 19.1464C15.8107 19.4628 16.2399 19.6406 16.6875 19.6406H17.1203C17.2852 19.8586 17.4908 20.0424 17.7257 20.1819C17.692 20.8685 17.5321 21.5431 17.2541 22.1719H17.1094C16.9975 22.1719 16.8902 22.2163 16.8111 22.2954C16.7319 22.3746 16.6875 22.4819 16.6875 22.5938C16.6875 22.7056 16.7319 22.8129 16.8111 22.8921C16.8902 22.9712 16.9975 23.0156 17.1094 23.0156H20.4844C20.5963 23.0156 20.7036 22.9712 20.7827 22.8921C20.8618 22.8129 20.9062 22.7056 20.9062 22.5938C20.9062 22.4819 20.8618 22.3746 20.7827 22.2954C20.7036 22.2163 20.5963 22.1719 20.4844 22.1719H20.3397C20.0616 21.5431 19.9017 20.8685 19.868 20.1819C20.103 20.0424 20.3086 19.8586 20.4734 19.6406H20.9062C21.3538 19.6406 21.783 19.4628 22.0995 19.1464C22.416 18.8299 22.5938 18.4007 22.5938 17.9531V16.6875C22.5938 16.5756 22.5493 16.4683 22.4702 16.3892C22.3911 16.3101 22.2838 16.2656 22.1719 16.2656ZM16.6875 18.7969C16.4637 18.7969 16.2491 18.708 16.0909 18.5497C15.9326 18.3915 15.8438 18.1769 15.8438 17.9531V17.1094H16.6875V18.375C16.6874 18.5167 16.7015 18.658 16.7297 18.7969H16.6875ZM18.1691 22.1719C18.3738 21.6211 18.5027 21.045 18.5522 20.4595C18.6332 20.4727 18.7149 20.481 18.7969 20.4844C18.8817 20.4812 18.9662 20.4727 19.05 20.4591C19.096 21.0442 19.2212 21.6204 19.4221 22.1719H18.1691ZM20.0625 18.375C20.0625 18.7107 19.9292 19.0326 19.6918 19.2699C19.4545 19.5073 19.1325 19.6406 18.7969 19.6406C18.4612 19.6406 18.1393 19.5073 17.9019 19.2699C17.6646 19.0326 17.5312 18.7107 17.5312 18.375V16.2656H20.0625V18.375ZM21.75 17.9531C21.75 18.1769 21.6611 18.3915 21.5029 18.5497C21.3446 18.708 21.13 18.7969 20.9062 18.7969H20.8641C20.8923 18.658 20.9064 18.5167 20.9062 18.375V17.1094H21.75V17.9531Z" fill="#ACB2BA"/>
</g>
<defs>
<clipPath id="clip0_562_11037">
<rect width="27" height="27" fill="white" transform="translate(1.5 1.5)"/>
</clipPath>
</defs>
</svg>
