<svg width="30" height="30" viewBox="0 0 30 30" fill="none" xmlns="http://www.w3.org/2000/svg">
<path d="M17.5918 20.25C17.5918 20.0084 17.7877 19.8125 18.0293 19.8125C18.2709 19.8125 18.4668 20.0084 18.4668 20.25C18.4668 20.4916 18.2709 20.6875 18.0293 20.6875C17.7877 20.6875 17.5918 20.4916 17.5918 20.25ZM18.0293 22.4375C18.2709 22.4375 18.4668 22.2416 18.4668 22C18.4668 21.7584 18.2709 21.5625 18.0293 21.5625C17.7877 21.5625 17.5918 21.7584 17.5918 22C17.5918 22.2416 17.7877 22.4375 18.0293 22.4375ZM6.74935 13.065C6.71911 13.1956 6.74957 13.3308 6.83308 13.4359L9.31338 16.5593L13.2168 14.7224V13.5567C12.4119 12.8352 11.9043 11.7885 11.9043 10.625V7.82533L11.5627 7.39827C11.508 7.32991 11.4767 7.24837 11.469 7.16459L11.4686 7.16465C11.4599 7.06922 11.2724 4.80986 12.6884 3.2593C13.5273 2.34077 14.7354 1.875 16.2793 1.875C17.8232 1.875 19.0313 2.34077 19.8702 3.25925C21.2862 4.80986 21.0987 7.06916 21.0901 7.16459L21.0896 7.16454C21.082 7.24832 21.0507 7.32986 20.9959 7.39822L20.6543 7.82533V10.625C20.6543 11.7884 20.1467 12.8352 19.3418 13.5567V14.7224L24.5184 17.1584C25.8918 17.8048 26.7793 19.2032 26.7793 20.7211V27.6875C26.7793 27.9291 26.5834 28.125 26.3418 28.125H6.21681C5.9752 28.125 5.77931 27.9291 5.77931 27.6875V20.7211C5.77931 19.6196 6.23135 18.5871 7.02875 17.844L3.50567 13.4075C3.25526 13.0922 3.16399 12.686 3.25537 12.2928C3.39335 11.6991 3.7008 10.5542 4.2095 9.55734C4.88495 8.23363 5.7075 7.5625 6.65431 7.5625C8.17172 7.5625 9.08429 8.46041 9.43232 9.30069C9.75574 10.0814 9.64795 10.875 9.15117 11.3719C8.68578 11.8372 7.95778 12.3073 6.98724 12.7691C6.86633 12.8267 6.7796 12.9345 6.74935 13.065ZM12.2549 27.25H14.4982L13.6147 26.1374L12.2549 27.25ZM15.6156 27.25H16.6857L14.9407 25.0525L14.292 25.5833L15.6156 27.25ZM15.0095 23.3374L13.8069 21.6538C13.6667 21.4574 13.3929 21.4119 13.1966 21.5521L10.9772 23.1374L10.5787 24.7311C10.555 24.826 10.5001 24.9103 10.4229 24.9704L7.4919 27.25H10.8732L14.9305 23.9304C15.1083 23.7848 15.143 23.5244 15.0095 23.3374ZM8.3167 25.5H6.65431V26.793L8.3167 25.5ZM11.9909 21.338L7.19571 15.2996L6.55893 15.8454L11.308 21.8257L11.9909 21.338ZM6.65431 20.7211V24.625H9.44173L9.76652 24.3724L10.1674 22.7689C10.1926 22.668 10.2529 22.5794 10.3375 22.519L10.5951 22.335L7.57541 18.5324C6.98714 19.1064 6.65431 19.8882 6.65431 20.7211ZM25.9043 25.5H22.4043V27.25H25.9043V25.5ZM17.7932 17.4553L19.6295 18.3735L20.9229 16.4334L19.0592 15.5564L17.7932 17.4553ZM13.729 8.70547C14.1821 8.40939 15.0339 8 16.2793 8C17.5247 8 18.3765 8.40939 18.8297 8.70547L20.1204 7.09202C19.6699 6.49642 18.7719 6.18416 18.0585 6.02414C17.1308 5.816 16.2874 5.8125 16.279 5.8125C16.2712 5.8125 15.4278 5.816 14.5001 6.02414C13.7867 6.18416 12.8887 6.49642 12.4382 7.09202L13.729 8.70547ZM12.4031 5.94462C13.8433 4.95194 16.157 4.9375 16.2793 4.9375C16.4016 4.9375 18.7154 4.95194 20.1556 5.94462C20.0515 5.29215 19.8022 4.48004 19.2201 3.84501C18.554 3.11837 17.5646 2.75 16.2793 2.75C14.994 2.75 14.0046 3.11837 13.3385 3.84495C12.7564 4.47998 12.5071 5.29204 12.4031 5.94462ZM15.8418 13.6875H16.7168C18.4054 13.6875 19.7793 12.3137 19.7793 10.625V8.91908L19.2459 9.58577C19.1682 9.68295 19.0527 9.74245 18.9285 9.74929C18.8041 9.75667 18.6829 9.7098 18.5949 9.62187C18.5949 9.62187 18.3982 9.43358 18.0161 9.24846C17.5047 9.00067 16.9204 8.875 16.2793 8.875C15.6382 8.875 15.0539 9.00067 14.5425 9.24846C14.1599 9.43385 13.9632 9.62236 13.9613 9.62422C13.8792 9.70636 13.769 9.75115 13.6537 9.75115C13.6455 9.75115 13.6372 9.75093 13.629 9.75049C13.5047 9.7436 13.3905 9.68295 13.3127 9.58572L12.7793 8.91908V10.625C12.7793 12.3137 14.1532 13.6875 15.8418 13.6875ZM14.0918 14.1508V14.8675L16.2793 18.1488L18.4668 14.8675V14.1508C17.9392 14.4137 17.3452 14.5625 16.7168 14.5625H15.8418C15.2134 14.5625 14.6194 14.4137 14.0918 14.1508ZM11.6357 16.4334L12.9291 18.3735L14.7654 17.4553L13.4994 15.5563L11.6357 16.4334ZM9.87239 17.2632L12.7042 20.8292C13.2919 20.4224 14.1021 20.5617 14.5189 21.1452L15.7215 22.8288C16.0881 23.3421 16.0309 24.0392 15.61 24.4884L17.803 27.25H21.5293V21.125C21.5293 20.8834 21.7252 20.6875 21.9668 20.6875C22.2084 20.6875 22.4043 20.8834 22.4043 21.125V24.625H25.9043V20.7211C25.9043 19.5405 25.214 18.4528 24.1458 17.9501L21.7233 16.8101L20.1433 19.1801C20.0597 19.3055 19.9213 19.375 19.779 19.375C19.713 19.375 19.6462 19.3601 19.5836 19.3287L17.3041 18.1889L16.7168 19.07V22C16.7168 22.2416 16.5209 22.4375 16.2793 22.4375C16.0377 22.4375 15.8418 22.2416 15.8418 22V19.07L15.2545 18.189L12.975 19.3288C12.9124 19.3601 12.8456 19.3751 12.7796 19.3751C12.6373 19.3751 12.4989 19.3056 12.4153 19.1803L10.8353 16.8102L9.87239 17.2632ZM5.89694 12.8675C5.98772 12.4757 6.24803 12.1519 6.61121 11.9791C7.47905 11.5661 8.14339 11.1422 8.53244 10.7531C8.77055 10.515 8.80648 10.0763 8.62393 9.63554C8.38402 9.05634 7.74062 8.4375 6.65431 8.4375C6.24781 8.4375 5.62892 8.70077 4.98885 9.95508C4.52253 10.869 4.23657 11.9361 4.10767 12.4909C4.07705 12.6225 4.1074 12.7582 4.19085 12.8634L6.01446 15.1597L6.65124 14.614L6.1479 13.9801C5.8976 13.6649 5.80616 13.2594 5.89694 12.8675Z" fill="#ACB2BA"/>
</svg>
