<svg width="22" height="22" viewBox="0 0 22 22" fill="none" xmlns="http://www.w3.org/2000/svg">
<mask id="path-1-outside-1_255_16039" maskUnits="userSpaceOnUse" x="0" y="3" width="22" height="16" fill="black">
<rect fill="white" y="3" width="22" height="16"/>
<path fill-rule="evenodd" clip-rule="evenodd" d="M14.3344 4C13.3386 4 12.4388 4.35838 11.8065 5.00182C11.1725 5.64695 10.8441 6.54127 10.9186 7.54501C11.0571 9.41104 12.5305 11 14.3344 11C16.139 11 17.6093 9.40991 17.7501 7.54573C17.903 5.5248 16.3729 4 14.3344 4ZM12.7792 5.87246C12.4196 6.23843 12.1985 6.77597 12.2489 7.45499C12.3505 8.82484 13.3961 9.72727 14.3344 9.72727C15.2721 9.72727 16.3164 8.82516 16.4199 7.45427C16.5171 6.17094 15.5991 5.27273 14.3344 5.27273C13.6786 5.27273 13.1406 5.50477 12.7792 5.87246Z"/>
<path fill-rule="evenodd" clip-rule="evenodd" d="M7.70521 16.5498C8.46112 13.6537 11.4431 12.2727 14.3344 12.2727C17.2199 12.2727 20.2086 13.6096 20.9646 16.5519C21.1297 17.193 20.7123 18 19.8286 18H8.84065C7.9593 18 7.53675 17.1948 7.70521 16.5498ZM9.03574 16.7273H19.6342C19.027 14.6572 16.8307 13.5455 14.3344 13.5455C11.8463 13.5455 9.64499 14.6904 9.03574 16.7273Z"/>
<path d="M6.45962 11.1551C4.99262 11.1551 3.70482 9.85455 3.58396 8.25568C3.52145 7.43636 3.78818 6.68068 4.32997 6.12386C4.86759 5.575 5.62193 5.27273 6.45545 5.27273C7.2848 5.27273 8.03914 5.57898 8.57677 6.13182C9.12272 6.69261 9.38945 7.4483 9.32694 8.25966C9.21441 9.85455 7.92245 11.1551 6.45962 11.1551ZM6.45962 6.54148C6.00118 6.54148 5.59275 6.70057 5.30936 6.99091C5.01762 7.2892 4.88009 7.69489 4.9176 8.1642C4.98845 9.09489 5.69278 9.88239 6.45962 9.88239C7.22646 9.88239 7.93495 9.09489 8.00163 8.1642C8.03498 7.70682 7.89328 7.29318 7.60571 6.99489C7.32231 6.70057 6.91389 6.54148 6.45962 6.54148Z"/>
<path fill-rule="evenodd" clip-rule="evenodd" d="M1.03242 15.41C1.65704 13.0185 4.1152 11.8969 6.45761 11.8969C7.40094 11.8969 8.33073 12.0325 9.19426 12.4101C9.52906 12.5565 9.67612 12.9342 9.52273 13.2537C9.36933 13.5732 8.97356 13.7136 8.63875 13.5672C7.99777 13.2869 7.27052 13.1696 6.45761 13.1696C4.57666 13.1696 2.94014 14.003 2.40878 15.4545H6.74935C7.11762 15.4545 7.41617 15.7395 7.41617 16.0909C7.41617 16.4424 7.11762 16.7273 6.74935 16.7273H2.06995C1.26064 16.7273 0.882271 15.9884 1.03219 15.4109L1.03242 15.41Z"/>
</mask>
<path fill-rule="evenodd" clip-rule="evenodd" d="M14.3344 4C13.3386 4 12.4388 4.35838 11.8065 5.00182C11.1725 5.64695 10.8441 6.54127 10.9186 7.54501C11.0571 9.41104 12.5305 11 14.3344 11C16.139 11 17.6093 9.40991 17.7501 7.54573C17.903 5.5248 16.3729 4 14.3344 4ZM12.7792 5.87246C12.4196 6.23843 12.1985 6.77597 12.2489 7.45499C12.3505 8.82484 13.3961 9.72727 14.3344 9.72727C15.2721 9.72727 16.3164 8.82516 16.4199 7.45427C16.5171 6.17094 15.5991 5.27273 14.3344 5.27273C13.6786 5.27273 13.1406 5.50477 12.7792 5.87246Z" fill="#00A6D1"/>
<path fill-rule="evenodd" clip-rule="evenodd" d="M7.70521 16.5498C8.46112 13.6537 11.4431 12.2727 14.3344 12.2727C17.2199 12.2727 20.2086 13.6096 20.9646 16.5519C21.1297 17.193 20.7123 18 19.8286 18H8.84065C7.9593 18 7.53675 17.1948 7.70521 16.5498ZM9.03574 16.7273H19.6342C19.027 14.6572 16.8307 13.5455 14.3344 13.5455C11.8463 13.5455 9.64499 14.6904 9.03574 16.7273Z" fill="#00A6D1"/>
<path d="M6.45962 11.1551C4.99262 11.1551 3.70482 9.85455 3.58396 8.25568C3.52145 7.43636 3.78818 6.68068 4.32997 6.12386C4.86759 5.575 5.62193 5.27273 6.45545 5.27273C7.2848 5.27273 8.03914 5.57898 8.57677 6.13182C9.12272 6.69261 9.38945 7.4483 9.32694 8.25966C9.21441 9.85455 7.92245 11.1551 6.45962 11.1551ZM6.45962 6.54148C6.00118 6.54148 5.59275 6.70057 5.30936 6.99091C5.01762 7.2892 4.88009 7.69489 4.9176 8.1642C4.98845 9.09489 5.69278 9.88239 6.45962 9.88239C7.22646 9.88239 7.93495 9.09489 8.00163 8.1642C8.03498 7.70682 7.89328 7.29318 7.60571 6.99489C7.32231 6.70057 6.91389 6.54148 6.45962 6.54148Z" fill="#00A6D1"/>
<path fill-rule="evenodd" clip-rule="evenodd" d="M1.03242 15.41C1.65704 13.0185 4.1152 11.8969 6.45761 11.8969C7.40094 11.8969 8.33073 12.0325 9.19426 12.4101C9.52906 12.5565 9.67612 12.9342 9.52273 13.2537C9.36933 13.5732 8.97356 13.7136 8.63875 13.5672C7.99777 13.2869 7.27052 13.1696 6.45761 13.1696C4.57666 13.1696 2.94014 14.003 2.40878 15.4545H6.74935C7.11762 15.4545 7.41617 15.7395 7.41617 16.0909C7.41617 16.4424 7.11762 16.7273 6.74935 16.7273H2.06995C1.26064 16.7273 0.882271 15.9884 1.03219 15.4109L1.03242 15.41Z" fill="#00A6D1"/>
<path d="M12.2489 7.45499L12.3487 7.44759L12.3487 7.44758L12.2489 7.45499ZM12.7792 5.87246L12.7079 5.80237L12.7792 5.87246ZM16.4199 7.45427L16.3202 7.44673L16.3202 7.44675L16.4199 7.45427ZM11.8065 5.00182L11.8778 5.07191L11.8065 5.00182ZM17.7501 7.54573L17.6504 7.53818L17.6504 7.5382L17.7501 7.54573ZM10.9186 7.54501L11.0183 7.53761V7.5376L10.9186 7.54501ZM20.9646 16.5519L20.8677 16.5768L20.8677 16.5769L20.9646 16.5519ZM19.6342 16.7273V16.8273H19.7677L19.7301 16.6991L19.6342 16.7273ZM9.03574 16.7273L8.93994 16.6986L8.90146 16.8273H9.03574V16.7273ZM3.58396 8.25568L3.68368 8.24814L3.68367 8.24807L3.58396 8.25568ZM4.32997 6.12386L4.25853 6.05389L4.25829 6.05413L4.32997 6.12386ZM8.57677 6.13182L8.50507 6.20154L8.50511 6.20157L8.57677 6.13182ZM9.32694 8.25966L9.22723 8.25198L9.22718 8.25262L9.32694 8.25966ZM5.30936 6.99091L5.38085 7.06083L5.38092 7.06076L5.30936 6.99091ZM4.9176 8.1642L5.01731 8.15661L5.01728 8.15624L4.9176 8.1642ZM8.00163 8.1642L7.9019 8.15693L7.90189 8.15706L8.00163 8.1642ZM7.60571 6.99489L7.53368 7.06425L7.53372 7.06429L7.60571 6.99489ZM1.03242 15.41L0.935667 15.3847L0.935646 15.3848L1.03242 15.41ZM9.19426 12.4101L9.1542 12.5017L9.19426 12.4101ZM9.52273 13.2537L9.61287 13.297L9.52273 13.2537ZM8.63875 13.5672L8.59869 13.6588L8.63875 13.5672ZM2.40878 15.4545L2.31488 15.4202L2.26569 15.5545H2.40878V15.4545ZM1.03219 15.4109L0.935417 15.3857L0.935402 15.3858L1.03219 15.4109ZM12.2489 7.45499L12.3487 7.44758C12.3002 6.79571 12.5122 6.28688 12.8506 5.94255L12.7792 5.87246L12.7079 5.80237C12.327 6.18998 12.0967 6.75624 12.1492 7.4624L12.2489 7.45499ZM14.3344 9.72727V9.62727C13.4562 9.62727 12.447 8.77339 12.3487 7.44759L12.2489 7.45499L12.1492 7.46239C12.2541 8.87629 13.3359 9.82727 14.3344 9.82727V9.72727ZM16.4199 7.45427L16.3202 7.44675C16.22 8.77379 15.2118 9.62727 14.3344 9.62727V9.72727V9.82727C15.3323 9.82727 16.4129 8.87652 16.5196 7.4618L16.4199 7.45427ZM14.3344 5.27273V5.37273C14.9429 5.37273 15.4617 5.58849 15.8163 5.95207C16.1703 6.31508 16.3668 6.83168 16.3202 7.44673L16.4199 7.45427L16.5196 7.46182C16.5702 6.79354 16.3563 6.21936 15.9595 5.81243C15.5632 5.40607 14.9906 5.17273 14.3344 5.17273V5.27273ZM12.7792 5.87246L12.8506 5.94255C13.1912 5.59589 13.7026 5.37273 14.3344 5.37273V5.27273V5.17273C13.6546 5.17273 13.0899 5.41365 12.7079 5.80237L12.7792 5.87246ZM14.3344 4V3.9C13.3146 3.9 12.3882 4.26721 11.7351 4.93172L11.8065 5.00182L11.8778 5.07191C12.4894 4.44955 13.3626 4.1 14.3344 4.1V4ZM17.7501 7.54573L17.8498 7.55327C18.0075 5.46942 16.4261 3.9 14.3344 3.9V4V4.1C16.3197 4.1 17.7985 5.58018 17.6504 7.53818L17.7501 7.54573ZM11.8065 5.00182L11.7351 4.93172C11.0798 5.59855 10.7423 6.52162 10.8189 7.55242L10.9186 7.54501L11.0183 7.5376C10.9458 6.56093 11.2651 5.69535 11.8778 5.07191L11.8065 5.00182ZM10.9186 7.54501L10.8189 7.55241C10.9605 9.46084 12.4688 11.1 14.3344 11.1V11V10.9C12.5921 10.9 11.1537 9.36124 11.0183 7.53761L10.9186 7.54501ZM14.3344 11V11.1C16.2008 11.1 17.7059 9.4596 17.8498 7.55326L17.7501 7.54573L17.6504 7.5382C17.5128 9.36022 16.0772 10.9 14.3344 10.9V11ZM14.3344 12.2727V12.1727C11.4204 12.1727 8.38075 13.5657 7.60845 16.5246L7.70521 16.5498L7.80197 16.5751C8.54148 13.7418 11.4657 12.3727 14.3344 12.3727V12.2727ZM20.9646 16.5519L21.0614 16.527C20.289 13.5209 17.2416 12.1727 14.3344 12.1727V12.2727V12.3727C17.1982 12.3727 20.1281 13.6982 20.8677 16.5768L20.9646 16.5519ZM19.8286 18V18.1C20.7896 18.1 21.2397 17.2192 21.0614 16.527L20.9646 16.5519L20.8677 16.5769C21.0197 17.1667 20.635 17.9 19.8286 17.9V18ZM8.84065 18V18.1H19.8286V18V17.9H8.84065V18ZM7.70521 16.5498L7.60846 16.5245C7.42643 17.2215 7.88246 18.1 8.84065 18.1V18V17.9C8.03614 17.9 7.64707 17.1682 7.80197 16.5751L7.70521 16.5498ZM19.6342 16.7273V16.6273H9.03574V16.7273V16.8273H19.6342V16.7273ZM14.3344 13.5455V13.6455C16.8083 13.6455 18.9488 14.7458 19.5382 16.7554L19.6342 16.7273L19.7301 16.6991C19.1052 14.5685 16.853 13.4455 14.3344 13.4455V13.5455ZM9.03574 16.7273L9.13155 16.7559C9.72301 14.7785 11.8696 13.6455 14.3344 13.6455V13.5455V13.4455C11.823 13.4455 9.56696 14.6023 8.93994 16.6986L9.03574 16.7273ZM6.45962 11.1551V11.0551C5.0524 11.0551 3.80119 9.80266 3.68368 8.24814L3.58396 8.25568L3.48425 8.26322C3.60846 9.90644 4.93283 11.2551 6.45962 11.2551V11.1551ZM3.58396 8.25568L3.68367 8.24807C3.62322 7.45582 3.88091 6.72877 4.40164 6.1936L4.32997 6.12386L4.25829 6.05413C3.69544 6.63259 3.41967 7.4169 3.48425 8.26329L3.58396 8.25568ZM4.32997 6.12386L4.4014 6.19384C4.91854 5.66589 5.64631 5.37273 6.45545 5.37273V5.27273V5.17273C5.59754 5.17273 4.81664 5.48411 4.25853 6.05389L4.32997 6.12386ZM6.45545 5.27273V5.37273C7.25996 5.37273 7.98773 5.66955 8.50507 6.20154L8.57677 6.13182L8.64846 6.0621C8.09055 5.48841 7.30965 5.17273 6.45545 5.17273V5.27273ZM8.57677 6.13182L8.50511 6.20157C9.03017 6.7409 9.28763 7.468 9.22723 8.25198L9.32694 8.25966L9.42664 8.26734C9.49127 7.42859 9.21528 6.64433 8.64842 6.06206L8.57677 6.13182ZM9.32694 8.25966L9.22718 8.25262C9.11783 9.80249 7.86289 11.0551 6.45962 11.0551V11.1551V11.2551C7.98201 11.2551 9.31099 9.9066 9.42669 8.2667L9.32694 8.25966ZM6.45962 6.54148V6.44148C5.9782 6.44148 5.54261 6.60878 5.23779 6.92106L5.30936 6.99091L5.38092 7.06076C5.6429 6.79236 6.02416 6.64148 6.45962 6.64148V6.54148ZM5.30936 6.99091L5.23786 6.92099C4.92354 7.24238 4.77839 7.67761 4.81792 8.17217L4.9176 8.1642L5.01728 8.15624C4.98179 7.71217 5.1117 7.33603 5.38085 7.06083L5.30936 6.99091ZM4.9176 8.1642L4.81789 8.1718C4.85501 8.65945 5.05789 9.1097 5.35315 9.43905C5.64802 9.76796 6.04119 9.98239 6.45962 9.98239V9.88239V9.78239C6.11121 9.78239 5.76879 9.60306 5.50207 9.30555C5.23575 9.00848 5.05104 8.59965 5.01731 8.15661L4.9176 8.1642ZM6.45962 9.88239V9.98239C6.87798 9.98239 7.27217 9.76803 7.56758 9.43912C7.86341 9.10975 8.06642 8.65933 8.10138 8.17135L8.00163 8.1642L7.90189 8.15706C7.87017 8.59976 7.68559 9.00843 7.41879 9.30548C7.15157 9.603 6.8081 9.78239 6.45962 9.78239V9.88239ZM8.00163 8.1642L8.10137 8.17147C8.13656 7.68869 7.98695 7.24626 7.6777 6.92548L7.60571 6.99489L7.53372 7.06429C7.79961 7.3401 7.93339 7.72495 7.9019 8.15693L8.00163 8.1642ZM7.60571 6.99489L7.67775 6.92552C7.37289 6.60892 6.93706 6.44148 6.45962 6.44148V6.54148V6.64148C6.89072 6.64148 7.27174 6.79222 7.53368 7.06425L7.60571 6.99489ZM6.45761 11.8969V11.7969C4.09264 11.7969 1.5767 12.9304 0.935667 15.3847L1.03242 15.41L1.12918 15.4353C1.73738 13.1066 4.13776 11.9969 6.45761 11.9969V11.8969ZM9.19426 12.4101L9.23432 12.3185C8.35458 11.9338 7.41021 11.7969 6.45761 11.7969V11.8969V11.9969C7.39168 11.9969 8.30688 12.1312 9.1542 12.5017L9.19426 12.4101ZM9.52273 13.2537L9.61287 13.297C9.79208 12.9237 9.6182 12.4863 9.23432 12.3185L9.19426 12.4101L9.1542 12.5017C9.43993 12.6267 9.56017 12.9447 9.43258 13.2104L9.52273 13.2537ZM8.63875 13.5672L8.59869 13.6588C8.98032 13.8257 9.435 13.6675 9.61287 13.297L9.52273 13.2537L9.43258 13.2104C9.30366 13.479 8.9668 13.6015 8.67882 13.4755L8.63875 13.5672ZM6.45761 13.1696V13.2696C7.26125 13.2696 7.97392 13.3856 8.59869 13.6588L8.63875 13.5672L8.67882 13.4755C8.02163 13.1882 7.27979 13.0696 6.45761 13.0696V13.1696ZM2.40878 15.4545L2.50269 15.4889C3.01404 14.092 4.59969 13.2696 6.45761 13.2696V13.1696V13.0696C4.55363 13.0696 2.86623 13.914 2.31488 15.4202L2.40878 15.4545ZM6.74935 15.4545V15.3545H2.40878V15.4545V15.5545H6.74935V15.4545ZM7.41617 16.0909H7.51617C7.51617 15.6799 7.16839 15.3545 6.74935 15.3545V15.4545V15.5545C7.06685 15.5545 7.31617 15.799 7.31617 16.0909H7.41617ZM6.74935 16.7273V16.8273C7.16839 16.8273 7.51617 16.5019 7.51617 16.0909H7.41617H7.31617C7.31617 16.3828 7.06685 16.6273 6.74935 16.6273V16.7273ZM2.06995 16.7273V16.8273H6.74935V16.7273V16.6273H2.06995V16.7273ZM1.03219 15.4109L0.935402 15.3858C0.772117 16.0147 1.18347 16.8273 2.06995 16.8273V16.7273V16.6273C1.33781 16.6273 0.992424 15.9621 1.12898 15.436L1.03219 15.4109ZM1.03242 15.41L0.935646 15.3848L0.935417 15.3857L1.03219 15.4109L1.12897 15.4361L1.1292 15.4352L1.03242 15.41Z" fill="#00A6D1" mask="url(#path-1-outside-1_255_16039)"/>
</svg>
