<svg width="382" height="412" viewBox="0 0 382 412" fill="none" xmlns="http://www.w3.org/2000/svg">
<rect width="332" height="60" transform="translate(25)" fill="#00A6D1"/>
<path d="M143.43 21.0234V38.7969H141.028V29.832H139.407V38.0156H137.082V21.4141H139.407V27.8203H141.028V21.0234H143.43ZM135.989 23.0938C135.989 28.1523 134.739 32.3125 129.407 35.3594L127.961 33.6016C130.286 32.2832 131.721 30.7891 132.571 29.0508L128.411 29.5L128.118 27.3906L133.254 27.1172C133.411 26.4727 133.508 25.7988 133.567 25.0859H129.036V23.0938H135.989ZM159.788 21.0234V38.8359H157.268V21.0234H159.788ZM154.632 22.5859V24.6172H148.479V32.4883C151.663 32.4785 153.616 32.4102 155.862 32L156.096 34.0508C153.636 34.5195 151.37 34.5977 147.522 34.5977H145.979V22.5859H154.632ZM176.654 21.0234V31.0039H174.173V21.0234H176.654ZM165.306 22.0391V28.0352C168.001 28.0156 170.286 27.8203 172.669 27.3125L172.962 29.3242C170.189 29.9102 167.532 30.125 164.349 30.125H162.806V22.0391H165.306ZM176.654 31.7266V38.582H164.779V31.7266H176.654ZM167.22 33.6797V36.6289H174.212V33.6797H167.22ZM198.295 21.0234V38.7969H195.912V21.0234H198.295ZM194.662 21.2773V37.9766H192.318V32.4688H190.229C189.564 34.1973 188.402 35.1836 186.908 35.1836C184.564 35.1836 183.041 32.7227 183.041 28.7188C183.041 24.7344 184.564 22.293 186.908 22.293C188.393 22.293 189.555 23.2598 190.229 24.9688H192.318V21.2773H194.662ZM186.908 24.6367C185.873 24.6367 185.287 26.0039 185.307 28.7188C185.287 31.4531 185.873 32.8008 186.908 32.7812C187.943 32.8008 188.568 31.4531 188.568 28.7188C188.568 26.0039 187.924 24.6367 186.908 24.6367ZM190.717 26.9609C190.795 27.5078 190.834 28.0938 190.834 28.7188C190.834 29.334 190.795 29.9199 190.717 30.457H192.318V26.9609H190.717ZM216.176 23.3672V25.3789H213.871V27.1953H216.176V29.2656H213.871V31.5117H211.371V21.0234H213.871V23.3672H216.176ZM213.871 32.2148V38.7969H211.371V34.2266H201.899V32.2148H213.871ZM204.77 22C207.524 21.9805 209.614 23.8164 209.614 26.3164C209.614 28.875 207.524 30.6719 204.77 30.6719C201.996 30.6719 199.887 28.875 199.887 26.3164C199.887 23.8164 201.996 21.9805 204.77 22ZM204.77 24.1289C203.364 24.1289 202.329 24.9297 202.348 26.3164C202.329 27.7422 203.364 28.5625 204.77 28.5625C206.137 28.5625 207.172 27.7422 207.192 26.3164C207.172 24.9297 206.137 24.1289 204.77 24.1289ZM234.966 21.0234V26.1211H237.368V28.1914H234.966V33.9727H232.466V21.0234H234.966ZM235.611 36.4922V38.4844H223.443V32.6055H225.923V36.4922H235.611ZM225.864 22.1758C228.579 22.1758 230.708 24.0508 230.708 26.6875C230.708 29.2852 228.579 31.1992 225.864 31.1992C223.13 31.1992 220.982 29.2852 220.982 26.6875C220.982 24.0508 223.13 22.1758 225.864 22.1758ZM225.864 24.3438C224.517 24.3242 223.423 25.2031 223.443 26.6875C223.423 28.1328 224.517 29.0312 225.864 29.0312C227.232 29.0312 228.267 28.1328 228.286 26.6875C228.267 25.2031 227.232 24.3242 225.864 24.3438ZM253.082 21.0234V38.7969H250.679V29.9102H249.019V37.9375H246.675V21.3164H249.019V27.8984H250.679V21.0234H253.082ZM240.972 22.9961V32.2734C242.398 32.2441 243.961 32.1172 245.679 31.7852L245.933 33.9336C243.55 34.3438 241.519 34.4609 239.683 34.4609H238.472V22.9961H240.972Z" fill="white"/>
<g filter="url(#filter0_d_575_43432)">
<rect width="332" height="316" transform="translate(25 60)" fill="white"/>
<path d="M149.58 79.9531V92.1074H148.541V85.7773H146.845V91.5059H145.834V80.2539H146.845V84.8887H148.541V79.9531H149.58ZM144.576 81.4297C144.562 84.5742 143.605 87.5684 139.9 89.5918L139.257 88.8262C141.158 87.7871 142.286 86.502 142.894 85.0391L139.421 85.4082L139.257 84.4648L143.195 84.2051C143.366 83.5967 143.462 82.9678 143.509 82.3184H139.859V81.4297H144.576ZM161.016 79.9531V92.1348H159.936V79.9531H161.016ZM157.571 81.1152V82.0176H152.868V88.1836C155.233 88.1836 156.792 88.1084 158.61 87.7871L158.72 88.6895C156.833 89.0312 155.233 89.0996 152.772 89.1133H151.788V81.1152H157.571ZM172.836 79.9531V86.8574H171.783V79.9531H172.836ZM164.66 80.6777V85.0117C166.67 85.0049 168.475 84.8682 170.403 84.4512L170.567 85.3535C168.516 85.7637 166.67 85.9141 164.565 85.9277H163.58V80.6777H164.66ZM172.836 87.418V91.9434H164.947V87.418H172.836ZM166 88.2793V91.0684H171.783V88.2793H166ZM188.286 79.9531V92.1074H187.247V79.9531H188.286ZM185.866 80.2129V91.4922H184.841V87.5H182.899C182.475 88.7168 181.669 89.4277 180.63 89.4277C179.044 89.4277 178.018 87.7871 178.018 85.2031C178.018 82.6191 179.044 80.9785 180.63 80.9785C181.669 80.9785 182.475 81.6895 182.899 82.9062H184.841V80.2129H185.866ZM180.63 81.9902C179.632 81.9902 179.016 83.2207 179.016 85.2031C179.016 87.1719 179.632 88.416 180.63 88.4023C181.614 88.416 182.257 87.1719 182.257 85.2031C182.257 83.2207 181.614 81.9902 180.63 81.9902ZM183.132 83.7949C183.214 84.2256 183.255 84.6973 183.255 85.2031C183.255 85.7021 183.214 86.1738 183.145 86.5977H184.841V83.7949H183.132ZM200.994 81.8398V82.7148H199.189V84.4238H200.994V85.3398H199.189V87.1855H198.123V79.9531H199.189V81.8398H200.994ZM199.189 87.7461V92.1074H198.123V88.6348H191.232V87.7461H199.189ZM193.105 80.6914C194.951 80.6777 196.291 81.8672 196.305 83.5488C196.291 85.2578 194.951 86.4336 193.105 86.4336C191.26 86.4336 189.906 85.2578 189.92 83.5488C189.906 81.8672 191.26 80.6777 193.105 80.6914ZM193.105 81.6074C191.875 81.6074 190.959 82.4004 190.973 83.5488C190.959 84.7109 191.875 85.5176 193.105 85.5039C194.35 85.5176 195.252 84.7109 195.252 83.5488C195.252 82.4004 194.35 81.6074 193.105 81.6074ZM205.486 80.8418C207.4 80.8418 208.753 82.0039 208.753 83.6992C208.753 85.3945 207.4 86.5566 205.486 86.5566C203.572 86.5566 202.191 85.3945 202.204 83.6992C202.191 82.0039 203.572 80.8418 205.486 80.8418ZM205.486 81.7852C204.187 81.7852 203.243 82.5645 203.257 83.6992C203.243 84.834 204.187 85.6133 205.486 85.6133C206.771 85.6133 207.7 84.834 207.7 83.6992C207.7 82.5645 206.771 81.7852 205.486 81.7852ZM211.474 79.9531V92.1348H210.408V79.9531H211.474ZM201.575 88.5391C203.818 88.5391 206.908 88.5254 209.601 88.1289L209.683 88.9219C206.908 89.4414 203.913 89.4551 201.726 89.4551L201.575 88.5391ZM226.637 79.9668V87.2676H225.556V85.627H222.33V84.7383H225.556V83.0977H222.453C221.653 85.0527 219.773 86.4678 217.176 87.2402L216.724 86.3926C219.664 85.5176 221.489 83.877 221.715 81.7715H217.34V80.8691H222.877C222.877 81.3477 222.822 81.8057 222.726 82.2363H225.556V79.9668H226.637ZM222.658 87.3906C225.119 87.3906 226.705 88.2656 226.705 89.7148C226.705 91.1777 225.119 92.0527 222.658 92.0527C220.17 92.0527 218.598 91.1777 218.598 89.7148C218.598 88.2656 220.17 87.3906 222.658 87.3906ZM222.658 88.252C220.826 88.2383 219.65 88.7988 219.65 89.7148C219.65 90.6309 220.826 91.1777 222.658 91.1777C224.463 91.1777 225.625 90.6309 225.639 89.7148C225.625 88.7988 224.463 88.2383 222.658 88.252ZM239.495 86.9258V87.8281H234.423V92.1074H233.37V87.8281H228.366V86.9258H239.495ZM233.903 80.4453C236.46 80.4453 238.183 81.4707 238.183 83.125C238.183 84.7383 236.46 85.7637 233.903 85.7637C231.347 85.7637 229.624 84.7383 229.624 83.125C229.624 81.4707 231.347 80.4453 233.903 80.4453ZM233.903 81.3203C232.003 81.3203 230.718 82.0312 230.732 83.125C230.718 84.2051 232.003 84.9023 233.903 84.9023C235.79 84.9023 237.089 84.2051 237.089 83.125C237.089 82.0312 235.79 81.3203 233.903 81.3203ZM242.196 90.084L241.129 93.8027H240.118L240.87 90.084H242.196ZM66.3122 100.953V113.107H65.2732V106.777H63.5779V112.506H62.5661V101.254H63.5779V105.889H65.2732V100.953H66.3122ZM61.3083 102.43C61.2946 105.574 60.3376 108.568 56.6325 110.592L55.99 109.826C57.8904 108.787 59.0183 107.502 59.6267 106.039L56.154 106.408L55.99 105.465L59.9275 105.205C60.0984 104.597 60.1941 103.968 60.2419 103.318H56.5915V102.43H61.3083ZM77.749 100.953V113.135H76.6689V100.953H77.749ZM74.3037 102.115V103.018H69.6006V109.184C71.9658 109.184 73.5244 109.108 75.3428 108.787L75.4521 109.689C73.5654 110.031 71.9658 110.1 69.5049 110.113H68.5205V102.115H74.3037ZM89.5686 100.953V107.857H88.5159V100.953H89.5686ZM81.3929 101.678V106.012C83.4026 106.005 85.2073 105.868 87.135 105.451L87.2991 106.354C85.2483 106.764 83.4026 106.914 81.2971 106.928H80.3128V101.678H81.3929ZM89.5686 108.418V112.943H81.68V108.418H89.5686ZM82.7327 109.279V112.068H88.5159V109.279H82.7327ZM101.388 100.953V113.135H100.308V100.953H101.388ZM94.9214 101.896C96.7261 101.91 98.025 103.551 98.025 106.135C98.025 108.719 96.7261 110.359 94.9214 110.359C93.1031 110.359 91.8179 108.719 91.8179 106.135C91.8179 103.551 93.1031 101.91 94.9214 101.896ZM94.9214 102.854C93.7046 102.867 92.857 104.152 92.857 106.135C92.857 108.117 93.7046 109.402 94.9214 109.402C96.1382 109.402 96.9859 108.117 96.9859 106.135C96.9859 104.152 96.1382 102.867 94.9214 102.854ZM117.535 107.064V107.953H106.42V107.064H111.424V105.191H112.477V107.064H117.535ZM112.49 101.719C112.49 103.332 114.678 104.686 116.824 104.986L116.387 105.848C114.541 105.526 112.716 104.549 111.957 103.141C111.192 104.556 109.359 105.526 107.5 105.848L107.09 104.986C109.236 104.686 111.41 103.332 111.41 101.719V101.145H112.49V101.719ZM116.127 109.143V113.107H115.047V110.004H107.651V109.143H116.127ZM124.31 103.059V103.934H118.212V103.059H120.742V101.322H121.808V103.059H124.31ZM121.261 104.754C122.792 104.754 123.886 105.902 123.9 107.516C123.886 109.143 122.792 110.305 121.261 110.305C119.744 110.305 118.65 109.143 118.65 107.516C118.65 105.902 119.744 104.754 121.261 104.754ZM121.261 105.656C120.304 105.67 119.607 106.449 119.607 107.516C119.607 108.596 120.304 109.375 121.261 109.361C122.232 109.375 122.943 108.596 122.943 107.516C122.943 106.449 122.232 105.67 121.261 105.656ZM128.589 100.953V113.107H127.564V106.969H125.951V112.506H124.939V101.254H125.951V106.08H127.564V100.953H128.589ZM143.697 100.953V113.107H142.672V100.953H143.697ZM141.236 101.281V112.492H140.211V108.281H137.955V107.393H140.211V105.232H138.16C137.565 107.29 136.232 109.108 133.936 110.482L133.279 109.703C135.925 108.138 137.251 105.943 137.463 103.4H133.826V102.512H138.529C138.529 103.134 138.475 103.749 138.365 104.344H140.211V101.281H141.236ZM155.148 100.967V109.881H154.081V100.967H155.148ZM155.531 111.945V112.848H147.3V109.061H148.366V111.945H155.531ZM149.419 102.867C149.406 104.713 150.677 106.381 152.482 107.037L151.921 107.898C150.513 107.358 149.419 106.265 148.886 104.863C148.346 106.354 147.239 107.55 145.823 108.117L145.236 107.283C147.081 106.572 148.325 104.781 148.325 102.867V101.65H149.419V102.867ZM169.832 101.459V102.238C169.832 103.031 169.832 103.961 169.599 105.137L168.533 105.027C168.759 103.913 168.765 103.086 168.765 102.334H161.492V101.459H169.832ZM171.24 105.807V106.682H160.179V105.807H164.76V103.701H165.812V105.807H171.24ZM169.873 107.816V110.701H162.586V112.096H170.187V112.971H161.506V109.936H168.806V108.691H161.492V107.816H169.873ZM183.114 110.633V111.549H171.985V110.633H183.114ZM182.048 102.184V103.072H180.12V107.324H182.021V108.199H172.997V107.324H174.898V103.072H172.97V102.184H182.048ZM175.964 107.324H179.067V103.072H175.964V107.324ZM187.92 103.264C187.92 104.85 189.11 106.271 190.901 106.859L190.395 107.707C188.994 107.249 187.934 106.278 187.414 105.055C186.888 106.449 185.767 107.536 184.311 108.062L183.764 107.201C185.582 106.586 186.854 105.014 186.868 103.264V102.744H184.092V101.855H190.655V102.744H187.92V103.264ZM193.307 100.953V104.057H195.139V104.959H193.307V108.295H192.241V100.953H193.307ZM189.411 108.623C191.912 108.623 193.416 109.443 193.416 110.838C193.416 112.26 191.912 113.08 189.411 113.08C186.909 113.08 185.377 112.26 185.377 110.838C185.377 109.443 186.909 108.623 189.411 108.623ZM189.411 109.484C187.578 109.484 186.444 109.99 186.457 110.838C186.444 111.713 187.578 112.219 189.411 112.219C191.256 112.219 192.377 111.713 192.377 110.838C192.377 109.99 191.256 109.484 189.411 109.484ZM205.441 106.654V107.529H201.681V110.674H206.754V111.576H195.625V110.674H200.629V107.529H197.047V101.951H205.318V102.826H198.127V106.654H205.441ZM220.18 100.953V104.193H222.012V105.109H220.18V108.281H219.113V100.953H220.18ZM220.18 108.979V112.943H212.51V108.979H220.18ZM213.563 109.84V112.068H219.113V109.84H213.563ZM217.951 102.252V103.141H210.705V102.252H213.795V100.857H214.862V102.252H217.951ZM214.328 103.742C216.078 103.742 217.24 104.604 217.254 105.902C217.24 107.229 216.078 108.076 214.328 108.076C212.565 108.076 211.389 107.229 211.403 105.902C211.389 104.604 212.565 103.742 214.328 103.742ZM214.328 104.576C213.18 104.576 212.414 105.109 212.428 105.902C212.414 106.736 213.18 107.242 214.328 107.256C215.463 107.242 216.229 106.736 216.242 105.902C216.229 105.109 215.463 104.576 214.328 104.576ZM225.519 102.43C225.505 104.986 225.15 107.857 223.373 110.209L222.525 109.717C224.049 107.81 224.5 105.561 224.589 103.318H222.771V102.43H225.519ZM228.212 102.43C228.206 103.421 228.185 104.562 228.035 105.738H229.648V101.281H230.673V112.492H229.648V106.627H227.898C227.618 108.145 227.084 109.683 226.093 111.016L225.259 110.51C226.941 108.363 227.221 105.588 227.269 103.318H225.902V102.43H228.212ZM232.957 100.953V113.107H231.917V100.953H232.957ZM247.969 100.953V113.107H246.93V100.953H247.969ZM245.549 101.213V112.492H244.523V108.5H242.582C242.158 109.717 241.352 110.428 240.313 110.428C238.727 110.428 237.701 108.787 237.701 106.203C237.701 103.619 238.727 101.979 240.313 101.979C241.352 101.979 242.158 102.689 242.582 103.906H244.523V101.213H245.549ZM240.313 102.99C239.314 102.99 238.699 104.221 238.699 106.203C238.699 108.172 239.314 109.416 240.313 109.402C241.297 109.416 241.939 108.172 241.939 106.203C241.939 104.221 241.297 102.99 240.313 102.99ZM242.814 104.795C242.897 105.226 242.938 105.697 242.938 106.203C242.938 106.702 242.897 107.174 242.828 107.598H244.523V104.795H242.814ZM260.677 102.84V103.715H258.872V105.424H260.677V106.34H258.872V108.186H257.806V100.953H258.872V102.84H260.677ZM258.872 108.746V113.107H257.806V109.635H250.915V108.746H258.872ZM252.788 101.691C254.634 101.678 255.974 102.867 255.988 104.549C255.974 106.258 254.634 107.434 252.788 107.434C250.943 107.434 249.589 106.258 249.603 104.549C249.589 102.867 250.943 101.678 252.788 101.691ZM252.788 102.607C251.558 102.607 250.642 103.4 250.656 104.549C250.642 105.711 251.558 106.518 252.788 106.504C254.033 106.518 254.935 105.711 254.935 104.549C254.935 103.4 254.033 102.607 252.788 102.607ZM267.26 103.059V103.934H261.163V103.059H263.692V101.322H264.758V103.059H267.26ZM264.212 104.754C265.743 104.754 266.837 105.902 266.85 107.516C266.837 109.143 265.743 110.305 264.212 110.305C262.694 110.305 261.6 109.143 261.6 107.516C261.6 105.902 262.694 104.754 264.212 104.754ZM264.212 105.656C263.254 105.67 262.557 106.449 262.557 107.516C262.557 108.596 263.254 109.375 264.212 109.361C265.182 109.375 265.893 108.596 265.893 107.516C265.893 106.449 265.182 105.67 264.212 105.656ZM271.54 100.953V113.107H270.514V106.969H268.901V112.506H267.889V101.254H268.901V106.08H270.514V100.953H271.54ZM276.264 101.896C278.055 101.91 279.326 103.551 279.34 106.135C279.326 108.719 278.055 110.359 276.264 110.359C274.459 110.359 273.201 108.719 273.201 106.135C273.201 103.551 274.459 101.91 276.264 101.896ZM276.264 102.854C275.06 102.867 274.213 104.152 274.213 106.135C274.213 108.117 275.06 109.402 276.264 109.402C277.48 109.402 278.301 108.117 278.301 106.135C278.301 104.152 277.48 102.867 276.264 102.854ZM284.385 104.016V104.932H282.416V107.639H284.385V108.541H282.416V113.107H281.349V100.953H282.416V104.016H284.385ZM297.565 100.953V104.07H299.397V104.986H297.565V108.021H296.498V100.953H297.565ZM290.948 108.555V109.854H296.498V108.555H297.565V112.943H289.881V108.555H290.948ZM290.948 112.082H296.498V110.701H290.948V112.082ZM295.336 102.211V103.1H288.09V102.211H291.18V100.844H292.247V102.211H295.336ZM291.713 103.66C293.463 103.66 294.625 104.494 294.639 105.793C294.625 107.092 293.463 107.926 291.713 107.926C289.95 107.926 288.774 107.092 288.788 105.793C288.774 104.494 289.95 103.66 291.713 103.66ZM291.713 104.494C290.565 104.48 289.799 105.014 289.813 105.793C289.799 106.586 290.565 107.105 291.713 107.105C292.848 107.105 293.614 106.586 293.627 105.793C293.614 105.014 292.848 104.48 291.713 104.494ZM309.904 100.953V113.107H308.838V100.953H309.904ZM301.728 102.156V109.047C303.581 109.04 305.502 108.89 307.539 108.459L307.689 109.375C305.529 109.826 303.601 109.977 301.66 109.977H300.676V102.156H301.728ZM321.108 100.953V105.766H323.146V106.668H321.108V113.135H320.042V100.953H321.108ZM317.909 102.143V103.031H313.302V109.184C315.503 109.184 317.062 109.081 318.866 108.746L319.003 109.676C317.103 110.018 315.503 110.086 313.192 110.086H312.235V102.143H317.909ZM324.807 112.082C324.328 112.082 323.918 111.686 323.932 111.193C323.918 110.715 324.328 110.318 324.807 110.318C325.285 110.318 325.682 110.715 325.682 111.193C325.682 111.686 325.285 112.082 324.807 112.082ZM106.642 142.953V155.107H105.603V148.777H103.908V154.506H102.896V143.254H103.908V147.889H105.603V142.953H106.642ZM101.638 144.43C101.624 147.574 100.667 150.568 96.9624 152.592L96.3198 151.826C98.2202 150.787 99.3481 149.502 99.9565 148.039L96.4839 148.408L96.3198 147.465L100.257 147.205C100.428 146.597 100.524 145.968 100.572 145.318H96.9214V144.43H101.638ZM118.079 142.953V155.135H116.999V142.953H118.079ZM114.634 144.115V145.018H109.93V151.184C112.296 151.184 113.854 151.108 115.673 150.787L115.782 151.689C113.895 152.031 112.296 152.1 109.835 152.113H108.85V144.115H114.634ZM129.898 142.953V149.857H128.846V142.953H129.898ZM121.723 143.678V148.012C123.732 148.005 125.537 147.868 127.465 147.451L127.629 148.354C125.578 148.764 123.732 148.914 121.627 148.928H120.643V143.678H121.723ZM129.898 150.418V154.943H122.01V150.418H129.898ZM123.063 151.279V154.068H128.846V151.279H123.063ZM141.718 142.953V155.135H140.638V142.953H141.718ZM135.251 143.896C137.056 143.91 138.355 145.551 138.355 148.135C138.355 150.719 137.056 152.359 135.251 152.359C133.433 152.359 132.148 150.719 132.148 148.135C132.148 145.551 133.433 143.91 135.251 143.896ZM135.251 144.854C134.034 144.867 133.187 146.152 133.187 148.135C133.187 150.117 134.034 151.402 135.251 151.402C136.468 151.402 137.316 150.117 137.316 148.135C137.316 146.152 136.468 144.867 135.251 144.854ZM157.865 149.064V149.953H146.75V149.064H151.754V147.191H152.807V149.064H157.865ZM152.82 143.719C152.82 145.332 155.008 146.686 157.154 146.986L156.717 147.848C154.871 147.526 153.046 146.549 152.287 145.141C151.521 146.556 149.689 147.526 147.83 147.848L147.42 146.986C149.566 146.686 151.74 145.332 151.74 143.719V143.145H152.82V143.719ZM156.457 151.143V155.107H155.377V152.004H147.98V151.143H156.457ZM164.64 145.059V145.934H158.542V145.059H161.071V143.322H162.138V145.059H164.64ZM161.591 146.754C163.122 146.754 164.216 147.902 164.23 149.516C164.216 151.143 163.122 152.305 161.591 152.305C160.073 152.305 158.98 151.143 158.98 149.516C158.98 147.902 160.073 146.754 161.591 146.754ZM161.591 147.656C160.634 147.67 159.937 148.449 159.937 149.516C159.937 150.596 160.634 151.375 161.591 151.361C162.562 151.375 163.273 150.596 163.273 149.516C163.273 148.449 162.562 147.67 161.591 147.656ZM168.919 142.953V155.107H167.894V148.969H166.28V154.506H165.269V143.254H166.28V148.08H167.894V142.953H168.919ZM184.027 142.953V155.107H183.002V142.953H184.027ZM181.566 143.281V154.492H180.541V150.281H178.285V149.393H180.541V147.232H178.49C177.895 149.29 176.562 151.108 174.265 152.482L173.609 151.703C176.255 150.138 177.581 147.943 177.793 145.4H174.156V144.512H178.859C178.859 145.134 178.804 145.749 178.695 146.344H180.541V143.281H181.566ZM189.763 146.221C189.749 148.436 191.267 150.678 193.058 151.484L192.401 152.332C191.021 151.655 189.824 150.227 189.243 148.49C188.676 150.329 187.479 151.86 186.058 152.578L185.374 151.676C187.179 150.842 188.683 148.531 188.696 146.221V144.006H189.763V146.221ZM195.464 142.953V155.135H194.384V142.953H195.464ZM207.092 146.645V147.506H198.766V143.404H199.832V146.645H207.092ZM208.377 149.16V150.035H197.248V149.16H208.377ZM207.16 153.918V154.807H198.698V151.279H199.764V153.918H207.16ZM221.981 143.459V144.238C221.981 145.031 221.981 145.961 221.749 147.137L220.682 147.027C220.908 145.913 220.915 145.086 220.915 144.334H213.641V143.459H221.981ZM223.389 147.807V148.682H212.329V147.807H216.909V145.701H217.962V147.807H223.389ZM222.022 149.816V152.701H214.735V154.096H222.337V154.971H213.655V151.936H220.956V150.691H213.641V149.816H222.022ZM235.264 152.633V153.549H224.135V152.633H235.264ZM234.197 144.184V145.072H232.27V149.324H234.17V150.199H225.147V149.324H227.047V145.072H225.119V144.184H234.197ZM228.113 149.324H231.217V145.072H228.113V149.324ZM240.07 145.264C240.07 146.85 241.259 148.271 243.05 148.859L242.544 149.707C241.143 149.249 240.083 148.278 239.564 147.055C239.038 148.449 237.916 149.536 236.46 150.062L235.913 149.201C237.732 148.586 239.003 147.014 239.017 145.264V144.744H236.242V143.855H242.804V144.744H240.07V145.264ZM245.456 142.953V146.057H247.288V146.959H245.456V150.295H244.39V142.953H245.456ZM241.56 150.623C244.062 150.623 245.566 151.443 245.566 152.838C245.566 154.26 244.062 155.08 241.56 155.08C239.058 155.08 237.527 154.26 237.527 152.838C237.527 151.443 239.058 150.623 241.56 150.623ZM241.56 151.484C239.728 151.484 238.593 151.99 238.607 152.838C238.593 153.713 239.728 154.219 241.56 154.219C243.406 154.219 244.527 153.713 244.527 152.838C244.527 151.99 243.406 151.484 241.56 151.484ZM255.068 144.922C255.068 146.576 256.326 148.094 258.09 148.695L257.502 149.543C256.155 149.051 255.096 148.046 254.562 146.781C254.043 148.21 252.963 149.338 251.541 149.885L250.967 149.023C252.785 148.34 254.002 146.713 254.016 144.84V143.582H255.068V144.922ZM260.51 142.953V146.125H262.342V147.027H260.51V150.35H259.443V142.953H260.51ZM256.613 150.664C259.115 150.664 260.619 151.471 260.619 152.865C260.619 154.287 259.115 155.08 256.613 155.08C254.111 155.08 252.58 154.287 252.58 152.865C252.58 151.471 254.111 150.664 256.613 150.664ZM256.613 151.525C254.781 151.525 253.646 152.031 253.66 152.865C253.646 153.727 254.781 154.219 256.613 154.232C258.459 154.219 259.58 153.727 259.58 152.865C259.58 152.031 258.459 151.525 256.613 151.525ZM273.902 148.832V149.721H268.884V151.156H272.548V154.943H264.181V151.156H267.831V149.721H262.827V148.832H273.902ZM272.849 143.35V144.238H270.976V146.795H272.808V147.684H263.907V146.795H265.74V144.238H263.866V143.35H272.849ZM265.247 152.004V154.068H271.495V152.004H265.247ZM266.806 146.795H269.909V144.238H266.806V146.795ZM280.184 143.172C282.891 143.172 284.477 143.91 284.477 145.264C284.477 146.645 282.891 147.383 280.184 147.396C277.477 147.383 275.877 146.645 275.877 145.264C275.877 143.91 277.477 143.172 280.184 143.172ZM280.184 143.979C278.161 143.979 276.985 144.471 276.999 145.264C276.985 146.111 278.161 146.576 280.184 146.576C282.194 146.576 283.383 146.111 283.383 145.264C283.383 144.471 282.194 143.979 280.184 143.979ZM285.721 148.217V149.092H274.647V148.217H285.721ZM284.299 150.145V152.865H277.081V154.123H284.668V154.971H276.014V152.072H283.247V150.965H275.987V150.145H284.299ZM91.189 166.264C91.189 167.85 92.3785 169.271 94.1695 169.859L93.6636 170.707C92.2623 170.249 91.2027 169.278 90.6832 168.055C90.1568 169.449 89.0357 170.536 87.5797 171.062L87.0328 170.201C88.8511 169.586 90.1226 168.014 90.1363 166.264V165.744H87.3609V164.855H93.9234V165.744H91.189V166.264ZM96.5757 163.953V167.057H98.4078V167.959H96.5757V171.295H95.5093V163.953H96.5757ZM92.6793 171.623C95.1812 171.623 96.6851 172.443 96.6851 173.838C96.6851 175.26 95.1812 176.08 92.6793 176.08C90.1773 176.08 88.6461 175.26 88.6461 173.838C88.6461 172.443 90.1773 171.623 92.6793 171.623ZM92.6793 172.484C90.8472 172.484 89.7125 172.99 89.7261 173.838C89.7125 174.713 90.8472 175.219 92.6793 175.219C94.525 175.219 95.6461 174.713 95.6461 173.838C95.6461 172.99 94.525 172.484 92.6793 172.484ZM108.3 163.953V168.738H110.337V169.668H108.3V176.107H107.233V163.953H108.3ZM100.466 164.992V168.205H104.02V164.992H105.087V173.195H99.3993V164.992H100.466ZM100.466 172.293H104.02V169.066H100.466V172.293ZM120.324 164.746V165.812C120.324 166.968 120.324 168.219 119.983 169.969H121.787V170.857H116.77V176.135H115.69V170.857H110.713V169.969H118.889C119.258 168.219 119.258 166.94 119.258 165.812V165.635H112.108V164.746H120.324ZM132.554 163.953V176.107H131.488V163.953H132.554ZM124.378 165.156V172.047C126.231 172.04 128.152 171.89 130.189 171.459L130.339 172.375C128.179 172.826 126.251 172.977 124.31 172.977H123.326V165.156H124.378ZM144.77 163.953V176.107H143.731V163.953H144.77ZM142.323 164.213V175.492H141.298V169.586H139.739C139.623 171.951 138.618 173.428 137.114 173.428C135.528 173.428 134.503 171.787 134.503 169.203C134.503 166.619 135.528 164.979 137.114 164.979C138.591 164.979 139.589 166.407 139.725 168.697H141.298V164.213H142.323ZM137.114 165.99C136.13 165.99 135.501 167.221 135.514 169.203C135.501 171.172 136.13 172.416 137.114 172.402C138.098 172.416 138.727 171.172 138.727 169.203C138.727 167.221 138.098 165.99 137.114 165.99ZM158.907 163.953V166.934H160.739V167.836H158.907V170.857H157.841V163.953H158.907ZM155.366 164.787V165.662H151.046V169.244C153.487 169.258 154.874 169.169 156.501 168.848L156.638 169.723C154.929 170.064 153.48 170.133 150.923 170.133H149.98V164.787H155.366ZM158.907 171.486V175.943H151.238V171.486H158.907ZM152.29 172.361V175.068H157.841V172.361H152.29ZM172.299 170.365V171.24H161.225V170.365H172.299ZM171.069 174.945V175.848H162.661V172.307H163.741V174.945H171.069ZM166.762 164.391C169.374 164.377 171.055 165.279 171.055 166.797C171.055 168.314 169.374 169.217 166.762 169.217C164.124 169.217 162.456 168.314 162.456 166.797C162.456 165.279 164.124 164.377 166.762 164.391ZM166.762 165.252C164.807 165.252 163.549 165.84 163.563 166.797C163.549 167.754 164.807 168.342 166.762 168.342C168.704 168.342 169.961 167.754 169.961 166.797C169.961 165.84 168.704 165.252 166.762 165.252ZM186.71 165.348V166.236H176.853V165.348H181.282V163.885H182.335V165.348H186.71ZM187.407 171.828V172.717H182.335V176.135H181.282V172.717H176.278V171.828H187.407ZM181.816 166.934C184.29 166.934 185.78 167.658 185.78 168.971C185.78 170.256 184.29 170.98 181.816 170.994C179.327 170.98 177.837 170.256 177.851 168.971C177.837 167.658 179.327 166.934 181.816 166.934ZM181.816 167.754C179.997 167.754 178.944 168.205 178.958 168.971C178.944 169.723 179.997 170.16 181.816 170.16C183.607 170.16 184.659 169.723 184.673 168.971C184.659 168.205 183.607 167.754 181.816 167.754ZM200.834 163.953V167.193H202.666V168.109H200.834V171.281H199.767V163.953H200.834ZM200.834 171.979V175.943H193.164V171.979H200.834ZM194.216 172.84V175.068H199.767V172.84H194.216ZM198.605 165.252V166.141H191.359V165.252H194.449V163.857H195.515V165.252H198.605ZM194.982 166.742C196.732 166.742 197.894 167.604 197.908 168.902C197.894 170.229 196.732 171.076 194.982 171.076C193.218 171.076 192.043 170.229 192.056 168.902C192.043 167.604 193.218 166.742 194.982 166.742ZM194.982 167.576C193.834 167.576 193.068 168.109 193.082 168.902C193.068 169.736 193.834 170.242 194.982 170.256C196.117 170.242 196.882 169.736 196.896 168.902C196.882 168.109 196.117 167.576 194.982 167.576ZM206.173 165.43C206.159 167.986 205.804 170.857 204.026 173.209L203.179 172.717C204.703 170.81 205.154 168.561 205.243 166.318H203.425V165.43H206.173ZM208.866 165.43C208.859 166.421 208.839 167.562 208.688 168.738H210.302V164.281H211.327V175.492H210.302V169.627H208.552C208.271 171.145 207.738 172.683 206.747 174.016L205.913 173.51C207.595 171.363 207.875 168.588 207.923 166.318H206.556V165.43H208.866ZM213.61 163.953V176.107H212.571V163.953H213.61ZM224.343 165.676C224.33 167.303 226.503 168.684 228.623 168.998L228.226 169.846C226.326 169.524 224.48 168.513 223.742 167.043C223.003 168.513 221.151 169.524 219.285 169.846L218.861 168.998C220.966 168.684 223.14 167.303 223.14 165.676V165.594H219.244V164.719H228.226V165.594H224.343V165.676ZM229.279 170.885V171.773H224.248V176.107H223.195V171.773H218.205V170.885H229.279ZM241.139 170.174V171.062H236.19V173.551H235.124V171.062H230.011V170.174H241.139ZM239.69 164.555V168.779H231.46V164.555H239.69ZM232.512 165.402V167.918H238.624V165.402H232.512ZM239.895 174.945V175.848H231.432V172.348H232.512V174.945H239.895ZM247.914 166.059V166.934H241.816V166.059H244.346V164.322H245.412V166.059H247.914ZM244.865 167.754C246.397 167.754 247.49 168.902 247.504 170.516C247.49 172.143 246.397 173.305 244.865 173.305C243.348 173.305 242.254 172.143 242.254 170.516C242.254 168.902 243.348 167.754 244.865 167.754ZM244.865 168.656C243.908 168.67 243.211 169.449 243.211 170.516C243.211 171.596 243.908 172.375 244.865 172.361C245.836 172.375 246.547 171.596 246.547 170.516C246.547 169.449 245.836 168.67 244.865 168.656ZM252.193 163.953V176.107H251.168V169.969H249.555V175.506H248.543V164.254H249.555V169.08H251.168V163.953H252.193ZM263.036 165.676C263.022 167.303 265.196 168.684 267.315 168.998L266.919 169.846C265.018 169.524 263.172 168.513 262.434 167.043C261.696 168.513 259.843 169.524 257.977 169.846L257.553 168.998C259.659 168.684 261.833 167.303 261.833 165.676V165.594H257.936V164.719H266.919V165.594H263.036V165.676ZM267.971 170.885V171.773H262.94V176.107H261.887V171.773H256.897V170.885H267.971ZM272.326 167.412C272.326 169.34 273.269 171.432 274.883 172.389L274.267 173.223C273.099 172.512 272.258 171.213 271.834 169.736C271.383 171.35 270.48 172.737 269.264 173.482L268.58 172.676C270.262 171.691 271.287 169.531 271.287 167.453V165.102H272.326V167.412ZM279.135 163.953V176.107H278.096V163.953H279.135ZM276.619 164.213V175.492H275.607V169.23H273.543V168.314H275.607V164.213H276.619ZM291.665 173.646V174.549H280.536V173.646H283.298V170.365C282.259 169.825 281.63 168.95 281.63 167.85C281.63 165.963 283.476 164.732 286.073 164.719C288.671 164.732 290.517 165.963 290.517 167.85C290.517 168.93 289.908 169.798 288.903 170.338V173.646H291.665ZM286.073 165.607C284.077 165.594 282.669 166.496 282.669 167.85C282.669 169.203 284.077 170.119 286.073 170.119C288.056 170.119 289.478 169.203 289.478 167.85C289.478 166.496 288.056 165.594 286.073 165.607ZM284.351 173.646H287.823V170.748C287.297 170.892 286.709 170.967 286.073 170.967C285.451 170.967 284.87 170.898 284.351 170.762V173.646ZM293.641 175.082C293.163 175.082 292.752 174.686 292.766 174.193C292.752 173.715 293.163 173.318 293.641 173.318C294.12 173.318 294.516 173.715 294.516 174.193C294.516 174.686 294.12 175.082 293.641 175.082Z" fill="black"/>
<line x1="37" y1="196.5" x2="345" y2="196.5" stroke="#F0F3F7"/>
<path d="M113.386 216.816V229.258H111.704V222.982H110.569V228.711H108.942V217.09H110.569V221.574H111.704V216.816H113.386ZM108.177 218.266C108.177 221.807 107.302 224.719 103.569 226.852L102.558 225.621C104.185 224.698 105.19 223.652 105.784 222.436L102.872 222.75L102.667 221.273L106.263 221.082C106.372 220.631 106.441 220.159 106.482 219.66H103.31V218.266H108.177ZM124.836 216.816V229.285H123.073V216.816H124.836ZM121.227 217.91V219.332H116.92V224.842C119.149 224.835 120.516 224.787 122.088 224.5L122.252 225.936C120.53 226.264 118.944 226.318 116.25 226.318H115.17V217.91H121.227ZM136.642 216.816V223.803H134.906V216.816H136.642ZM128.699 217.527V221.725C130.586 221.711 132.185 221.574 133.853 221.219L134.058 222.627C132.117 223.037 130.257 223.188 128.029 223.188H126.949V217.527H128.699ZM136.642 224.309V229.107H128.33V224.309H136.642ZM130.039 225.676V227.74H134.933V225.676H130.039ZM145.058 218.061V219.059C145.044 220.234 145.044 221.766 144.716 223.83L142.993 223.693C143.273 221.889 143.301 220.556 143.321 219.455H138.604V218.061H145.058ZM141.954 221.629V225.238C143.178 225.19 144.422 225.102 145.563 224.951L145.673 226.25C143.116 226.688 140.286 226.729 138.112 226.715L137.948 225.32C138.645 225.313 139.425 225.313 140.231 225.293V221.629H141.954ZM147.915 216.816V221.82H149.61V223.27H147.915V229.258H146.151V216.816H147.915ZM162.695 216.816V219.879H164.376V221.342H162.695V224.322H160.945V216.816H162.695ZM162.695 224.869V229.121H154.56V224.869H162.695ZM156.283 226.236V227.727H160.972V226.236H156.283ZM160.207 217.938V219.318H152.824V217.938H155.654V216.748H157.39V217.938H160.207ZM156.515 219.701C158.32 219.701 159.578 220.617 159.578 221.93C159.578 223.283 158.32 224.186 156.515 224.186C154.683 224.186 153.425 223.283 153.425 221.93C153.425 220.617 154.683 219.701 156.515 219.701ZM156.515 221.014C155.681 221.014 155.121 221.342 155.134 221.93C155.121 222.559 155.681 222.9 156.515 222.9C157.349 222.9 157.923 222.559 157.923 221.93C157.923 221.342 157.349 221.014 156.515 221.014ZM167.706 218.238C167.692 221.342 167.391 224.131 165.805 226.592L164.452 225.881C165.73 223.946 166.113 222.06 166.202 219.646H164.862V218.238H167.706ZM170.495 218.238C170.488 219.332 170.468 220.419 170.372 221.479H171.438V217.09H173.079V228.711H171.438V222.887H170.194C169.928 224.411 169.456 225.874 168.595 227.221L167.268 226.482C168.656 224.363 168.943 222.169 169.005 219.646H168.061V218.238H170.495ZM175.526 216.816V229.258H173.858V216.816H175.526ZM190.197 216.816V229.258H188.529V216.816H190.197ZM187.654 216.994V228.684H186.013V224.828H184.55C184.085 226.038 183.272 226.729 182.226 226.729C180.585 226.729 179.519 225.006 179.519 222.203C179.519 219.414 180.585 217.705 182.226 217.705C183.265 217.705 184.078 218.382 184.55 219.578H186.013V216.994H187.654ZM182.226 219.346C181.501 219.346 181.091 220.303 181.105 222.203C181.091 224.117 181.501 225.061 182.226 225.047C182.951 225.061 183.388 224.117 183.388 222.203C183.388 220.303 182.937 219.346 182.226 219.346ZM184.892 220.973C184.947 221.355 184.974 221.766 184.974 222.203C184.974 222.634 184.947 223.044 184.892 223.42H186.013V220.973H184.892ZM202.714 218.457V219.865H201.1V221.137H202.714V222.586H201.1V224.158H199.35V216.816H201.1V218.457H202.714ZM201.1 224.65V229.258H199.35V226.059H192.719V224.65H201.1ZM194.729 217.5C196.657 217.486 198.12 218.771 198.12 220.521C198.12 222.312 196.657 223.57 194.729 223.57C192.788 223.57 191.311 222.312 191.311 220.521C191.311 218.771 192.788 217.486 194.729 217.5ZM194.729 218.99C193.745 218.99 193.02 219.551 193.034 220.521C193.02 221.52 193.745 222.094 194.729 222.094C195.686 222.094 196.411 221.52 196.424 220.521C196.411 219.551 195.686 218.99 194.729 218.99ZM209.051 218.717V220.098H203.035V218.717H205.195V217.158H206.918V218.717H209.051ZM206.07 220.658C207.656 220.658 208.791 221.889 208.805 223.611C208.791 225.348 207.656 226.578 206.07 226.578C204.484 226.578 203.322 225.348 203.322 223.611C203.322 221.889 204.484 220.658 206.07 220.658ZM206.07 222.107C205.346 222.107 204.853 222.668 204.853 223.611C204.853 224.555 205.346 225.102 206.07 225.102C206.767 225.102 207.26 224.555 207.273 223.611C207.26 222.668 206.767 222.107 206.07 222.107ZM213.809 216.816V229.258H212.154V223.27H211.142V228.725H209.516V217.062H211.142V221.875H212.154V216.816H213.809ZM218.218 217.691C220.118 217.691 221.486 219.414 221.499 222.121C221.486 224.855 220.118 226.564 218.218 226.564C216.318 226.564 214.923 224.855 214.937 222.121C214.923 219.414 216.318 217.691 218.218 217.691ZM218.218 219.264C217.261 219.264 216.618 220.275 216.618 222.121C216.618 223.98 217.261 224.979 218.218 224.979C219.189 224.979 219.818 223.98 219.831 222.121C219.818 220.275 219.189 219.264 218.218 219.264ZM226.448 219.701V221.164H224.685V223.379H226.448V224.801H224.685V229.258H222.935V216.816H224.685V219.701H226.448ZM239.451 216.816V221.684H241.283V223.119H239.451V229.258H237.728V216.816H239.451ZM236.881 218.676V220.07H229.566V218.676H232.383V217.008H234.133V218.676H236.881ZM233.258 220.768C235.076 220.768 236.429 221.998 236.429 223.734C236.429 225.471 235.076 226.701 233.258 226.701C231.426 226.701 230.072 225.471 230.072 223.734C230.072 221.998 231.426 220.768 233.258 220.768ZM233.258 222.176C232.383 222.189 231.74 222.777 231.74 223.734C231.74 224.705 232.383 225.279 233.258 225.266C234.133 225.279 234.761 224.705 234.761 223.734C234.761 222.777 234.133 222.189 233.258 222.176ZM251.558 220.207V221.574H242.862V217.254H244.599V220.207H251.558ZM252.829 222.914V224.281H241.44V222.914H252.829ZM251.64 227.59V228.984H242.753V225.293H244.503V227.59H251.64ZM260.759 218.771C260.759 220.275 261.634 221.725 263.603 222.34L262.673 223.693C261.354 223.256 260.431 222.408 259.898 221.314C259.358 222.572 258.394 223.557 256.972 224.035L256.029 222.668C258.107 221.971 258.996 220.316 259.009 218.607V217.473H260.759V218.771ZM266.091 216.816V219.729H267.773V221.178H266.091V224.199H264.341V216.816H266.091ZM262.017 224.445C264.587 224.445 266.214 225.334 266.214 226.852C266.214 228.383 264.587 229.258 262.017 229.258C259.392 229.258 257.752 228.383 257.752 226.852C257.752 225.334 259.392 224.445 262.017 224.445ZM262.017 225.812C260.377 225.812 259.488 226.168 259.502 226.852C259.488 227.562 260.377 227.891 262.017 227.891C263.63 227.891 264.492 227.562 264.492 226.852C264.492 226.168 263.63 225.812 262.017 225.812ZM279.388 222.641V224.021H274.575V225.088H278.034V229.121H269.352V225.088H272.839V224.021H268.04V222.641H279.388ZM278.376 217.158V218.553H276.749V220.453H278.294V221.848H269.12V220.453H270.651V218.553H269.038V217.158H278.376ZM271.075 226.441V227.727H276.325V226.441H271.075ZM272.401 220.453H274.999V218.553H272.401V220.453Z" fill="#00A6D1"/>
<path d="M150.957 246.965V248.455C150.957 250.164 150.957 251.859 150.506 254.43L148.742 254.279C149.207 251.887 149.207 250.109 149.221 248.455V248.359H142.18V246.965H150.957ZM152.352 255.195V256.631H141.004V255.195H152.352ZM162.695 245.83V248.729H164.376V250.164H162.695V253.281H160.945V245.83H162.695ZM158.976 246.568V250.273H155.011V251.367C157.069 251.354 158.463 251.271 160.042 250.998L160.234 252.393C158.443 252.721 156.843 252.789 154.328 252.789H153.275V248.961H157.281V247.936H153.261V246.568H158.976ZM158.593 253.527C161.177 253.527 162.818 254.43 162.818 255.92C162.818 257.396 161.177 258.244 158.593 258.244C155.955 258.244 154.328 257.396 154.328 255.92C154.328 254.43 155.955 253.527 158.593 253.527ZM158.593 254.881C156.939 254.881 156.037 255.223 156.05 255.92C156.037 256.59 156.939 256.945 158.593 256.945C160.234 256.945 161.095 256.59 161.095 255.92C161.095 255.223 160.234 254.881 158.593 254.881ZM176.032 255.359V256.809H164.643V255.359H176.032ZM175.075 246.91V248.305H173.325V252.078H175.02V253.445H165.587V252.078H167.255V248.305H165.532V246.91H175.075ZM169.005 252.078H171.602V248.305H169.005V252.078ZM186.895 245.816V258.285H185.158V245.816H186.895ZM183.039 246.855V251.654H178.938V253.938C180.831 253.931 182.444 253.821 184.27 253.527L184.42 254.936C182.369 255.291 180.524 255.373 178.254 255.373H177.133V250.273H181.262V248.264H177.119V246.855H183.039ZM201.21 246.281V247.02C201.21 247.758 201.21 248.756 200.991 249.986L199.268 249.85C199.412 248.954 199.446 248.257 199.46 247.648H192.528V246.281H201.21ZM202.549 250.492V251.846H191.256V250.492H195.495V248.66H197.217V250.492H202.549ZM201.21 252.625V255.947H194.264V256.822H201.551V258.162H192.528V254.771H199.487V254.006H192.514V252.625H201.21ZM214.437 255.359V256.809H203.049V255.359H214.437ZM213.48 246.91V248.305H211.73V252.078H213.426V253.445H203.992V252.078H205.66V248.305H203.937V246.91H213.48ZM207.41 252.078H210.008V248.305H207.41V252.078ZM227.85 246.268V247.348C227.85 248.325 227.85 249.364 227.604 250.629H229.135V252.01H217.842V250.629H225.868C225.936 250.253 225.984 249.904 226.032 249.576L219.059 249.85L218.868 248.51L226.114 248.359V247.635H219.209V246.268H227.85ZM227.905 252.748V256.016H220.823V256.781H228.342V258.121H219.086V254.758H226.168V254.074H219.073V252.748H227.905ZM240.121 245.83V252.707H238.385V249.631H236.375V248.209H238.385V245.83H240.121ZM233.49 253.213V254.348H238.398V253.213H240.121V258.121H231.767V253.213H233.49ZM233.49 256.727H238.398V255.674H233.49V256.727ZM235.746 246.281V250H231.849V251.08C233.736 251.066 235.09 251.012 236.648 250.766L236.771 252.16C234.994 252.434 233.435 252.488 231.138 252.475H230.127V248.715H234.037V247.662H230.099V246.281H235.746ZM127.05 274.227C127.064 271.643 127.761 269.496 129.019 267.678H130.058C129.128 269.031 128.267 271.793 128.267 274.227C128.267 276.66 129.128 279.436 130.058 280.789H129.019C127.761 278.957 127.064 276.811 127.05 274.227ZM138.145 271.191C137.722 269.92 136.751 269.113 135.343 269.113C133.593 269.113 132.198 270.494 132.198 273.051C132.198 275.607 133.593 276.988 135.425 276.988C137.099 276.988 138.241 275.867 138.268 274.117H135.684V273.037H139.472V274.104C139.472 276.564 137.776 278.137 135.425 278.137C132.786 278.137 131.009 276.182 131.009 273.051C131.009 269.92 132.8 267.965 135.343 267.965C137.434 267.965 139.048 269.277 139.417 271.191H138.145ZM140.887 278V270.576H142.022V271.711H142.104C142.377 270.959 143.143 270.453 144.018 270.453C144.195 270.453 144.496 270.467 144.633 270.48V271.67C144.551 271.643 144.223 271.588 143.922 271.588C142.856 271.588 142.063 272.326 142.063 273.324V278H140.887ZM145.132 275.895C145.132 274.186 146.636 273.803 147.921 273.707C148.393 273.673 149.596 273.611 149.931 273.598V272.996C149.931 272.053 149.371 271.506 148.249 271.506C147.306 271.506 146.746 271.943 146.581 272.504H145.351C145.501 271.314 146.663 270.48 148.304 270.48C149.275 270.48 151.093 270.768 151.093 273.105V278H149.931V276.988H149.876C149.63 277.494 148.947 278.178 147.662 278.178C146.253 278.178 145.132 277.344 145.132 275.895ZM146.308 275.949C146.308 276.729 146.964 277.125 147.867 277.125C149.193 277.125 149.931 276.236 149.931 275.307V274.555L148.058 274.691C146.992 274.76 146.308 275.143 146.308 275.949ZM153.876 273.543V278H152.7V270.576H153.835V271.738H153.93C154.286 270.986 154.969 270.48 156.104 270.48C157.608 270.48 158.606 271.396 158.606 273.283V278H157.43V273.365C157.43 272.217 156.801 271.533 155.749 271.533C154.669 271.533 153.876 272.258 153.876 273.543ZM163.016 278.15C161.17 278.15 159.857 276.66 159.857 274.309C159.857 271.957 161.17 270.48 163.029 270.48C164.465 270.48 164.93 271.355 165.176 271.752H165.258V268.102H166.447V278H165.299V276.865H165.176C164.916 277.275 164.437 278.15 163.016 278.15ZM163.18 277.098C164.533 277.098 165.299 275.949 165.299 274.281C165.299 272.641 164.561 271.533 163.18 271.533C161.758 271.533 161.047 272.736 161.047 274.281C161.047 275.867 161.771 277.098 163.18 277.098ZM171.588 278V268.102H174.952C177.276 268.102 178.329 269.482 178.329 271.246C178.329 272.996 177.276 274.404 174.965 274.404H172.819V278H171.588ZM172.819 273.311H174.911C176.483 273.311 177.112 272.422 177.112 271.246C177.112 270.057 176.483 269.195 174.897 269.195H172.819V273.311ZM179.621 278V270.576H180.756V271.711H180.838C181.111 270.959 181.877 270.453 182.752 270.453C182.929 270.453 183.23 270.467 183.367 270.48V271.67C183.285 271.643 182.957 271.588 182.656 271.588C181.59 271.588 180.797 272.326 180.797 273.324V278H179.621ZM184.235 278V270.576H185.411V278H184.235ZM184.823 269.346C184.372 269.346 184.003 269.004 184.003 268.566C184.003 268.129 184.372 267.787 184.823 267.787C185.274 267.787 185.657 268.129 185.657 268.566C185.657 269.004 185.274 269.346 184.823 269.346ZM187.893 270.576L189.643 273.598L191.407 270.576H192.76L190.368 274.281L192.76 278H191.42L189.643 275.129L187.893 278H186.539L188.877 274.281L186.539 270.576H187.893ZM204.04 271.191C203.616 269.92 202.645 269.113 201.237 269.113C199.487 269.113 198.093 270.494 198.093 273.051C198.093 275.607 199.487 276.988 201.319 276.988C202.994 276.988 204.136 275.867 204.163 274.117H201.579V273.037H205.366V274.104C205.366 276.564 203.671 278.137 201.319 278.137C198.681 278.137 196.903 276.182 196.903 273.051C196.903 269.92 198.694 267.965 201.237 267.965C203.329 267.965 204.942 269.277 205.311 271.191H204.04ZM209.817 278.15C207.793 278.15 206.426 276.633 206.426 274.322C206.426 272.012 207.793 270.48 209.817 270.48C211.826 270.48 213.18 272.012 213.18 274.322C213.18 276.633 211.826 278.15 209.817 278.15ZM209.817 277.111C211.307 277.111 212.004 275.799 212.004 274.322C212.004 272.846 211.307 271.52 209.817 271.52C208.299 271.52 207.602 272.846 207.602 274.322C207.602 275.799 208.299 277.111 209.817 277.111ZM215.621 268.102V278H214.445V268.102H215.621ZM220.536 270.576V271.561H218.895V278H217.706V271.561H216.516V270.576H217.706V269.564C217.706 268.361 218.512 267.637 219.825 267.637C220.112 267.637 220.454 267.678 220.7 267.719V268.771C220.454 268.73 220.235 268.717 220.085 268.717C219.264 268.717 218.895 269.059 218.895 269.824V270.576H220.536ZM231.788 271.219C231.501 269.852 230.326 269.113 229.027 269.113C227.236 269.113 225.841 270.494 225.841 273.051C225.841 275.607 227.236 276.988 229.027 276.988C230.326 276.988 231.488 276.25 231.788 274.896H233.019C232.663 276.92 231.036 278.137 229.027 278.137C226.484 278.137 224.652 276.182 224.652 273.051C224.652 269.92 226.484 267.965 229.027 267.965C231.023 267.965 232.65 269.168 233.019 271.219H231.788ZM235.487 268.102V278H234.311V268.102H235.487ZM241.769 274.951V270.576H242.932V278H241.769V276.742H241.687C241.332 277.494 240.607 278.096 239.486 278.096C238.078 278.096 237.08 277.18 237.08 275.293V270.576H238.256V275.211C238.256 276.277 238.926 276.961 239.869 276.961C240.703 276.961 241.769 276.332 241.769 274.951ZM244.689 278V268.102H245.864V271.752H245.96C246.22 271.355 246.657 270.48 248.107 270.48C249.966 270.48 251.278 271.957 251.278 274.309C251.278 276.66 249.966 278.15 248.12 278.15C246.698 278.15 246.22 277.275 245.96 276.865H245.823V278H244.689ZM245.837 274.281C245.837 275.949 246.589 277.098 247.943 277.098C249.351 277.098 250.089 275.867 250.089 274.281C250.089 272.736 249.378 271.533 247.943 271.533C246.575 271.533 245.837 272.641 245.837 274.281ZM254.95 274.227C254.936 276.811 254.239 278.957 252.981 280.789H251.942C252.872 279.436 253.733 276.66 253.733 274.227C253.733 271.793 252.872 269.031 251.942 267.678H252.981C254.239 269.496 254.936 271.643 254.95 274.227Z" fill="#1A1A1A"/>
<line x1="37" y1="299.5" x2="345" y2="299.5" stroke="#F0F3F7"/>
<rect x="37.5" y="316.5" width="79" height="43" rx="4.5" stroke="#D9DDE3"/>
<path d="M70.0723 334.25C70.0723 335.48 71.2891 336.52 73.0117 336.902L72.5742 337.764C71.1729 337.422 70.0928 336.677 69.5664 335.686C69.04 336.759 67.9463 337.572 66.5039 337.928L66.0391 337.066C67.7891 336.684 69.0059 335.549 69.0059 334.25V334.195H66.2988V333.348H69.0059V331.994H70.0723V333.348H72.7793V334.195H70.0723V334.25ZM75.5137 331.967V344.121H74.4609V331.967H75.5137ZM65.4648 338.789C67.7891 338.789 70.8789 338.762 73.5723 338.42L73.6406 339.199C72.4785 339.391 71.2754 339.507 70.0996 339.568V343.752H69.0332V339.623C67.8027 339.685 66.6338 339.691 65.6152 339.691L65.4648 338.789ZM88.4407 341.633V342.521H77.3118V341.633H82.2884V338.652H83.3411V341.633H88.4407ZM83.3684 333.717C83.3684 335.754 85.7747 337.531 87.8938 337.9L87.4153 338.789C85.5628 338.413 83.6077 337.155 82.8216 335.398C82.0218 337.148 80.0804 338.413 78.2278 338.789L77.7493 337.9C79.8684 337.531 82.2473 335.754 82.2473 333.717V332.787H83.3684V333.717Z" fill="#6D747D"/>
<rect x="133" y="316" width="212" height="44" rx="5" fill="#00A6D1"/>
<path d="M208.938 332.65V334.045H206.463C206.477 335.494 207.345 336.896 209.334 337.477L208.5 338.844C207.126 338.427 206.176 337.593 205.629 336.52C205.075 337.777 204.063 338.775 202.566 339.268L201.678 337.887C203.742 337.237 204.672 335.624 204.699 334.045H202.156V332.65H208.938ZM211.74 331.816V334.701H213.422V336.123H211.74V339.199H209.99V331.816H211.74ZM207.666 339.445C210.25 339.432 211.863 340.32 211.863 341.838C211.863 343.355 210.25 344.258 207.666 344.258C205.027 344.258 203.4 343.355 203.4 341.838C203.4 340.32 205.027 339.432 207.666 339.445ZM207.666 340.799C206.025 340.799 205.137 341.141 205.15 341.838C205.137 342.549 206.025 342.904 207.666 342.904C209.279 342.904 210.141 342.549 210.141 341.838C210.141 341.141 209.279 340.799 207.666 340.799ZM223.505 331.816V336.465H225.337V337.928H223.505V344.258H221.755V331.816H223.505ZM215.822 332.801V335.836H218.406V332.801H220.142V341.373H214.085V332.801H215.822ZM215.822 339.965H218.406V337.189H215.822V339.965ZM235.53 332.541V333.662C235.53 334.824 235.53 336.096 235.215 337.832H236.856V339.24H232.003V344.271H230.253V339.24H225.508V337.832H233.452C233.766 336.226 233.794 335.009 233.794 333.936H226.807V332.541H235.53ZM247.787 331.816V344.258H246.051V331.816H247.787ZM239.721 333.006V339.691C241.402 339.671 243.207 339.514 245.039 339.158L245.258 340.594C243.07 341.045 241.019 341.195 239.092 341.182H237.998V333.006H239.721ZM263.442 339.268V340.689H258.616V344.271H256.893V340.689H252.094V339.268H263.442ZM262.403 333.252V334.619H258.67C258.869 335.713 260.27 336.943 262.84 337.23L262.211 338.598C260.106 338.358 258.581 337.497 257.768 336.355C256.961 337.511 255.423 338.358 253.297 338.598L252.668 337.23C255.239 336.943 256.654 335.72 256.866 334.619H253.12V333.252H256.893V331.83H258.616V333.252H262.403ZM273.73 331.816V336.588H275.494V338.023H273.73V344.23H271.98V331.816H273.73ZM270.408 333.088C270.394 336.807 268.945 340.033 264.761 342.084L263.777 340.744C266.723 339.268 268.302 337.285 268.631 334.51H264.488V333.088H270.408Z" fill="#E8FAFF"/>
</g>
<defs>
<filter id="filter0_d_575_43432" x="0" y="46" width="382" height="366" filterUnits="userSpaceOnUse" color-interpolation-filters="sRGB">
<feFlood flood-opacity="0" result="BackgroundImageFix"/>
<feColorMatrix in="SourceAlpha" type="matrix" values="0 0 0 0 0 0 0 0 0 0 0 0 0 0 0 0 0 0 127 0" result="hardAlpha"/>
<feOffset dy="11"/>
<feGaussianBlur stdDeviation="12.5"/>
<feColorMatrix type="matrix" values="0 0 0 0 0 0 0 0 0 0 0 0 0 0 0 0 0 0 0.1 0"/>
<feBlend mode="normal" in2="BackgroundImageFix" result="effect1_dropShadow_575_43432"/>
<feBlend mode="normal" in="SourceGraphic" in2="effect1_dropShadow_575_43432" result="shape"/>
</filter>
</defs>
</svg>
