<svg width="21" height="19" viewBox="0 0 21 19" fill="none" xmlns="http://www.w3.org/2000/svg">
<path fill-rule="evenodd" clip-rule="evenodd" d="M10.7644 15.0032H10.7686C11.4906 15.0063 12.1841 14.7224 12.6968 14.2141C13.2094 13.7057 13.4991 13.0146 13.5022 12.2927C13.5052 11.5707 13.2213 10.8772 12.713 10.3646C12.2047 9.85192 11.5135 9.56222 10.7916 9.55917H10.778C10.0561 9.55737 9.36303 9.84242 8.85128 10.3516C8.33952 10.8608 8.05101 11.5525 8.04921 12.2744C8.04741 12.9963 8.33246 13.6894 8.84166 14.2011C9.35087 14.7129 10.0425 15.0014 10.7644 15.0032ZM9.91768 11.4177C10.1456 11.1889 10.4551 11.06 10.778 11.0592H10.7841C11.1071 11.06 11.4165 11.1889 11.6445 11.4177C11.8724 11.6465 12.0002 11.9565 11.9998 12.2794C11.9994 12.6024 11.8708 12.912 11.6423 13.1402C11.4138 13.3685 11.104 13.4966 10.7811 13.4966C10.4581 13.4966 10.1483 13.3685 9.91983 13.1402C9.69131 12.912 9.56273 12.6024 9.56233 12.2794C9.56192 11.9565 9.68973 11.6465 9.91768 11.4177Z" fill="#6B7280"/>
<path fill-rule="evenodd" clip-rule="evenodd" d="M15.3751 5.99997H19.2956C19.7448 6.00142 20.1753 6.17953 20.4943 6.49581C20.8132 6.81209 20.9948 7.24115 21 7.69027C21 7.7198 21 7.74887 20.9958 7.77793L20.9677 8.03574C20.963 8.0776 20.9549 8.119 20.9433 8.15949L18.5199 16.7048C18.3577 17.2594 18.0207 17.7468 17.5589 18.0942C17.0972 18.4417 16.5355 18.6306 15.9577 18.6327H5.03399C4.4578 18.6309 3.89784 18.4417 3.43873 18.0935C2.97962 17.7454 2.64631 17.2572 2.48916 16.7029L0.0680785 8.16652C0.0211226 8.01124 -0.00179889 7.84968 0.000110121 7.68746C0.00589353 7.23863 0.187976 6.81007 0.507039 6.49434C0.826102 6.17861 1.25654 6.00104 1.70541 5.99997H5.62512L9.9001 0.299999C9.96996 0.206852 10.0605 0.13125 10.1647 0.0791791C10.2688 0.0271085 10.3837 0 10.5001 0C10.6165 0 10.7314 0.0271085 10.8355 0.0791791C10.9396 0.13125 11.0302 0.206852 11.1001 0.299999L15.3751 5.99997ZM13.5001 5.99997L10.5001 2.00015L7.50014 5.99997H13.5001ZM1.56103 7.55957C1.59945 7.52149 1.65132 7.50008 1.70541 7.49996H19.2961C19.3454 7.50009 19.3931 7.5179 19.4304 7.55015C19.4677 7.5824 19.4923 7.62696 19.4995 7.67574L19.4845 7.81074L17.0794 16.2913C17.0082 16.5336 16.8606 16.7464 16.6586 16.898C16.4567 17.0496 16.2112 17.132 15.9586 17.1327H5.0368C4.78668 17.1322 4.54357 17.0501 4.34428 16.8989C4.145 16.7478 4.00042 16.5358 3.93243 16.2951L1.50901 7.7498C1.50848 7.74771 1.50763 7.74561 1.50677 7.74349C1.50533 7.73992 1.50385 7.73628 1.50385 7.73246C1.50104 7.72304 1.49977 7.71322 1.5001 7.7034C1.50072 7.64931 1.52261 7.59764 1.56103 7.55957Z" fill="#6B7280"/>
</svg>
