<svg width="23" height="21" viewBox="0 0 23 21" fill="none" xmlns="http://www.w3.org/2000/svg">
<path fill-rule="evenodd" clip-rule="evenodd" d="M3.00012 7.68696C3.41435 7.68696 3.75015 8.02276 3.75015 8.43699V19.4999H7.50031V13.8747C7.50031 13.3774 7.69786 12.9005 8.0495 12.5488C8.40115 12.1972 8.87808 11.9996 9.37538 11.9996H13.1255C13.6228 11.9996 14.0998 12.1972 14.4514 12.5488C14.8031 12.9005 15.0006 13.3774 15.0006 13.8747V19.4999H18.7508V8.43699C18.7508 8.02276 19.0866 7.68696 19.5008 7.68696C19.915 7.68696 20.2508 8.02276 20.2508 8.43699V19.4999C20.2508 19.8978 20.0928 20.2793 19.8115 20.5606C19.5301 20.842 19.1486 21 18.7508 21H14.2506C13.8363 21 13.5005 20.6642 13.5005 20.25V13.8747C13.5005 13.7753 13.461 13.6799 13.3907 13.6095C13.3204 13.5392 13.225 13.4997 13.1255 13.4997H9.37538C9.27592 13.4997 9.18054 13.5392 9.11021 13.6095C9.03988 13.6799 9.00037 13.7753 9.00037 13.8747V20.25C9.00037 20.6642 8.66457 21 8.25034 21H3.75015C3.35231 21 2.97077 20.842 2.68945 20.5606C2.40813 20.2793 2.25009 19.8978 2.25009 19.4999V8.43699C2.25009 8.02276 2.58589 7.68696 3.00012 7.68696Z" fill="white"/>
<path fill-rule="evenodd" clip-rule="evenodd" d="M12.2898 0.404685L22.2695 9.9578C22.5688 10.2442 22.5791 10.719 22.2927 11.0183C22.0063 11.3175 21.5315 11.3279 21.2322 11.0414L11.2655 1.50072C11.2609 1.50031 11.2559 1.50007 11.2507 1.50006C11.2453 1.50005 11.2401 1.50029 11.2354 1.5007L1.26868 11.0414C0.969445 11.3279 0.494665 11.3175 0.208226 11.0183C-0.0782137 10.719 -0.0678441 10.2442 0.231387 9.9578L10.2118 0.404068C10.5177 0.0938872 10.9347 -0.000568761 11.2534 2.57301e-06C11.5708 0.000571627 11.9863 0.0958023 12.2898 0.404685Z" fill="white"/>
<path fill-rule="evenodd" clip-rule="evenodd" d="M15.0006 1.49921C15.0006 1.08498 15.3364 0.749176 15.7506 0.749176H18.0007C18.415 0.749176 18.7508 1.08498 18.7508 1.49921V6.89005C18.7508 7.30428 18.415 7.64008 18.0007 7.64008C17.5865 7.64008 17.2507 7.30428 17.2507 6.89005V2.24924H16.5007V4.73371C16.5007 5.14794 16.1649 5.48374 15.7506 5.48374C15.3364 5.48374 15.0006 5.14794 15.0006 4.73371V1.49921Z" fill="white"/>
</svg>
