<svg width="18" height="18" viewBox="0 0 18 18" fill="none" xmlns="http://www.w3.org/2000/svg">
<path d="M15.4886 10.9189H3.15288V3.25417C3.15288 2.902 2.86611 2.61523 2.51394 2.61523C2.16177 2.61523 1.875 2.902 1.875 3.25417V14.7475C1.875 15.0997 2.16177 15.3865 2.51394 15.3865C2.86611 15.3865 3.15288 15.0997 3.15288 14.7475V12.1943H14.8471V14.7475C14.8471 15.0997 15.1339 15.3865 15.4861 15.3865C15.8382 15.3865 16.125 15.0997 16.125 14.7475V11.5553C16.125 11.2032 15.8407 10.9189 15.4886 10.9189Z" fill="#ACB2BA"/>
<path d="M5.06984 8.36234C5.77558 8.36234 6.34769 7.79023 6.34769 7.08449C6.34769 6.37875 5.77558 5.80664 5.06984 5.80664C4.36411 5.80664 3.79199 6.37875 3.79199 7.08449C3.79199 7.79023 4.36411 8.36234 5.06984 8.36234Z" fill="#ACB2BA"/>
<path d="M13.5719 6.44922H7.62311C7.27094 6.44922 6.98417 6.73599 6.98417 7.08816V7.8925C6.98417 8.50551 6.48722 9.00246 5.87421 9.00246L4.45964 9.00246C4.12619 9.00246 3.8277 9.24544 3.79514 9.5773C3.75779 9.9581 4.05761 10.2803 4.43093 10.2803H15.2322C15.373 10.2803 15.4888 10.1671 15.4888 10.0238V8.36352C15.4888 7.30701 14.631 6.44922 13.5719 6.44922Z" fill="#ACB2BA"/>
</svg>
