<svg width="20" height="20" viewBox="0 0 20 20" fill="none" xmlns="http://www.w3.org/2000/svg">
<mask id="mask0_399_8770" style="mask-type:luminance" maskUnits="userSpaceOnUse" x="2" y="2" width="16" height="16">
<path d="M2 2H18V18H2V2Z" fill="white"/>
</mask>
<g mask="url(#mask0_399_8770)">
<path d="M4.21875 9.78125C2.99534 9.78125 2 10.7766 2 12C2 13.2234 2.99534 14.2188 4.21875 14.2188C5.44216 14.2188 6.4375 13.2234 6.4375 12C6.4375 10.7766 5.44216 9.78125 4.21875 9.78125Z" fill="#6D747D"/>
<path d="M15.7812 9.78125C14.5578 9.78125 13.5625 10.7766 13.5625 12C13.5625 13.2234 14.5578 14.2188 15.7812 14.2188C17.0047 14.2188 18 13.2234 18 12C18 10.7766 17.0047 9.78125 15.7812 9.78125Z" fill="#6D747D"/>
<path d="M18 4.03125V2.46875C18 2.20987 17.7901 2 17.5312 2H2.46875C2.20987 2 2 2.20987 2 2.46875V4.03125H18Z" fill="#6D747D"/>
<path d="M6.83706 10.2383C8.28644 8.87328 8.9565 6.67784 9.26597 4.96769H3.46875C3.20988 4.96769 3 5.17756 3 5.43644V9.08759C3.37519 8.92994 3.78694 8.84269 4.21875 8.84269C5.30769 8.84269 6.26953 9.39703 6.83706 10.2383Z" fill="#6D747D"/>
<path d="M8.28125 17.5312C8.28125 15.6806 7.64619 14.4818 6.87175 13.7081C6.30925 14.5787 5.33019 15.1562 4.21875 15.1562C3.78697 15.1562 3.37519 15.069 3 14.9114V17.5312C3 17.7901 3.20987 18 3.46875 18H8.28125V17.5312Z" fill="#6D747D"/>
<path d="M9.53145 11.5312V7.61553C9.28139 8.299 8.98686 8.91753 8.65073 9.46366C8.24442 10.1238 7.77648 10.6794 7.25195 11.1258C7.28998 11.2576 7.31939 11.393 7.34008 11.5312H9.53145Z" fill="#6D747D"/>
<path d="M11.3495 9.46366C11.0133 8.9175 10.7188 8.299 10.4688 7.61553V11.5312H12.6598C12.6805 11.393 12.7104 11.2578 12.7485 11.1259C12.2238 10.6795 11.7558 10.1239 11.3495 9.46366Z" fill="#6D747D"/>
<path d="M10.7324 4.96786C10.7985 5.33386 10.8812 5.72183 10.9846 6.1187C11.3334 7.4572 11.9808 9.11617 13.1645 10.2363C13.7321 9.39627 14.6932 8.84286 15.7812 8.84286C16.213 8.84286 16.6248 8.93011 17 9.08773V5.43661C17 5.17773 16.7901 4.96786 16.5312 4.96786H10.7324Z" fill="#6D747D"/>
<path d="M15.7812 15.1562C14.6697 15.1562 13.6913 14.5782 13.1288 13.7075C12.6641 14.1717 12.2497 14.7889 11.9923 15.608C11.9876 15.6278 11.9817 15.647 11.9746 15.6657C11.8137 16.1991 11.7188 16.8164 11.7188 17.5312V18H16.5312C16.7901 18 17 17.7901 17 17.5312V14.9114C16.6248 15.069 16.213 15.1562 15.7812 15.1562Z" fill="#6D747D"/>
<path d="M9.53183 12.4688H7.34036C7.32327 12.5828 7.30045 12.6949 7.27148 12.8047C7.84852 13.3138 8.42352 14.0325 8.79752 15.0312H9.53183V12.4688Z" fill="#6D747D"/>
<path d="M12.6598 12.4688H10.4688V15.0312H11.2029C11.5771 14.0321 12.1524 13.3133 12.7297 12.8041C12.7008 12.6944 12.6769 12.5827 12.6598 12.4688Z" fill="#6D747D"/>
</g>
</svg>
