<svg width="22" height="21" viewBox="0 0 22 21" fill="none" xmlns="http://www.w3.org/2000/svg">
<path d="M16.125 8.63333H14V6.3C14 5.55739 13.6839 4.8452 13.1213 4.3201C12.5587 3.795 11.7956 3.5 11 3.5C10.2044 3.5 9.44129 3.795 8.87868 4.3201C8.31607 4.8452 8 5.55739 8 6.3V8.63333H5.875C5.77554 8.63333 5.68016 8.67021 5.60983 8.73585C5.53951 8.80148 5.5 8.89051 5.5 8.98333V17.15C5.5 17.2428 5.53951 17.3319 5.60983 17.3975C5.68016 17.4631 5.77554 17.5 5.875 17.5H16.125C16.2245 17.5 16.3198 17.4631 16.3902 17.3975C16.4605 17.3319 16.5 17.2428 16.5 17.15V8.98333C16.5 8.89051 16.4605 8.80148 16.3902 8.73585C16.3198 8.67021 16.2245 8.63333 16.125 8.63333ZM12.8125 8.63333H9.1875V6.27813C9.1875 5.82947 9.37846 5.39919 9.71837 5.08194C10.0583 4.76469 10.5193 4.58646 11 4.58646C11.4807 4.58646 11.9417 4.76469 12.2816 5.08194C12.6215 5.39919 12.8125 5.82947 12.8125 6.27813V8.63333Z" fill="#33363D"/>
</svg>
