<svg width="68" height="24" viewBox="0 0 68 24" fill="none" xmlns="http://www.w3.org/2000/svg">
<g clip-path="url(#clip0_122_8480)">
<path d="M24.0946 5.3873H12.8074C12.0319 5.3873 11.2934 6.26069 10.8995 6.84901C10.1179 8.03172 7.99466 11.8892 7.85927 13.1508C7.69925 14.6853 8.75781 15.7406 9.79175 16.7656C10.4503 17.4207 12.6228 19.5799 13.349 18.1182L15.6077 8.43203C15.6877 8.02566 16.6047 7.41307 16.937 7.41307H24.0946V13.7269C24.0946 15.2129 22.4206 18.3547 21.4359 19.5313C13.8167 28.5867 -0.806135 22.6367 0.0370187 10.9673C0.443209 5.30238 5.45905 0.559398 11.1765 0.15303C13.4536 -0.0107307 18.5802 -0.107774 20.7343 0.195486C22.0082 0.377442 24.0946 1.97259 24.0946 3.27661V5.38123V5.3873Z" fill="white"/>
<path d="M28.7904 7.46134C34.0771 6.83662 40.3053 7.61903 41.9978 13.4052C44.3549 21.472 34.3294 27.4644 28.1627 21.6418C25.3686 19.0034 25.1286 14.0118 25.6148 10.4333C25.8486 8.71077 27.0672 7.66149 28.7904 7.46134ZM38.0713 15.7282C38.0713 13.5083 36.2434 11.707 33.9848 11.707C31.7261 11.707 29.8982 13.5083 29.8982 15.7282C29.8982 17.9481 31.7261 19.7494 33.9848 19.7494C36.2434 19.7494 38.0713 17.9481 38.0713 15.7282Z" fill="white"/>
<path d="M53.5742 7.45541L67.1077 7.43115C68.234 7.60704 68.4555 10.0877 66.8062 10.3121C64.3444 10.6518 61.181 10.0271 58.7008 10.3243C57.5561 10.4577 57.5192 11.0399 57.2545 11.9497C56.276 15.328 55.9375 19.3675 54.8358 22.6366C54.485 23.6859 54.005 24.2803 52.811 23.8133C51.7586 23.4008 48.3983 20.1014 47.8875 19.0763C47.4075 18.1059 47.5121 17.1658 47.8075 16.165C48.1891 14.8671 51.2232 9.08089 52.1279 8.21963C52.4479 7.9103 53.1311 7.53426 53.568 7.46148L53.5742 7.45541Z" fill="white"/>
<path d="M43.6841 19.9313C45.9059 19.434 47.3829 22.1148 45.5489 23.5098C44.8781 24.0193 42.5517 24.3286 42.2809 23.4309C42.1763 23.0913 42.2132 21.5629 42.3178 21.205C42.4594 20.7441 43.2041 20.0466 43.6841 19.9374V19.9313Z" fill="white"/>
<path d="M34.3723 13.847C34.5763 13.847 34.7416 13.684 34.7416 13.4831C34.7416 13.2821 34.5763 13.1191 34.3723 13.1191C34.1684 13.1191 34.0031 13.2821 34.0031 13.4831C34.0031 13.684 34.1684 13.847 34.3723 13.847Z" fill="white"/>
<path d="M35.2032 14.8475C35.4072 14.8475 35.5725 14.6845 35.5725 14.4835C35.5725 14.2826 35.4072 14.1196 35.2032 14.1196C34.9993 14.1196 34.834 14.2826 34.834 14.4835C34.834 14.6845 34.9993 14.8475 35.2032 14.8475Z" fill="white"/>
<path d="M36.1879 15.824C36.3918 15.824 36.5571 15.6611 36.5571 15.4601C36.5571 15.2591 36.3918 15.0962 36.1879 15.0962C35.9839 15.0962 35.8186 15.2591 35.8186 15.4601C35.8186 15.6611 35.9839 15.824 36.1879 15.824Z" fill="white"/>
<path d="M35.5724 13.4827C35.7763 13.4827 35.9417 13.3198 35.9417 13.1188C35.9417 12.9178 35.7763 12.7549 35.5724 12.7549C35.3684 12.7549 35.2031 12.9178 35.2031 13.1188C35.2031 13.3198 35.3684 13.4827 35.5724 13.4827Z" fill="white"/>
<path d="M36.5571 14.4837C36.7611 14.4837 36.9264 14.3208 36.9264 14.1198C36.9264 13.9188 36.7611 13.7559 36.5571 13.7559C36.3532 13.7559 36.1879 13.9188 36.1879 14.1198C36.1879 14.3208 36.3532 14.4837 36.5571 14.4837Z" fill="white"/>
</g>
<defs>
<clipPath id="clip0_122_8480">
<rect width="68" height="24" fill="white"/>
</clipPath>
</defs>
</svg>
