<svg width="68" height="24" viewBox="0 0 68 24" fill="none" xmlns="http://www.w3.org/2000/svg">
<g clip-path="url(#clip0_117_4259)">
<path d="M24.0945 5.38607H12.8073C12.0318 5.38607 11.2933 6.25945 10.8994 6.84778C10.1178 8.03049 7.99454 11.888 7.85914 13.1495C7.69913 14.684 8.75769 15.7394 9.79163 16.7644C10.4501 17.4194 12.6227 19.5786 13.3489 18.1169L15.6075 8.4308C15.6875 8.02443 16.6045 7.41184 16.9369 7.41184H24.0945V13.7257C24.0945 15.2117 22.4205 18.3535 21.4358 19.5301C13.8166 28.5855 -0.806257 22.6355 0.0368966 10.9661C0.443087 5.30115 5.45893 0.558166 11.1764 0.151798C13.4535 -0.0119629 18.5801 -0.109006 20.7342 0.194254C22.0081 0.37621 24.0945 1.97136 24.0945 3.27538V5.38V5.38607Z" fill="#00A6D1"/>
<path d="M28.7903 7.46019C34.0769 6.83548 40.3052 7.61789 41.9977 13.4041C44.3548 21.4708 34.3293 27.4632 28.1626 21.6406C25.3685 19.0023 25.1284 14.0106 25.6146 10.4321C25.8485 8.70962 27.0671 7.66034 28.7903 7.46019ZM38.0712 15.7271C38.0712 13.5072 36.2433 11.7058 33.9846 11.7058C31.726 11.7058 29.8981 13.5072 29.8981 15.7271C29.8981 17.9469 31.726 19.7483 33.9846 19.7483C36.2433 19.7483 38.0712 17.9469 38.0712 15.7271Z" fill="#00A6D1"/>
<path d="M53.5742 7.45413L67.1077 7.42987C68.234 7.60576 68.4555 10.0864 66.8062 10.3108C64.3444 10.6505 61.181 10.0258 58.7008 10.323C57.5561 10.4564 57.5192 11.0387 57.2545 11.9484C56.276 15.3268 55.9375 19.3662 54.8358 22.6353C54.485 23.6846 54.005 24.279 52.811 23.812C51.7586 23.3995 48.3983 20.1001 47.8875 19.0751C47.4075 18.1046 47.5121 17.1645 47.8075 16.1638C48.1891 14.8658 51.2232 9.07961 52.1279 8.21835C52.4479 7.90902 53.1311 7.53298 53.568 7.4602L53.5742 7.45413Z" fill="#00A6D1"/>
<path d="M43.684 19.9302C45.9057 19.4329 47.3828 22.1137 45.5488 23.5087C44.8779 24.0182 42.5516 24.3275 42.2808 23.4299C42.1762 23.0902 42.2131 21.5618 42.3177 21.2039C42.4593 20.743 43.2039 20.0455 43.684 19.9363V19.9302Z" fill="#00A6D1"/>
<path d="M34.3723 13.8469C34.5763 13.8469 34.7416 13.6839 34.7416 13.4829C34.7416 13.282 34.5763 13.119 34.3723 13.119C34.1684 13.119 34.0031 13.282 34.0031 13.4829C34.0031 13.6839 34.1684 13.8469 34.3723 13.8469Z" fill="#00A6D1"/>
<path d="M35.2032 14.8476C35.4072 14.8476 35.5725 14.6847 35.5725 14.4837C35.5725 14.2827 35.4072 14.1198 35.2032 14.1198C34.9993 14.1198 34.834 14.2827 34.834 14.4837C34.834 14.6847 34.9993 14.8476 35.2032 14.8476Z" fill="#00A6D1"/>
<path d="M36.1879 15.8241C36.3918 15.8241 36.5571 15.6612 36.5571 15.4602C36.5571 15.2592 36.3918 15.0963 36.1879 15.0963C35.9839 15.0963 35.8186 15.2592 35.8186 15.4602C35.8186 15.6612 35.9839 15.8241 36.1879 15.8241Z" fill="#00A6D1"/>
<path d="M35.5724 13.4829C35.7763 13.4829 35.9417 13.32 35.9417 13.119C35.9417 12.918 35.7763 12.7551 35.5724 12.7551C35.3684 12.7551 35.2031 12.918 35.2031 13.119C35.2031 13.32 35.3684 13.4829 35.5724 13.4829Z" fill="#00A6D1"/>
<path d="M36.5571 14.4837C36.7611 14.4837 36.9264 14.3208 36.9264 14.1198C36.9264 13.9188 36.7611 13.7559 36.5571 13.7559C36.3532 13.7559 36.1879 13.9188 36.1879 14.1198C36.1879 14.3208 36.3532 14.4837 36.5571 14.4837Z" fill="#00A6D1"/>
</g>
<defs>
<clipPath id="clip0_117_4259">
<rect width="68" height="24" fill="white"/>
</clipPath>
</defs>
</svg>
