<svg width="25" height="24" viewBox="0 0 25 24" fill="none" xmlns="http://www.w3.org/2000/svg">
<path d="M12.4998 1C16.1808 1 19.4998 3.565 19.4998 7V11.539C19.4998 12.181 19.6888 12.808 20.0448 13.342L22.2448 16.64C22.3975 16.8685 22.4853 17.1343 22.4988 17.4088C22.5122 17.6834 22.4508 17.9564 22.3211 18.1988C22.1914 18.4412 21.9983 18.6437 21.7624 18.7848C21.5265 18.926 21.2567 19.0003 20.9818 19H15.9998C15.9998 19.4596 15.9092 19.9148 15.7333 20.3394C15.5575 20.764 15.2997 21.1499 14.9746 21.4749C14.6496 21.7999 14.2638 22.0577 13.8392 22.2336C13.4145 22.4095 12.9594 22.5 12.4998 22.5C12.0401 22.5 11.585 22.4095 11.1604 22.2336C10.7357 22.0577 10.3499 21.7999 10.0249 21.4749C9.69989 21.1499 9.44208 20.764 9.26619 20.3394C9.0903 19.9148 8.99977 19.4596 8.99977 19H4.01877C3.74401 19.0002 3.47434 18.9259 3.23852 18.7849C3.0027 18.6439 2.80957 18.4415 2.67972 18.1994C2.54987 17.9572 2.48818 17.6844 2.50122 17.41C2.51426 17.1355 2.60155 16.8697 2.75377 16.641L4.95377 13.342C5.30978 12.8081 5.49977 12.1807 5.49977 11.539V7C5.49977 3.565 8.81777 1 12.4998 1ZM6.99977 7V11.539C7.00003 12.4767 6.72272 13.3936 6.20277 14.174L4.00277 17.472L3.99977 17.482L4.00077 17.489L4.00477 17.495L4.01077 17.499L4.01777 17.5H20.9818L20.9888 17.499L20.9948 17.495L20.9988 17.489L20.9998 17.483C20.9998 17.4794 20.9988 17.4759 20.9968 17.473L18.7978 14.174C18.2776 13.3936 18 12.4768 17.9998 11.539V7C17.9998 4.636 15.6168 2.5 12.4998 2.5C9.38277 2.5 6.99977 4.636 6.99977 7ZM14.4998 19H10.4998C10.4998 19.5304 10.7105 20.0391 11.0856 20.4142C11.4606 20.7893 11.9693 21 12.4998 21C13.0302 21 13.5389 20.7893 13.914 20.4142C14.2891 20.0391 14.4998 19.5304 14.4998 19Z" fill="#1A1A1A"/>
</svg>
