<svg width="25" height="24" viewBox="0 0 25 24" fill="none" xmlns="http://www.w3.org/2000/svg">
<path fill-rule="evenodd" clip-rule="evenodd" d="M3.08341 8.28028C3.11265 5.42838 5.37826 3 8.29024 3C10.0776 3 11.3924 3.88475 12.2314 4.71777C12.465 4.94972 12.6655 5.18108 12.8334 5.39441C13.0012 5.18108 13.2017 4.94972 13.4353 4.71777C14.2743 3.88475 15.5891 3 17.3765 3C20.2885 3 22.5541 5.42838 22.5833 8.28028C22.6388 13.8425 18.1695 17.6908 13.6771 20.7403C13.4283 20.9095 13.1343 21.0001 12.8334 21.0001C12.5324 21.0001 12.2384 20.9095 11.9896 20.7403C7.4968 17.6908 3.02744 13.8426 3.08341 8.28028ZM13.5033 7.08725C13.3759 7.34027 13.1168 7.5 12.8334 7.5C12.55 7.5 12.2909 7.34029 12.1635 7.08729C12.1633 7.08698 12.163 7.08638 12.1626 7.0855C12.1617 7.08372 12.1601 7.08081 12.158 7.0768C12.1569 7.07467 12.1556 7.07223 12.1541 7.0695C12.1457 7.0537 12.1317 7.02796 12.1121 6.9937C12.0728 6.92508 12.0114 6.82288 11.9281 6.69831C11.7606 6.44793 11.5088 6.11413 11.1745 5.78223C10.5028 5.11525 9.54598 4.5 8.29024 4.5C6.25602 4.5 4.60479 6.20966 4.58333 8.29551M13.5033 7.08725C13.5034 7.08694 13.5037 7.08635 13.5042 7.0855C13.5056 7.08278 13.5084 7.07739 13.5126 7.0695C13.521 7.0537 13.535 7.02796 13.5547 6.9937C13.5939 6.92508 13.6553 6.82288 13.7386 6.69831C13.9062 6.44793 14.1579 6.11413 14.4922 5.78223C15.164 5.11525 16.1208 4.5 17.3765 4.5C19.4107 4.5 21.0619 6.20963 21.0834 8.29545C21.1301 12.9826 17.3658 16.4235 12.834 19.4996L12.8327 19.4996C8.30046 16.4235 4.53625 12.9825 4.58333 8.29551" fill="#1E293B"/>
</svg>
