<svg width="25" height="24" viewBox="0 0 25 24" fill="none" xmlns="http://www.w3.org/2000/svg">
<path fill-rule="evenodd" clip-rule="evenodd" d="M2.75 12C2.75 6.61704 7.11704 2.25 12.5 2.25C17.883 2.25 22.25 6.61704 22.25 12C22.25 17.383 17.883 21.75 12.5 21.75C7.11704 21.75 2.75 17.383 2.75 12ZM12.5 3.75C7.94546 3.75 4.25 7.44546 4.25 12C4.25 16.5545 7.94546 20.25 12.5 20.25C17.0545 20.25 20.75 16.5545 20.75 12C20.75 7.44546 17.0545 3.75 12.5 3.75Z" fill="#1A1A1A"/>
<path fill-rule="evenodd" clip-rule="evenodd" d="M12.5 5.25C12.9142 5.25 13.25 5.58579 13.25 6V12H17C17.4142 12 17.75 12.3358 17.75 12.75C17.75 13.1642 17.4142 13.5 17 13.5H12.5C12.0858 13.5 11.75 13.1642 11.75 12.75V6C11.75 5.58579 12.0858 5.25 12.5 5.25Z" fill="#1A1A1A"/>
</svg>
