<svg width="25" height="24" viewBox="0 0 25 24" fill="none" xmlns="http://www.w3.org/2000/svg">
<path d="M10.4667 6.74009C10.5337 6.81232 10.5858 6.89703 10.62 6.98939C10.6543 7.08175 10.67 7.17995 10.6663 7.27838C10.6626 7.37681 10.6395 7.47355 10.5984 7.56307C10.5573 7.65258 10.499 7.73313 10.4267 7.80009L7.51872 10.5001L10.4267 13.2001C10.499 13.2671 10.5573 13.3476 10.5984 13.4371C10.6395 13.5266 10.6625 13.6234 10.6663 13.7218C10.67 13.8202 10.6543 13.9184 10.62 14.0108C10.5858 14.1032 10.5337 14.1879 10.4667 14.2601C10.3998 14.3323 10.3192 14.3906 10.2297 14.4317C10.1402 14.4728 10.0434 14.4959 9.94501 14.4996C9.84658 14.5033 9.74838 14.4876 9.65602 14.4534C9.56366 14.4192 9.47895 14.3671 9.40672 14.3001L5.90672 11.0501C5.831 10.9799 5.77058 10.8948 5.72927 10.8002C5.68795 10.7055 5.66663 10.6034 5.66663 10.5001C5.66663 10.3968 5.68795 10.2947 5.72927 10.2C5.77058 10.1054 5.831 10.0203 5.90672 9.95009L9.40672 6.70009C9.47895 6.63311 9.56366 6.58101 9.65602 6.54677C9.74838 6.51253 9.84658 6.49682 9.94501 6.50053C10.0434 6.50425 10.1402 6.52732 10.2297 6.56842C10.3192 6.60952 10.3998 6.66786 10.4667 6.74009ZM13.9067 7.80009C13.7609 7.66483 13.6747 7.47717 13.6672 7.27838C13.6597 7.07959 13.7315 6.88596 13.8667 6.74009C14.002 6.59422 14.1897 6.50806 14.3884 6.50056C14.5872 6.49306 14.7809 6.56483 14.9267 6.70009L18.4267 9.95009C18.5025 10.0203 18.5629 10.1054 18.6042 10.2C18.6455 10.2947 18.6668 10.3968 18.6668 10.5001C18.6668 10.6034 18.6455 10.7055 18.6042 10.8002C18.5629 10.8948 18.5025 10.9799 18.4267 11.0501L14.9267 14.3001C14.7809 14.4354 14.5872 14.5071 14.3884 14.4996C14.1897 14.4921 14.002 14.406 13.8667 14.2601C13.7315 14.1142 13.6597 13.9206 13.6672 13.7218C13.6747 13.523 13.7609 13.3354 13.9067 13.2001L16.8147 10.5001L13.9067 7.80009Z" fill="#1A1A1A"/>
<path d="M1.66663 4.25C1.66663 3.284 2.45063 2.5 3.41663 2.5H20.9166C21.8826 2.5 22.6666 3.284 22.6666 4.25V16.75C22.6666 17.2141 22.4823 17.6592 22.1541 17.9874C21.8259 18.3156 21.3808 18.5 20.9166 18.5H11.2266L7.65363 22.073C7.44968 22.2762 7.19015 22.4144 6.90774 22.4703C6.62534 22.5262 6.33271 22.4973 6.06674 22.3871C5.80077 22.277 5.57336 22.0905 5.41317 21.8513C5.25299 21.6121 5.1672 21.3309 5.16663 21.043V18.5H3.41663C2.9525 18.5 2.50738 18.3156 2.17919 17.9874C1.851 17.6592 1.66663 17.2141 1.66663 16.75V4.25ZM3.41663 4C3.35032 4 3.28673 4.02634 3.23985 4.07322C3.19297 4.12011 3.16663 4.1837 3.16663 4.25V16.75C3.16663 16.888 3.27863 17 3.41663 17H5.91663C6.11554 17 6.3063 17.079 6.44696 17.2197C6.58761 17.3603 6.66663 17.5511 6.66663 17.75V20.94L10.3866 17.22C10.4562 17.1503 10.5388 17.095 10.6297 17.0572C10.7207 17.0195 10.8182 17 10.9166 17H20.9166C20.9829 17 21.0465 16.9737 21.0934 16.9268C21.1403 16.8799 21.1666 16.8163 21.1666 16.75V4.25C21.1666 4.1837 21.1403 4.12011 21.0934 4.07322C21.0465 4.02634 20.9829 4 20.9166 4H3.41663Z" fill="#1A1A1A"/>
</svg>
