<svg width="20" height="21" viewBox="0 0 20 21" fill="none" xmlns="http://www.w3.org/2000/svg">
<path fill-rule="evenodd" clip-rule="evenodd" d="M9.76324 0C6.84093 0 4.67128 2.29407 4.89021 5.3044C5.09124 8.06556 7.20651 10.5 9.76324 10.5C12.3207 10.5 14.4316 8.06432 14.6362 5.3054C14.8554 2.34594 12.6903 0 9.76324 0ZM9.76324 1.5C7.71681 1.5 6.23022 3.04971 6.38626 5.1956C6.54619 7.39191 8.19497 9 9.76324 9C11.3308 9 12.9773 7.39219 13.1403 5.19454C13.296 3.09154 11.8049 1.5 9.76324 1.5Z" fill="#6B7280"/>
<path fill-rule="evenodd" clip-rule="evenodd" d="M0.0288036 19.1138C0.882516 14.3802 5.45895 12 9.75002 12C14.0411 12 18.6175 14.3802 19.4717 19.1137C19.5485 19.5395 19.4739 19.9953 19.2214 20.3641C18.9573 20.7498 18.522 21 18 21H1.50002C0.978028 21 0.542897 20.7496 0.278997 20.364C0.0266282 19.9953 -0.0480094 19.5395 0.0288036 19.1138ZM9.75002 13.5C5.88484 13.5 2.18315 15.6198 1.50499 19.38C1.49769 19.4204 1.49913 19.4543 1.50383 19.4789C1.50547 19.4875 1.5074 19.4945 1.50927 19.5H17.9912C17.9931 19.4945 17.995 19.4874 17.9967 19.4788C18.0014 19.4542 18.0028 19.4205 17.9955 19.3801C17.3169 15.6198 13.6152 13.5 9.75002 13.5Z" fill="#6B7280"/>
</svg>
