<svg width="28" height="28" viewBox="0 0 28 28" fill="none" xmlns="http://www.w3.org/2000/svg">
<path d="M9.1171 16.095H18.883V16.1C19.9642 14.9211 20.624 13.3496 20.624 11.624C20.624 7.96568 17.6584 5 14 5C10.3417 5 7.37598 7.96568 7.37598 11.624C7.37598 13.3497 8.03587 14.9212 9.11706 16.1001L9.1171 16.095ZM14.5543 13.6758H15.6537V14.731H14.5543V13.6758ZM12.3463 13.6758H13.4457V14.731H12.3463V13.6758ZM11.2423 7.05145H12.3417V8.10666H11.2423V7.05145ZM11.2423 11.4675H12.3417V12.5227H11.2423V11.4675ZM10.1383 13.6755H11.2377V14.7307H10.1383V13.6755ZM9.0343 9.12943H10.1337V10.1846H9.0343V9.12943ZM9.0343 11.4675H10.1337V12.5227H9.0343V11.4675Z" fill="#ACB2BA"/>
<path d="M12.735 22.8709L12.7637 23H15.2362L15.2805 22.801C15.7386 20.744 17.7631 18.5534 17.7835 18.5315L17.8278 18.484V17.1501H10.1722V18.4836L10.216 18.531C10.2365 18.5531 12.2667 20.768 12.735 22.8709Z" fill="#ACB2BA"/>
</svg>
