<svg width="28" height="28" viewBox="0 0 28 28" fill="none" xmlns="http://www.w3.org/2000/svg">
<path d="M20.7305 22.25H19.6445V6.875C19.6445 6.668 19.4765 6.5 19.2695 6.5H18.1445V5.375C18.1445 5.168 17.9765 5 17.7695 5H10.2695C10.0625 5 9.89453 5.168 9.89453 5.375V6.5H8.76953C8.56253 6.5 8.39453 6.668 8.39453 6.875V22.25H7.26953C7.06253 22.25 6.89453 22.418 6.89453 22.625C6.89453 22.832 7.06253 23 7.26953 23H11.7695C11.9765 23 12.1445 22.832 12.1445 22.625V20.75H15.8945V22.625C15.8945 22.832 16.0625 23 16.2695 23H20.7305C20.9375 23 21.1055 22.832 21.1055 22.625C21.1055 22.418 20.9375 22.25 20.7305 22.25ZM12.1445 18.875C12.1445 19.082 11.9765 19.25 11.7695 19.25H10.2695C10.0625 19.25 9.89453 19.082 9.89453 18.875V17.375C9.89453 17.168 10.0625 17 10.2695 17H11.7695C11.9765 17 12.1445 17.168 12.1445 17.375V18.875ZM12.1445 15.875C12.1445 16.082 11.9765 16.25 11.7695 16.25H10.2695C10.0625 16.25 9.89453 16.082 9.89453 15.875V14.375C9.89453 14.168 10.0625 14 10.2695 14H11.7695C11.9765 14 12.1445 14.168 12.1445 14.375V15.875ZM12.1445 12.875C12.1445 13.082 11.9765 13.25 11.7695 13.25H10.2695C10.0625 13.25 9.89453 13.082 9.89453 12.875V11.375C9.89453 11.168 10.0625 11 10.2695 11H11.7695C11.9765 11 12.1445 11.168 12.1445 11.375V12.875ZM12.1445 9.875C12.1445 10.082 11.9765 10.25 11.7695 10.25H10.2695C10.0625 10.25 9.89453 10.082 9.89453 9.875V8.375C9.89453 8.168 10.0625 8 10.2695 8H11.7695C11.9765 8 12.1445 8.168 12.1445 8.375V9.875ZM15.1445 18.875C15.1445 19.082 14.9765 19.25 14.7695 19.25H13.2695C13.0625 19.25 12.8945 19.082 12.8945 18.875V17.375C12.8945 17.168 13.0625 17 13.2695 17H14.7695C14.9765 17 15.1445 17.168 15.1445 17.375V18.875ZM15.1445 15.875C15.1445 16.082 14.9765 16.25 14.7695 16.25H13.2695C13.0625 16.25 12.8945 16.082 12.8945 15.875V14.375C12.8945 14.168 13.0625 14 13.2695 14H14.7695C14.9765 14 15.1445 14.168 15.1445 14.375V15.875ZM15.1445 12.875C15.1445 13.082 14.9765 13.25 14.7695 13.25H13.2695C13.0625 13.25 12.8945 13.082 12.8945 12.875V11.375C12.8945 11.168 13.0625 11 13.2695 11H14.7695C14.9765 11 15.1445 11.168 15.1445 11.375V12.875ZM15.1445 9.875C15.1445 10.082 14.9765 10.25 14.7695 10.25H13.2695C13.0625 10.25 12.8945 10.082 12.8945 9.875V8.375C12.8945 8.168 13.0625 8 13.2695 8H14.7695C14.9765 8 15.1445 8.168 15.1445 8.375V9.875ZM18.1445 18.875C18.1445 19.082 17.9765 19.25 17.7695 19.25H16.2695C16.0625 19.25 15.8945 19.082 15.8945 18.875V17.375C15.8945 17.168 16.0625 17 16.2695 17H17.7695C17.9765 17 18.1445 17.168 18.1445 17.375V18.875ZM18.1445 15.875C18.1445 16.082 17.9765 16.25 17.7695 16.25H16.2695C16.0625 16.25 15.8945 16.082 15.8945 15.875V14.375C15.8945 14.168 16.0625 14 16.2695 14H17.7695C17.9765 14 18.1445 14.168 18.1445 14.375V15.875ZM18.1445 12.875C18.1445 13.082 17.9765 13.25 17.7695 13.25H16.2695C16.0625 13.25 15.8945 13.082 15.8945 12.875V11.375C15.8945 11.168 16.0625 11 16.2695 11H17.7695C17.9765 11 18.1445 11.168 18.1445 11.375V12.875ZM18.1445 9.875C18.1445 10.082 17.9765 10.25 17.7695 10.25H16.2695C16.0625 10.25 15.8945 10.082 15.8945 9.875V8.375C15.8945 8.168 16.0625 8 16.2695 8H17.7695C17.9765 8 18.1445 8.168 18.1445 8.375V9.875Z" fill="#ACB2BA"/>
</svg>
