<svg width="28" height="28" viewBox="0 0 28 28" fill="none" xmlns="http://www.w3.org/2000/svg">
<path d="M14 14C14.9585 14 15.8954 13.7068 16.6924 13.1573C17.4893 12.6079 18.1105 11.827 18.4773 10.9134C18.8441 9.99979 18.94 8.99445 18.753 8.02455C18.566 7.05465 18.1045 6.16373 17.4267 5.46447C16.749 4.76521 15.8855 4.289 14.9454 4.09608C14.0054 3.90315 13.031 4.00217 12.1455 4.3806C11.2599 4.75904 10.5031 5.3999 9.97057 6.22215C9.43807 7.0444 9.15385 8.0111 9.15385 9C9.15385 10.3261 9.66442 11.5979 10.5733 12.5355C11.4821 13.4732 12.7147 14 14 14ZM14 15.4286C10.9963 15.4286 5 17.3429 5 21.1429V24H23V21.1429C23 17.3429 17.0037 15.4286 14 15.4286Z" fill="#ACB2BA"/>
</svg>
