<svg width="20" height="20" viewBox="0 0 20 20" fill="none" xmlns="http://www.w3.org/2000/svg">
<path fill-rule="evenodd" clip-rule="evenodd" d="M3.69839 1.40245C5.06687 0.488056 6.67577 0 8.32164 0C10.5286 0.000140484 12.6452 0.876922 14.2058 2.43749C15.7664 3.99806 16.6431 6.11461 16.6433 8.32159C16.6433 9.96745 16.1552 11.5764 15.2408 12.9449C14.3264 14.3134 13.0268 15.38 11.5062 16.0098C9.98561 16.6397 8.31241 16.8045 6.69817 16.4834C5.08393 16.1623 3.60116 15.3697 2.43735 14.2059C1.27355 13.0421 0.480994 11.5593 0.159902 9.94511C-0.16119 8.33087 0.00360556 6.65766 0.63345 5.13708C1.2633 3.6165 2.3299 2.31684 3.69839 1.40245ZM8.32159 1.53846C6.98002 1.53847 5.66858 1.9363 4.55311 2.68163C3.43762 3.42698 2.56821 4.48636 2.0548 5.72583C1.5414 6.96529 1.40707 8.32916 1.6688 9.64497C1.93053 10.9608 2.57657 12.1694 3.52521 13.1181C4.47385 14.0667 5.6825 14.7127 6.99831 14.9745C8.31411 15.2362 9.67798 15.1019 10.9174 14.5885C12.1569 14.0751 13.2163 13.2057 13.9616 12.0902C14.707 10.9747 15.1048 9.66325 15.1048 8.32168M8.32159 1.53846C10.1206 1.53859 11.8459 2.25328 13.1179 3.52535C14.39 4.79741 15.1047 6.52271 15.1048 8.32168" fill="#6B7280"/>
<path fill-rule="evenodd" clip-rule="evenodd" d="M13.4123 13.4123C13.7127 13.1119 14.1998 13.1119 14.5002 13.4123L19.7747 18.6868C20.0751 18.9872 20.0751 19.4743 19.7747 19.7747C19.4743 20.0751 18.9872 20.0751 18.6868 19.7747L13.4123 14.5002C13.1119 14.1998 13.1119 13.7127 13.4123 13.4123Z" fill="#6B7280"/>
</svg>
