<svg width="18" height="18" viewBox="0 0 18 18" fill="none" xmlns="http://www.w3.org/2000/svg">
<path fill-rule="evenodd" clip-rule="evenodd" d="M11.9773 2.97725C12.1969 2.75758 12.5531 2.75758 12.7727 2.97725L16.7102 6.91475C16.9299 7.13442 16.9299 7.49058 16.7102 7.71025C16.4906 7.92992 16.1344 7.92992 15.9148 7.71025L12.375 4.1705L8.83525 7.71025C8.61558 7.92992 8.25942 7.92992 8.03975 7.71025C7.82008 7.49058 7.82008 7.13442 8.03975 6.91475L11.9773 2.97725Z" fill="#ACB2BA"/>
<path fill-rule="evenodd" clip-rule="evenodd" d="M12.375 3.41473C12.6857 3.41473 12.9375 3.66657 12.9375 3.97723V14.625C12.9375 14.9357 12.6857 15.1875 12.375 15.1875C12.0643 15.1875 11.8125 14.9357 11.8125 14.625V3.97723C11.8125 3.66657 12.0643 3.41473 12.375 3.41473Z" fill="#ACB2BA"/>
<path fill-rule="evenodd" clip-rule="evenodd" d="M1.28975 10.2898C1.50942 10.0701 1.86558 10.0701 2.08525 10.2898L5.625 13.8295L9.16475 10.2898C9.38442 10.0701 9.74058 10.0701 9.96025 10.2898C10.1799 10.5094 10.1799 10.8656 9.96025 11.0852L6.02275 15.0227C5.80308 15.2424 5.44692 15.2424 5.22725 15.0227L1.28975 11.0852C1.07008 10.8656 1.07008 10.5094 1.28975 10.2898Z" fill="#ACB2BA"/>
<path fill-rule="evenodd" clip-rule="evenodd" d="M5.625 2.8125C5.93566 2.8125 6.1875 3.06434 6.1875 3.375V13.9922C6.1875 14.3028 5.93566 14.5547 5.625 14.5547C5.31434 14.5547 5.0625 14.3028 5.0625 13.9922V3.375C5.0625 3.06434 5.31434 2.8125 5.625 2.8125Z" fill="#ACB2BA"/>
</svg>
